<?xml version="1.0" encoding="UTF-8"?>
<svg width="369px" height="302px" viewBox="0 0 369 302" version="1.1" xmlns="http://www.w3.org/2000/svg" xmlns:xlink="http://www.w3.org/1999/xlink">
    <title>across-asset-class-large</title>
    <defs>
        <path d="M78.7401366,64.5192012 C79.7108032,64.5192012 80.5588032,64.3458678 81.2841366,63.9992012 C82.0094699,63.6525345 82.6228032,63.1645345 83.1241366,62.5352012 L83.1241366,62.5352012 L81.5081366,61.3992012 C81.2201366,61.7938678 80.8414699,62.1112012 80.3721366,62.3512012 C79.9028032,62.5912012 79.3641366,62.7112012 78.7561366,62.7112012 C78.1694699,62.7112012 77.6414699,62.6098678 77.1721366,62.4072012 C76.7028032,62.2045345 76.3001366,61.9192012 75.9641366,61.5512012 C75.6281366,61.1832012 75.3694699,60.7432012 75.1881366,60.2312012 C75.0068032,59.7192012 74.9161366,59.1538678 74.9161366,58.5352012 C74.9161366,57.9485345 75.0094699,57.4045345 75.1961366,56.9032012 C75.3828032,56.4018678 75.6494699,55.9645345 75.9961366,55.5912012 C76.3428032,55.2178678 76.7561366,54.9245345 77.2361366,54.7112012 C77.7161366,54.4978678 78.2494699,54.3912012 78.8361366,54.3912012 C79.2948032,54.3912012 79.7641366,54.4845345 80.2441366,54.6712012 C80.7241366,54.8578678 81.1134699,55.1538678 81.4121366,55.5592012 L81.4121366,55.5592012 L82.9481366,54.3432012 C82.7241366,54.0445345 82.4521366,53.7885345 82.1321366,53.5752012 C81.8121366,53.3618678 81.4708032,53.1832012 81.1081366,53.0392012 C80.7454699,52.8952012 80.3668032,52.7885345 79.9721366,52.7192012 C79.5774699,52.6498678 79.1988032,52.6152012 78.8361366,52.6152012 C77.9614699,52.6152012 77.1508032,52.7538678 76.4041366,53.0312012 C75.6574699,53.3085345 75.0094699,53.7032012 74.4601366,54.2152012 C73.9108032,54.7272012 73.4788032,55.3485345 73.1641366,56.0792012 C72.8494699,56.8098678 72.6921366,57.6285345 72.6921366,58.5352012 C72.6921366,59.4205345 72.8414699,60.2285345 73.1401366,60.9592012 C73.4388032,61.6898678 73.8548032,62.3192012 74.3881366,62.8472012 C74.9214699,63.3752012 75.5588032,63.7858678 76.3001366,64.0792012 C77.0414699,64.3725345 77.8548032,64.5192012 78.7401366,64.5192012 Z M86.6013429,64.2312012 L87.6253429,61.6392012 L92.5373429,61.6392012 L93.5933429,64.2312012 L95.8973429,64.2312012 L91.0173429,52.9032012 L89.2733429,52.9032012 L84.3453429,64.2312012 L86.6013429,64.2312012 Z M91.8333429,59.9112012 L88.3133429,59.9112012 L90.0893429,55.3032012 L91.8333429,59.9112012 Z M101.406549,64.5192012 C101.961216,64.5192012 102.489216,64.4445345 102.990549,64.2952012 C103.491883,64.1458678 103.929216,63.9218678 104.302549,63.6232012 C104.675883,63.3245345 104.974549,62.9485345 105.198549,62.4952012 C105.422549,62.0418678 105.534549,61.5112012 105.534549,60.9032012 C105.534549,60.3485345 105.430549,59.8845345 105.222549,59.5112012 C105.014549,59.1378678 104.747883,58.8285345 104.422549,58.5832012 C104.097216,58.3378678 103.739883,58.1405345 103.350549,57.9912012 C102.961216,57.8418678 102.585216,57.7085345 102.222549,57.5912012 C101.902549,57.4952012 101.609216,57.3992012 101.342549,57.3032012 C101.075883,57.2072012 100.849216,57.0952012 100.662549,56.9672012 C100.475883,56.8392012 100.329216,56.6845345 100.222549,56.5032012 C100.115883,56.3218678 100.062549,56.1032012 100.062549,55.8472012 C100.062549,55.5698678 100.123883,55.3325345 100.246549,55.1352012 C100.369216,54.9378678 100.526549,54.7778678 100.718549,54.6552012 C100.910549,54.5325345 101.123883,54.4418678 101.358549,54.3832012 C101.593216,54.3245345 101.827883,54.2952012 102.062549,54.2952012 C102.457216,54.2952012 102.849216,54.3885345 103.238549,54.5752012 C103.627883,54.7618678 103.929216,54.9938678 104.142549,55.2712012 L104.142549,55.2712012 L105.454549,53.8312012 C105.017216,53.4258678 104.502549,53.1218678 103.910549,52.9192012 C103.318549,52.7165345 102.734549,52.6152012 102.158549,52.6152012 C101.646549,52.6152012 101.142549,52.6818678 100.646549,52.8152012 C100.150549,52.9485345 99.7078826,53.1512012 99.3185492,53.4232012 C98.9292159,53.6952012 98.6145492,54.0392012 98.3745492,54.4552012 C98.1345492,54.8712012 98.0145492,55.3672012 98.0145492,55.9432012 C98.0145492,56.4765345 98.0998826,56.9218678 98.2705492,57.2792012 C98.4412159,57.6365345 98.6625492,57.9378678 98.9345492,58.1832012 C99.2065492,58.4285345 99.5132159,58.6258678 99.8545492,58.7752012 C100.195883,58.9245345 100.537216,59.0525345 100.878549,59.1592012 C101.230549,59.2765345 101.566549,59.3885345 101.886549,59.4952012 C102.206549,59.6018678 102.483883,59.7272012 102.718549,59.8712012 C102.953216,60.0152012 103.139883,60.1858678 103.278549,60.3832012 C103.417216,60.5805345 103.486549,60.8285345 103.486549,61.1272012 C103.486549,61.4365345 103.425216,61.6952012 103.302549,61.9032012 C103.179883,62.1112012 103.019883,62.2845345 102.822549,62.4232012 C102.625216,62.5618678 102.403883,62.6605345 102.158549,62.7192012 C101.913216,62.7778678 101.673216,62.8072012 101.438549,62.8072012 C100.990549,62.8072012 100.534549,62.6952012 100.070549,62.4712012 C99.6065492,62.2472012 99.2358826,61.9432012 98.9585492,61.5592012 L98.9585492,61.5592012 L97.5185492,62.9032012 C97.9665492,63.4365345 98.5425492,63.8392012 99.2465492,64.1112012 C99.9505492,64.3832012 100.670549,64.5192012 101.406549,64.5192012 Z M110.915756,64.2312012 L110.915756,59.2072012 L116.211756,59.2072012 L116.211756,64.2312012 L118.227756,64.2312012 L118.227756,52.9032012 L116.211756,52.9032012 L116.211756,57.4792012 L110.915756,57.4792012 L110.915756,52.9032012 L108.899756,52.9032012 L108.899756,64.2312012 L110.915756,64.2312012 Z" id="path-1"></path>
        <path d="M188.450579,170.288 C189.005245,170.288 189.533245,170.213333 190.034579,170.064 C190.535912,169.914667 190.973245,169.690667 191.346579,169.392 C191.719912,169.093333 192.018579,168.717333 192.242579,168.264 C192.466579,167.810667 192.578579,167.28 192.578579,166.672 C192.578579,166.117333 192.474579,165.653333 192.266579,165.28 C192.058579,164.906667 191.791912,164.597333 191.466579,164.352 C191.141245,164.106667 190.783912,163.909333 190.394579,163.76 C190.005245,163.610667 189.629245,163.477333 189.266579,163.36 C188.946579,163.264 188.653245,163.168 188.386579,163.072 C188.119912,162.976 187.893245,162.864 187.706579,162.736 C187.519912,162.608 187.373245,162.453333 187.266579,162.272 C187.159912,162.090667 187.106579,161.872 187.106579,161.616 C187.106579,161.338667 187.167912,161.101333 187.290579,160.904 C187.413245,160.706667 187.570579,160.546667 187.762579,160.424 C187.954579,160.301333 188.167912,160.210667 188.402579,160.152 C188.637245,160.093333 188.871912,160.064 189.106579,160.064 C189.501245,160.064 189.893245,160.157333 190.282579,160.344 C190.671912,160.530667 190.973245,160.762667 191.186579,161.04 L191.186579,161.04 L192.498579,159.6 C192.061245,159.194667 191.546579,158.890667 190.954579,158.688 C190.362579,158.485333 189.778579,158.384 189.202579,158.384 C188.690579,158.384 188.186579,158.450667 187.690579,158.584 C187.194579,158.717333 186.751912,158.92 186.362579,159.192 C185.973245,159.464 185.658579,159.808 185.418579,160.224 C185.178579,160.64 185.058579,161.136 185.058579,161.712 C185.058579,162.245333 185.143912,162.690667 185.314579,163.048 C185.485245,163.405333 185.706579,163.706667 185.978579,163.952 C186.250579,164.197333 186.557245,164.394667 186.898579,164.544 C187.239912,164.693333 187.581245,164.821333 187.922579,164.928 C188.274579,165.045333 188.610579,165.157333 188.930579,165.264 C189.250579,165.370667 189.527912,165.496 189.762579,165.64 C189.997245,165.784 190.183912,165.954667 190.322579,166.152 C190.461245,166.349333 190.530579,166.597333 190.530579,166.896 C190.530579,167.205333 190.469245,167.464 190.346579,167.672 C190.223912,167.88 190.063912,168.053333 189.866579,168.192 C189.669245,168.330667 189.447912,168.429333 189.202579,168.488 C188.957245,168.546667 188.717245,168.576 188.482579,168.576 C188.034579,168.576 187.578579,168.464 187.114579,168.24 C186.650579,168.016 186.279912,167.712 186.002579,167.328 L186.002579,167.328 L184.562579,168.672 C185.010579,169.205333 185.586579,169.608 186.290579,169.88 C186.994579,170.152 187.714579,170.288 188.450579,170.288 Z M199.991785,170 L199.991785,160.432 L203.463785,160.432 L203.463785,158.672 L194.503785,158.672 L194.503785,160.432 L197.975785,160.432 L197.975785,170 L199.991785,170 Z M211.164991,170.288 C212.050325,170.288 212.866325,170.141333 213.612991,169.848 C214.359658,169.554667 215.004991,169.144 215.548991,168.616 C216.092991,168.088 216.516991,167.458667 216.820991,166.728 C217.124991,165.997333 217.276991,165.189333 217.276991,164.304 C217.276991,163.397333 217.124991,162.578667 216.820991,161.848 C216.516991,161.117333 216.092991,160.496 215.548991,159.984 C215.004991,159.472 214.359658,159.077333 213.612991,158.8 C212.866325,158.522667 212.050325,158.384 211.164991,158.384 C210.290325,158.384 209.482325,158.522667 208.740991,158.8 C207.999658,159.077333 207.359658,159.472 206.820991,159.984 C206.282325,160.496 205.860991,161.117333 205.556991,161.848 C205.252991,162.578667 205.100991,163.397333 205.100991,164.304 C205.100991,165.189333 205.252991,165.997333 205.556991,166.728 C205.860991,167.458667 206.282325,168.088 206.820991,168.616 C207.359658,169.144 207.999658,169.554667 208.740991,169.848 C209.482325,170.141333 210.290325,170.288 211.164991,170.288 Z M211.180991,168.48 C210.604991,168.48 210.079658,168.376 209.604991,168.168 C209.130325,167.96 208.719658,167.669333 208.372991,167.296 C208.026325,166.922667 207.759658,166.482667 207.572991,165.976 C207.386325,165.469333 207.292991,164.912 207.292991,164.304 C207.292991,163.717333 207.386325,163.173333 207.572991,162.672 C207.759658,162.170667 208.023658,161.733333 208.364991,161.36 C208.706325,160.986667 209.114325,160.693333 209.588991,160.48 C210.063658,160.266667 210.594325,160.16 211.180991,160.16 C211.767658,160.16 212.300991,160.266667 212.780991,160.48 C213.260991,160.693333 213.671658,160.986667 214.012991,161.36 C214.354325,161.733333 214.618325,162.170667 214.804991,162.672 C214.991658,163.173333 215.084991,163.717333 215.084991,164.304 C215.084991,164.912 214.991658,165.469333 214.804991,165.976 C214.618325,166.482667 214.351658,166.922667 214.004991,167.296 C213.658325,167.669333 213.244991,167.96 212.764991,168.168 C212.284991,168.376 211.756991,168.48 211.180991,168.48 Z M226.082198,170.288 C227.052864,170.288 227.900864,170.114667 228.626198,169.768 C229.351531,169.421333 229.964864,168.933333 230.466198,168.304 L230.466198,168.304 L228.850198,167.168 C228.562198,167.562667 228.183531,167.88 227.714198,168.12 C227.244864,168.36 226.706198,168.48 226.098198,168.48 C225.511531,168.48 224.983531,168.378667 224.514198,168.176 C224.044864,167.973333 223.642198,167.688 223.306198,167.32 C222.970198,166.952 222.711531,166.512 222.530198,166 C222.348864,165.488 222.258198,164.922667 222.258198,164.304 C222.258198,163.717333 222.351531,163.173333 222.538198,162.672 C222.724864,162.170667 222.991531,161.733333 223.338198,161.36 C223.684864,160.986667 224.098198,160.693333 224.578198,160.48 C225.058198,160.266667 225.591531,160.16 226.178198,160.16 C226.636864,160.16 227.106198,160.253333 227.586198,160.44 C228.066198,160.626667 228.455531,160.922667 228.754198,161.328 L228.754198,161.328 L230.290198,160.112 C230.066198,159.813333 229.794198,159.557333 229.474198,159.344 C229.154198,159.130667 228.812864,158.952 228.450198,158.808 C228.087531,158.664 227.708864,158.557333 227.314198,158.488 C226.919531,158.418667 226.540864,158.384 226.178198,158.384 C225.303531,158.384 224.492864,158.522667 223.746198,158.8 C222.999531,159.077333 222.351531,159.472 221.802198,159.984 C221.252864,160.496 220.820864,161.117333 220.506198,161.848 C220.191531,162.578667 220.034198,163.397333 220.034198,164.304 C220.034198,165.189333 220.183531,165.997333 220.482198,166.728 C220.780864,167.458667 221.196864,168.088 221.730198,168.616 C222.263531,169.144 222.900864,169.554667 223.642198,169.848 C224.383531,170.141333 225.196864,170.288 226.082198,170.288 Z M235.079404,170 L235.079404,164.32 L235.127404,164.32 L240.103404,170 L242.935404,170 L237.287404,163.904 L242.583404,158.672 L239.863404,158.672 L235.127404,163.568 L235.079404,163.568 L235.079404,158.672 L233.063404,158.672 L233.063404,170 L235.079404,170 Z M248.47661,170.288 C249.031277,170.288 249.559277,170.213333 250.06061,170.064 C250.561944,169.914667 250.999277,169.690667 251.37261,169.392 C251.745944,169.093333 252.04461,168.717333 252.26861,168.264 C252.49261,167.810667 252.60461,167.28 252.60461,166.672 C252.60461,166.117333 252.50061,165.653333 252.29261,165.28 C252.08461,164.906667 251.817944,164.597333 251.49261,164.352 C251.167277,164.106667 250.809944,163.909333 250.42061,163.76 C250.031277,163.610667 249.655277,163.477333 249.29261,163.36 C248.97261,163.264 248.679277,163.168 248.41261,163.072 C248.145944,162.976 247.919277,162.864 247.73261,162.736 C247.545944,162.608 247.399277,162.453333 247.29261,162.272 C247.185944,162.090667 247.13261,161.872 247.13261,161.616 C247.13261,161.338667 247.193944,161.101333 247.31661,160.904 C247.439277,160.706667 247.59661,160.546667 247.78861,160.424 C247.98061,160.301333 248.193944,160.210667 248.42861,160.152 C248.663277,160.093333 248.897944,160.064 249.13261,160.064 C249.527277,160.064 249.919277,160.157333 250.30861,160.344 C250.697944,160.530667 250.999277,160.762667 251.21261,161.04 L251.21261,161.04 L252.52461,159.6 C252.087277,159.194667 251.57261,158.890667 250.98061,158.688 C250.38861,158.485333 249.80461,158.384 249.22861,158.384 C248.71661,158.384 248.21261,158.450667 247.71661,158.584 C247.22061,158.717333 246.777944,158.92 246.38861,159.192 C245.999277,159.464 245.68461,159.808 245.44461,160.224 C245.20461,160.64 245.08461,161.136 245.08461,161.712 C245.08461,162.245333 245.169944,162.690667 245.34061,163.048 C245.511277,163.405333 245.73261,163.706667 246.00461,163.952 C246.27661,164.197333 246.583277,164.394667 246.92461,164.544 C247.265944,164.693333 247.607277,164.821333 247.94861,164.928 C248.30061,165.045333 248.63661,165.157333 248.95661,165.264 C249.27661,165.370667 249.553944,165.496 249.78861,165.64 C250.023277,165.784 250.209944,165.954667 250.34861,166.152 C250.487277,166.349333 250.55661,166.597333 250.55661,166.896 C250.55661,167.205333 250.495277,167.464 250.37261,167.672 C250.249944,167.88 250.089944,168.053333 249.89261,168.192 C249.695277,168.330667 249.473944,168.429333 249.22861,168.488 C248.983277,168.546667 248.743277,168.576 248.50861,168.576 C248.06061,168.576 247.60461,168.464 247.14061,168.24 C246.67661,168.016 246.305944,167.712 246.02861,167.328 L246.02861,167.328 L244.58861,168.672 C245.03661,169.205333 245.61261,169.608 246.31661,169.88 C247.02061,170.152 247.74061,170.288 248.47661,170.288 Z" id="path-2"></path>
        <path d="M31.4597415,154.100098 C31.9930749,154.100098 32.5184082,154.044098 33.0357415,153.932098 C33.5530749,153.820098 34.0117415,153.636098 34.4117415,153.380098 C34.8117415,153.124098 35.1344082,152.785431 35.3797415,152.364098 C35.6250749,151.942764 35.7477415,151.422764 35.7477415,150.804098 C35.7477415,150.036098 35.5184082,149.422764 35.0597415,148.964098 C34.6010749,148.505431 34.0144082,148.228098 33.2997415,148.132098 L33.2997415,148.132098 L33.2997415,148.100098 C33.8864082,147.918764 34.3610749,147.620098 34.7237415,147.204098 C35.0864082,146.788098 35.2677415,146.260098 35.2677415,145.620098 C35.2677415,145.108098 35.1664082,144.670764 34.9637415,144.308098 C34.7610749,143.945431 34.4970749,143.649431 34.1717415,143.420098 C33.8464082,143.190764 33.4757415,143.025431 33.0597415,142.924098 C32.6437415,142.822764 32.2224082,142.772098 31.7957415,142.772098 L31.7957415,142.772098 L27.3797415,142.772098 L27.3797415,154.100098 L31.4597415,154.100098 Z M31.1877415,147.380098 L29.3957415,147.380098 L29.3957415,144.436098 L31.0117415,144.436098 C31.7797415,144.436098 32.3450749,144.542764 32.7077415,144.756098 C33.0704082,144.969431 33.2517415,145.332098 33.2517415,145.844098 C33.2517415,146.334764 33.0757415,146.713431 32.7237415,146.980098 C32.3717415,147.246764 31.8597415,147.380098 31.1877415,147.380098 L31.1877415,147.380098 Z M31.2037415,152.404098 L29.3957415,152.404098 L29.3957415,149.108098 L31.2837415,149.108098 C32.1050749,149.108098 32.7184082,149.225431 33.1237415,149.460098 C33.5290749,149.694764 33.7317415,150.110764 33.7317415,150.708098 C33.7317415,151.081431 33.6490749,151.380098 33.4837415,151.604098 C33.3184082,151.828098 33.1104082,151.998764 32.8597415,152.116098 C32.6090749,152.233431 32.3344082,152.310764 32.0357415,152.348098 C31.7370749,152.385431 31.4597415,152.404098 31.2037415,152.404098 L31.2037415,152.404098 Z M44.6009479,154.388098 C45.4862812,154.388098 46.3022812,154.241431 47.0489479,153.948098 C47.7956145,153.654764 48.4409479,153.244098 48.9849479,152.716098 C49.5289479,152.188098 49.9529479,151.558764 50.2569479,150.828098 C50.5609479,150.097431 50.7129479,149.289431 50.7129479,148.404098 C50.7129479,147.497431 50.5609479,146.678764 50.2569479,145.948098 C49.9529479,145.217431 49.5289479,144.596098 48.9849479,144.084098 C48.4409479,143.572098 47.7956145,143.177431 47.0489479,142.900098 C46.3022812,142.622764 45.4862812,142.484098 44.6009479,142.484098 C43.7262812,142.484098 42.9182812,142.622764 42.1769479,142.900098 C41.4356145,143.177431 40.7956145,143.572098 40.2569479,144.084098 C39.7182812,144.596098 39.2969479,145.217431 38.9929479,145.948098 C38.6889479,146.678764 38.5369479,147.497431 38.5369479,148.404098 C38.5369479,149.289431 38.6889479,150.097431 38.9929479,150.828098 C39.2969479,151.558764 39.7182812,152.188098 40.2569479,152.716098 C40.7956145,153.244098 41.4356145,153.654764 42.1769479,153.948098 C42.9182812,154.241431 43.7262812,154.388098 44.6009479,154.388098 Z M44.6169479,152.580098 C44.0409479,152.580098 43.5156145,152.476098 43.0409479,152.268098 C42.5662812,152.060098 42.1556145,151.769431 41.8089479,151.396098 C41.4622812,151.022764 41.1956145,150.582764 41.0089479,150.076098 C40.8222812,149.569431 40.7289479,149.012098 40.7289479,148.404098 C40.7289479,147.817431 40.8222812,147.273431 41.0089479,146.772098 C41.1956145,146.270764 41.4596145,145.833431 41.8009479,145.460098 C42.1422812,145.086764 42.5502812,144.793431 43.0249479,144.580098 C43.4996145,144.366764 44.0302812,144.260098 44.6169479,144.260098 C45.2036145,144.260098 45.7369479,144.366764 46.2169479,144.580098 C46.6969479,144.793431 47.1076145,145.086764 47.4489479,145.460098 C47.7902812,145.833431 48.0542812,146.270764 48.2409479,146.772098 C48.4276145,147.273431 48.5209479,147.817431 48.5209479,148.404098 C48.5209479,149.012098 48.4276145,149.569431 48.2409479,150.076098 C48.0542812,150.582764 47.7876145,151.022764 47.4409479,151.396098 C47.0942812,151.769431 46.6809479,152.060098 46.2009479,152.268098 C45.7209479,152.476098 45.1929479,152.580098 44.6169479,152.580098 Z M56.0301542,154.100098 L56.0301542,145.348098 L56.0621542,145.348098 L61.4381542,154.100098 L63.9981542,154.100098 L63.9981542,142.772098 L61.9821542,142.772098 L61.9821542,151.252098 L61.9501542,151.252098 L56.6861542,142.772098 L54.0141542,142.772098 L54.0141542,154.100098 L56.0301542,154.100098 Z M71.8593605,154.100098 C72.5953605,154.100098 73.3366939,153.990764 74.0833605,153.772098 C74.8300272,153.553431 75.5020272,153.214764 76.0993605,152.756098 C76.6966939,152.297431 77.1820272,151.710764 77.5553605,150.996098 C77.9286939,150.281431 78.1153605,149.428098 78.1153605,148.436098 C78.1153605,147.369431 77.9286939,146.476098 77.5553605,145.756098 C77.1820272,145.036098 76.6966939,144.454764 76.0993605,144.012098 C75.5020272,143.569431 74.8300272,143.252098 74.0833605,143.060098 C73.3366939,142.868098 72.5953605,142.772098 71.8593605,142.772098 L71.8593605,142.772098 L67.8433605,142.772098 L67.8433605,154.100098 L71.8593605,154.100098 Z M71.5393605,152.340098 L69.8593605,152.340098 L69.8593605,144.500098 L71.5393605,144.500098 C72.0620272,144.500098 72.5846939,144.553431 73.1073605,144.660098 C73.6300272,144.766764 74.1020272,144.964098 74.5233605,145.252098 C74.9446939,145.540098 75.2886939,145.940098 75.5553605,146.452098 C75.8220272,146.964098 75.9553605,147.625431 75.9553605,148.436098 C75.9553605,149.204098 75.8220272,149.838764 75.5553605,150.340098 C75.2886939,150.841431 74.9446939,151.238764 74.5233605,151.532098 C74.1020272,151.825431 73.6300272,152.033431 73.1073605,152.156098 C72.5846939,152.278764 72.0620272,152.340098 71.5393605,152.340098 L71.5393605,152.340098 Z M84.4565668,154.388098 C85.0112335,154.388098 85.5392335,154.313431 86.0405668,154.164098 C86.5419002,154.014764 86.9792335,153.790764 87.3525668,153.492098 C87.7259002,153.193431 88.0245668,152.817431 88.2485668,152.364098 C88.4725668,151.910764 88.5845668,151.380098 88.5845668,150.772098 C88.5845668,150.217431 88.4805668,149.753431 88.2725668,149.380098 C88.0645668,149.006764 87.7979002,148.697431 87.4725668,148.452098 C87.1472335,148.206764 86.7899002,148.009431 86.4005668,147.860098 C86.0112335,147.710764 85.6352335,147.577431 85.2725668,147.460098 C84.9525668,147.364098 84.6592335,147.268098 84.3925668,147.172098 C84.1259002,147.076098 83.8992335,146.964098 83.7125668,146.836098 C83.5259002,146.708098 83.3792335,146.553431 83.2725668,146.372098 C83.1659002,146.190764 83.1125668,145.972098 83.1125668,145.716098 C83.1125668,145.438764 83.1739002,145.201431 83.2965668,145.004098 C83.4192335,144.806764 83.5765668,144.646764 83.7685668,144.524098 C83.9605668,144.401431 84.1739002,144.310764 84.4085668,144.252098 C84.6432335,144.193431 84.8779002,144.164098 85.1125668,144.164098 C85.5072335,144.164098 85.8992335,144.257431 86.2885668,144.444098 C86.6779002,144.630764 86.9792335,144.862764 87.1925668,145.140098 L87.1925668,145.140098 L88.5045668,143.700098 C88.0672335,143.294764 87.5525668,142.990764 86.9605668,142.788098 C86.3685668,142.585431 85.7845668,142.484098 85.2085668,142.484098 C84.6965668,142.484098 84.1925668,142.550764 83.6965668,142.684098 C83.2005668,142.817431 82.7579002,143.020098 82.3685668,143.292098 C81.9792335,143.564098 81.6645668,143.908098 81.4245668,144.324098 C81.1845668,144.740098 81.0645668,145.236098 81.0645668,145.812098 C81.0645668,146.345431 81.1499002,146.790764 81.3205668,147.148098 C81.4912335,147.505431 81.7125668,147.806764 81.9845668,148.052098 C82.2565668,148.297431 82.5632335,148.494764 82.9045668,148.644098 C83.2459002,148.793431 83.5872335,148.921431 83.9285668,149.028098 C84.2805668,149.145431 84.6165668,149.257431 84.9365668,149.364098 C85.2565668,149.470764 85.5339002,149.596098 85.7685668,149.740098 C86.0032335,149.884098 86.1899002,150.054764 86.3285668,150.252098 C86.4672335,150.449431 86.5365668,150.697431 86.5365668,150.996098 C86.5365668,151.305431 86.4752335,151.564098 86.3525668,151.772098 C86.2299002,151.980098 86.0699002,152.153431 85.8725668,152.292098 C85.6752335,152.430764 85.4539002,152.529431 85.2085668,152.588098 C84.9632335,152.646764 84.7232335,152.676098 84.4885668,152.676098 C84.0405668,152.676098 83.5845668,152.564098 83.1205668,152.340098 C82.6565668,152.116098 82.2859002,151.812098 82.0085668,151.428098 L82.0085668,151.428098 L80.5685668,152.772098 C81.0165668,153.305431 81.5925668,153.708098 82.2965668,153.980098 C83.0005668,154.252098 83.7205668,154.388098 84.4565668,154.388098 Z" id="path-3"></path>
    </defs>
    <g id="Page" stroke="none" stroke-width="1" fill="none" fill-rule="evenodd">
        <g id="Diversification_Fact" transform="translate(-296.000000, -1393.000000)">
            <g id="Allocation-Infographic" transform="translate(-2.000000, 1255.000000)">
                <g id="Group-1058" transform="translate(140.000000, 77.000000)">
                    <g id="across-asset-class-large" transform="translate(158.000000, 61.000000)">
                        <rect id="Rectangle-Copy" fill-opacity="0" fill="#FFFFFF" x="0" y="0" width="369" height="302"></rect>
                        <g id="Group-2" transform="translate(46.000000, 13.000000)" fill-rule="nonzero">
                            <path d="M138.172684,1.04546388 L138.172684,137.144965 L27.9356256,57.1470909 C40.6707268,39.8774758 57.2669487,25.8104661 76.4075303,16.0692941 C95.5487809,6.32774239 116.698139,1.18520971 138.172684,1.04546388 L138.172684,1.04546388 Z" id="Ellipse-89" stroke="#FFFFFF" stroke-width="1.79894173" fill="#6D2955"></path>
                            <path d="M26.5335831,57.2014007 C39.4204823,39.4849005 56.3221813,25.0664003 75.8569801,15.1246002 C95.391779,5.18276006 117.004578,-1.42108547e-14 138.929576,-1.42108547e-14 L138.929576,138.765992 L26.5335831,57.2014007 Z" id="Ellipse-92" stroke="#FFFFFF" stroke-width="2" fill="#762157" stroke-linejoin="round"></path>
                            <path d="M26.8774106,58.9275497 L137.815077,139.433852 L57.2143992,250.24071 C27.9998353,228.748837 8.421744,196.620568 2.74198419,160.801881 C-2.93774184,124.983469 5.7420861,88.3848959 26.8774106,58.9275497 L26.8774106,58.9275497 Z" id="Ellipse-90" stroke="#FFFFFF" stroke-width="1.79894173" fill="#198B78"></path>
                            <path d="M57.2689847,251.355684 C27.4598847,229.723684 7.47504467,197.149684 1.71103467,160.799684 C-4.05298533,124.449684 4.87594467,87.3013836 26.5335847,57.5270836 L138.929585,139.091684 L57.2689847,251.355684 Z" id="Ellipse-93" stroke="#FFFFFF" stroke-width="2" fill="#008E77" stroke-linejoin="round"></path>
                            <path d="M139.971634,1.04546415 C161.445219,1.18521673 182.594759,6.32777003 201.736195,16.0692963 C221.144677,25.9467083 237.936234,40.2719099 250.739774,57.8735727 C263.543191,75.4750664 271.994039,95.8533271 275.401793,117.341947 C278.809536,138.830594 277.076847,160.81997 270.345811,181.511821 C263.614736,202.203791 252.076016,221.011046 236.67351,236.394675 C221.270863,251.779439 202.44153,263.304328 181.725504,270.027524 C161.009356,276.750759 138.993666,278.481488 117.478684,275.07764 C96.261341,271.721721 76.1251095,263.465606 58.6703706,250.971597 L58.6703706,250.971597 L139.971634,139.2016 Z" id="Ellipse-91" stroke="#FFFFFF" stroke-width="1.79894173" fill="#0057B8"></path>
                            <path d="M138.929585,-3.63797881e-12 C160.853585,-3.63797881e-12 182.466585,5.18278 202.001585,15.1246 C221.536585,25.0664 238.437585,39.485 251.324585,57.2014 C264.211585,74.9178 272.717585,95.4291 276.147585,117.058 C279.577585,138.687 277.833585,160.82 271.058585,181.647 C264.283585,202.474 252.669585,221.404 237.166585,236.888 C221.663585,252.373 202.711585,263.973 181.860585,270.74 C161.009585,277.507 138.850585,279.249 117.195585,275.823 C95.5414847,272.398 75.0061847,263.902 57.2689847,251.03 L138.929585,138.766 L138.929585,-3.63797881e-12 Z" id="Ellipse-94" stroke="#FFFFFF" stroke-width="2" fill="#005F9E" stroke-linejoin="round"></path>
                            <g id="CASH" fill="#FFFFFF">
                                <use xlink:href="#path-1"></use>
                                <use xlink:href="#path-1"></use>
                            </g>
                            <g id="STOCKS" fill="#FFFFFF">
                                <use xlink:href="#path-2"></use>
                                <use xlink:href="#path-2"></use>
                            </g>
                            <g id="BONDS" fill="#FFFFFF">
                                <use xlink:href="#path-3"></use>
                                <use xlink:href="#path-3"></use>
                            </g>
                        </g>
                    </g>
                </g>
            </g>
        </g>
    </g>
</svg>