<?xml version="1.0" encoding="UTF-8"?>
<svg width="370px" height="304px" viewBox="0 0 370 304" version="1.1" xmlns="http://www.w3.org/2000/svg" xmlns:xlink="http://www.w3.org/1999/xlink">
    <title>within asset class</title>
    <defs>
        <path d="M180.368,217.216 C180.856,217.216 181.308,217.138 181.724,216.982 C182.14,216.826 182.5,216.604 182.804,216.316 C183.108,216.028 183.348,215.678 183.524,215.266 C183.7,214.854 183.788,214.392 183.788,213.88 L183.788,213.88 L183.788,208.504 L182.276,208.504 L182.276,213.82 C182.276,214.068 182.244,214.314 182.18,214.558 C182.116,214.802 182.01,215.02 181.862,215.212 C181.714,215.404 181.518,215.56 181.274,215.68 C181.03,215.8 180.728,215.86 180.368,215.86 C180.008,215.86 179.706,215.8 179.462,215.68 C179.218,215.56 179.022,215.404 178.874,215.212 C178.726,215.02 178.62,214.802 178.556,214.558 C178.492,214.314 178.46,214.068 178.46,213.82 L178.46,213.82 L178.46,208.504 L176.948,208.504 L176.948,213.88 C176.948,214.392 177.034,214.854 177.206,215.266 C177.378,215.678 177.618,216.028 177.926,216.316 C178.234,216.604 178.596,216.826 179.012,216.982 C179.428,217.138 179.88,217.216 180.368,217.216 Z M188.868,217.216 C189.284,217.216 189.68,217.16 190.056,217.048 C190.432,216.936 190.76,216.768 191.04,216.544 C191.32,216.32 191.544,216.038 191.712,215.698 C191.88,215.358 191.964,214.96 191.964,214.504 C191.964,214.088 191.886,213.74 191.73,213.46 C191.574,213.18 191.374,212.948 191.13,212.764 C190.886,212.58 190.618,212.432 190.326,212.32 C190.034,212.208 189.752,212.108 189.48,212.02 C189.24,211.948 189.02,211.876 188.82,211.804 C188.62,211.732 188.45,211.648 188.31,211.552 C188.17,211.456 188.06,211.34 187.98,211.204 C187.9,211.068 187.86,210.904 187.86,210.712 C187.86,210.504 187.906,210.326 187.998,210.178 C188.09,210.03 188.208,209.91 188.352,209.818 C188.496,209.726 188.656,209.658 188.832,209.614 C189.008,209.57 189.184,209.548 189.36,209.548 C189.656,209.548 189.95,209.618 190.242,209.758 C190.534,209.898 190.76,210.072 190.92,210.28 L190.92,210.28 L191.904,209.2 C191.576,208.896 191.19,208.668 190.746,208.516 C190.302,208.364 189.864,208.288 189.432,208.288 C189.048,208.288 188.67,208.338 188.298,208.438 C187.926,208.538 187.594,208.69 187.302,208.894 C187.01,209.098 186.774,209.356 186.594,209.668 C186.414,209.98 186.324,210.352 186.324,210.784 C186.324,211.184 186.388,211.518 186.516,211.786 C186.644,212.054 186.81,212.28 187.014,212.464 C187.218,212.648 187.448,212.796 187.704,212.908 C187.96,213.02 188.216,213.116 188.472,213.196 C188.736,213.284 188.988,213.368 189.228,213.448 C189.468,213.528 189.676,213.622 189.852,213.73 C190.028,213.838 190.168,213.966 190.272,214.114 C190.376,214.262 190.428,214.448 190.428,214.672 C190.428,214.904 190.382,215.098 190.29,215.254 C190.198,215.41 190.078,215.54 189.93,215.644 C189.782,215.748 189.616,215.822 189.432,215.866 C189.248,215.91 189.068,215.932 188.892,215.932 C188.556,215.932 188.214,215.848 187.866,215.68 C187.518,215.512 187.24,215.284 187.032,214.996 L187.032,214.996 L185.952,216.004 C186.288,216.404 186.72,216.706 187.248,216.91 C187.776,217.114 188.316,217.216 188.868,217.216 Z M200.756,217.216 C201.172,217.216 201.568,217.16 201.944,217.048 C202.32,216.936 202.648,216.768 202.928,216.544 C203.208,216.32 203.432,216.038 203.6,215.698 C203.768,215.358 203.852,214.96 203.852,214.504 C203.852,214.088 203.774,213.74 203.618,213.46 C203.462,213.18 203.262,212.948 203.018,212.764 C202.774,212.58 202.506,212.432 202.214,212.32 C201.922,212.208 201.64,212.108 201.368,212.02 C201.128,211.948 200.908,211.876 200.708,211.804 C200.508,211.732 200.338,211.648 200.198,211.552 C200.058,211.456 199.948,211.34 199.868,211.204 C199.788,211.068 199.748,210.904 199.748,210.712 C199.748,210.504 199.794,210.326 199.886,210.178 C199.978,210.03 200.096,209.91 200.24,209.818 C200.384,209.726 200.544,209.658 200.72,209.614 C200.896,209.57 201.072,209.548 201.248,209.548 C201.544,209.548 201.838,209.618 202.13,209.758 C202.422,209.898 202.648,210.072 202.808,210.28 L202.808,210.28 L203.792,209.2 C203.464,208.896 203.078,208.668 202.634,208.516 C202.19,208.364 201.752,208.288 201.32,208.288 C200.936,208.288 200.558,208.338 200.186,208.438 C199.814,208.538 199.482,208.69 199.19,208.894 C198.898,209.098 198.662,209.356 198.482,209.668 C198.302,209.98 198.212,210.352 198.212,210.784 C198.212,211.184 198.276,211.518 198.404,211.786 C198.532,212.054 198.698,212.28 198.902,212.464 C199.106,212.648 199.336,212.796 199.592,212.908 C199.848,213.02 200.104,213.116 200.36,213.196 C200.624,213.284 200.876,213.368 201.116,213.448 C201.356,213.528 201.564,213.622 201.74,213.73 C201.916,213.838 202.056,213.966 202.16,214.114 C202.264,214.262 202.316,214.448 202.316,214.672 C202.316,214.904 202.27,215.098 202.178,215.254 C202.086,215.41 201.966,215.54 201.818,215.644 C201.67,215.748 201.504,215.822 201.32,215.866 C201.136,215.91 200.956,215.932 200.78,215.932 C200.444,215.932 200.102,215.848 199.754,215.68 C199.406,215.512 199.128,215.284 198.92,214.996 L198.92,214.996 L197.84,216.004 C198.176,216.404 198.608,216.706 199.136,216.91 C199.664,217.114 200.204,217.216 200.756,217.216 Z M207.804,217 L207.804,210.172 L207.828,210.172 L210.372,217 L211.428,217 L214.008,210.172 L214.032,210.172 L214.032,217 L215.532,217 L215.532,208.504 L213.156,208.504 L210.972,214.54 L210.936,214.54 L208.728,208.504 L206.364,208.504 L206.364,217 L207.804,217 Z M219.064,217 L219.832,215.056 L223.516,215.056 L224.308,217 L226.036,217 L222.376,208.504 L221.068,208.504 L217.372,217 L219.064,217 Z M222.988,213.76 L220.348,213.76 L221.68,210.304 L222.988,213.76 Z M233,217 L233,215.656 L229.388,215.656 L229.388,208.504 L227.876,208.504 L227.876,217 L233,217 Z M240.132,217 L240.132,215.656 L236.52,215.656 L236.52,208.504 L235.008,208.504 L235.008,217 L240.132,217 Z M200.064,231.216 C200.792,231.216 201.428,231.086 201.972,230.826 C202.516,230.566 202.976,230.2 203.352,229.728 L203.352,229.728 L202.14,228.876 C201.924,229.172 201.64,229.41 201.288,229.59 C200.936,229.77 200.532,229.86 200.076,229.86 C199.636,229.86 199.24,229.784 198.888,229.632 C198.536,229.48 198.234,229.266 197.982,228.99 C197.73,228.714 197.536,228.384 197.4,228 C197.264,227.616 197.196,227.192 197.196,226.728 C197.196,226.288 197.266,225.88 197.406,225.504 C197.546,225.128 197.746,224.8 198.006,224.52 C198.266,224.24 198.576,224.02 198.936,223.86 C199.296,223.7 199.696,223.62 200.136,223.62 C200.48,223.62 200.832,223.69 201.192,223.83 C201.552,223.97 201.844,224.192 202.068,224.496 L202.068,224.496 L203.22,223.584 C203.052,223.36 202.848,223.168 202.608,223.008 C202.368,222.848 202.112,222.714 201.84,222.606 C201.568,222.498 201.284,222.418 200.988,222.366 C200.692,222.314 200.408,222.288 200.136,222.288 C199.48,222.288 198.872,222.392 198.312,222.6 C197.752,222.808 197.266,223.104 196.854,223.488 C196.442,223.872 196.118,224.338 195.882,224.886 C195.646,225.434 195.528,226.048 195.528,226.728 C195.528,227.392 195.64,227.998 195.864,228.546 C196.088,229.094 196.4,229.566 196.8,229.962 C197.2,230.358 197.678,230.666 198.234,230.886 C198.79,231.106 199.4,231.216 200.064,231.216 Z M205.804,231 L206.572,229.056 L210.256,229.056 L211.048,231 L212.776,231 L209.116,222.504 L207.808,222.504 L204.112,231 L205.804,231 Z M209.728,227.76 L207.088,227.76 L208.42,224.304 L209.728,227.76 Z M216.128,231 L216.128,227.484 L217.292,227.484 C217.74,227.484 218.164,227.44 218.564,227.352 C218.964,227.264 219.314,227.122 219.614,226.926 C219.914,226.73 220.152,226.472 220.328,226.152 C220.504,225.832 220.592,225.436 220.592,224.964 C220.592,224.524 220.516,224.148 220.364,223.836 C220.212,223.524 219.996,223.268 219.716,223.068 C219.436,222.868 219.1,222.724 218.708,222.636 C218.316,222.548 217.876,222.504 217.388,222.504 L217.388,222.504 L214.616,222.504 L214.616,231 L216.128,231 Z M217.184,226.212 L216.128,226.212 L216.128,223.776 L217.232,223.776 C217.464,223.776 217.69,223.79 217.91,223.818 C218.13,223.846 218.326,223.904 218.498,223.992 C218.67,224.08 218.808,224.202 218.912,224.358 C219.016,224.514 219.068,224.716 219.068,224.964 C219.068,225.22 219.016,225.428 218.912,225.588 C218.808,225.748 218.668,225.874 218.492,225.966 C218.316,226.058 218.116,226.122 217.892,226.158 C217.668,226.194 217.432,226.212 217.184,226.212 L217.184,226.212 Z" id="path-1"></path>
        <path d="M96.018,241 L96.018,239.656 L91.686,239.656 L91.686,237.256 L95.586,237.256 L95.586,235.984 L91.686,235.984 L91.686,233.824 L95.802,233.824 L95.802,232.504 L90.174,232.504 L90.174,241 L96.018,241 Z M99.934,241 L99.934,234.172 L99.958,234.172 L102.502,241 L103.558,241 L106.138,234.172 L106.162,234.172 L106.162,241 L107.662,241 L107.662,232.504 L105.286,232.504 L103.102,238.54 L103.066,238.54 L100.858,232.504 L98.494,232.504 L98.494,241 L99.934,241 Z M116.378,241 L116.378,239.656 L112.046,239.656 L112.046,237.256 L115.946,237.256 L115.946,235.984 L112.046,235.984 L112.046,233.824 L116.162,233.824 L116.162,232.504 L110.534,232.504 L110.534,241 L116.378,241 Z M120.366,241 L120.366,237.4 L121.47,237.4 L123.438,241 L125.262,241 L122.994,237.232 C123.594,237.096 124.068,236.834 124.416,236.446 C124.764,236.058 124.938,235.556 124.938,234.94 C124.938,234.492 124.85,234.112 124.674,233.8 C124.498,233.488 124.264,233.236 123.972,233.044 C123.68,232.852 123.346,232.714 122.97,232.63 C122.594,232.546 122.206,232.504 121.806,232.504 L121.806,232.504 L118.854,232.504 L118.854,241 L120.366,241 Z M121.602,236.164 L120.366,236.164 L120.366,233.776 L121.734,233.776 C121.926,233.776 122.124,233.792 122.328,233.824 C122.532,233.856 122.714,233.916 122.874,234.004 C123.034,234.092 123.166,234.21 123.27,234.358 C123.374,234.506 123.426,234.696 123.426,234.928 C123.426,235.184 123.37,235.394 123.258,235.558 C123.146,235.722 123.004,235.848 122.832,235.936 C122.66,236.024 122.466,236.084 122.25,236.116 C122.034,236.148 121.818,236.164 121.602,236.164 L121.602,236.164 Z M131.638,241.216 C132.31,241.216 132.904,241.158 133.42,241.042 C133.936,240.926 134.41,240.764 134.842,240.556 L134.842,240.556 L134.842,236.152 L131.59,236.152 L131.59,237.4 L133.378,237.4 L133.378,239.56 C132.898,239.76 132.334,239.86 131.686,239.86 C131.214,239.86 130.792,239.782 130.42,239.626 C130.048,239.47 129.732,239.252 129.472,238.972 C129.212,238.692 129.012,238.362 128.872,237.982 C128.732,237.602 128.662,237.184 128.662,236.728 C128.662,236.288 128.732,235.88 128.872,235.504 C129.012,235.128 129.21,234.8 129.466,234.52 C129.722,234.24 130.032,234.02 130.396,233.86 C130.76,233.7 131.166,233.62 131.614,233.62 C132.07,233.62 132.492,233.704 132.88,233.872 C133.268,234.04 133.57,234.244 133.786,234.484 L133.786,234.484 L134.83,233.356 C134.486,233.036 134.032,232.778 133.468,232.582 C132.904,232.386 132.282,232.288 131.602,232.288 C130.946,232.288 130.338,232.392 129.778,232.6 C129.218,232.808 128.732,233.104 128.32,233.488 C127.908,233.872 127.584,234.338 127.348,234.886 C127.112,235.434 126.994,236.048 126.994,236.728 C126.994,237.392 127.108,237.998 127.336,238.546 C127.564,239.094 127.882,239.566 128.29,239.962 C128.698,240.358 129.186,240.666 129.754,240.886 C130.322,241.106 130.95,241.216 131.638,241.216 Z M139.19,241 L139.19,232.504 L137.678,232.504 L137.678,241 L139.19,241 Z M143.574,241 L143.574,234.436 L143.598,234.436 L147.63,241 L149.55,241 L149.55,232.504 L148.038,232.504 L148.038,238.864 L148.014,238.864 L144.066,232.504 L142.062,232.504 L142.062,241 L143.574,241 Z M156.658,241.216 C157.33,241.216 157.924,241.158 158.44,241.042 C158.956,240.926 159.43,240.764 159.862,240.556 L159.862,240.556 L159.862,236.152 L156.61,236.152 L156.61,237.4 L158.398,237.4 L158.398,239.56 C157.918,239.76 157.354,239.86 156.706,239.86 C156.234,239.86 155.812,239.782 155.44,239.626 C155.068,239.47 154.752,239.252 154.492,238.972 C154.232,238.692 154.032,238.362 153.892,237.982 C153.752,237.602 153.682,237.184 153.682,236.728 C153.682,236.288 153.752,235.88 153.892,235.504 C154.032,235.128 154.23,234.8 154.486,234.52 C154.742,234.24 155.052,234.02 155.416,233.86 C155.78,233.7 156.186,233.62 156.634,233.62 C157.09,233.62 157.512,233.704 157.9,233.872 C158.288,234.04 158.59,234.244 158.806,234.484 L158.806,234.484 L159.85,233.356 C159.506,233.036 159.052,232.778 158.488,232.582 C157.924,232.386 157.302,232.288 156.622,232.288 C155.966,232.288 155.358,232.392 154.798,232.6 C154.238,232.808 153.752,233.104 153.34,233.488 C152.928,233.872 152.604,234.338 152.368,234.886 C152.132,235.434 152.014,236.048 152.014,236.728 C152.014,237.392 152.128,237.998 152.356,238.546 C152.584,239.094 152.902,239.566 153.31,239.962 C153.718,240.358 154.206,240.666 154.774,240.886 C155.342,241.106 155.97,241.216 156.658,241.216 Z M96.2,255 L96.2,248.172 L96.224,248.172 L98.768,255 L99.824,255 L102.404,248.172 L102.428,248.172 L102.428,255 L103.928,255 L103.928,246.504 L101.552,246.504 L99.368,252.54 L99.332,252.54 L97.124,246.504 L94.76,246.504 L94.76,255 L96.2,255 Z M107.46,255 L108.228,253.056 L111.912,253.056 L112.704,255 L114.432,255 L110.772,246.504 L109.464,246.504 L105.768,255 L107.46,255 Z M111.384,251.76 L108.744,251.76 L110.076,248.304 L111.384,251.76 Z M117.784,255 L117.784,251.4 L118.888,251.4 L120.856,255 L122.68,255 L120.412,251.232 C121.012,251.096 121.486,250.834 121.834,250.446 C122.182,250.058 122.356,249.556 122.356,248.94 C122.356,248.492 122.268,248.112 122.092,247.8 C121.916,247.488 121.682,247.236 121.39,247.044 C121.098,246.852 120.764,246.714 120.388,246.63 C120.012,246.546 119.624,246.504 119.224,246.504 L119.224,246.504 L116.272,246.504 L116.272,255 L117.784,255 Z M119.02,250.164 L117.784,250.164 L117.784,247.776 L119.152,247.776 C119.344,247.776 119.542,247.792 119.746,247.824 C119.95,247.856 120.132,247.916 120.292,248.004 C120.452,248.092 120.584,248.21 120.688,248.358 C120.792,248.506 120.844,248.696 120.844,248.928 C120.844,249.184 120.788,249.394 120.676,249.558 C120.564,249.722 120.422,249.848 120.25,249.936 C120.078,250.024 119.884,250.084 119.668,250.116 C119.452,250.148 119.236,250.164 119.02,250.164 L119.02,250.164 Z M126.332,255 L126.332,250.74 L126.368,250.74 L130.1,255 L132.224,255 L127.988,250.428 L131.96,246.504 L129.92,246.504 L126.368,250.176 L126.332,250.176 L126.332,246.504 L124.82,246.504 L124.82,255 L126.332,255 Z M139.932,255 L139.932,253.656 L135.6,253.656 L135.6,251.256 L139.5,251.256 L139.5,249.984 L135.6,249.984 L135.6,247.824 L139.716,247.824 L139.716,246.504 L134.088,246.504 L134.088,255 L139.932,255 Z M145.636,255 L145.636,247.824 L148.24,247.824 L148.24,246.504 L141.52,246.504 L141.52,247.824 L144.124,247.824 L144.124,255 L145.636,255 Z M152.504,255.216 C152.92,255.216 153.316,255.16 153.692,255.048 C154.068,254.936 154.396,254.768 154.676,254.544 C154.956,254.32 155.18,254.038 155.348,253.698 C155.516,253.358 155.6,252.96 155.6,252.504 C155.6,252.088 155.522,251.74 155.366,251.46 C155.21,251.18 155.01,250.948 154.766,250.764 C154.522,250.58 154.254,250.432 153.962,250.32 C153.67,250.208 153.388,250.108 153.116,250.02 C152.876,249.948 152.656,249.876 152.456,249.804 C152.256,249.732 152.086,249.648 151.946,249.552 C151.806,249.456 151.696,249.34 151.616,249.204 C151.536,249.068 151.496,248.904 151.496,248.712 C151.496,248.504 151.542,248.326 151.634,248.178 C151.726,248.03 151.844,247.91 151.988,247.818 C152.132,247.726 152.292,247.658 152.468,247.614 C152.644,247.57 152.82,247.548 152.996,247.548 C153.292,247.548 153.586,247.618 153.878,247.758 C154.17,247.898 154.396,248.072 154.556,248.28 L154.556,248.28 L155.54,247.2 C155.212,246.896 154.826,246.668 154.382,246.516 C153.938,246.364 153.5,246.288 153.068,246.288 C152.684,246.288 152.306,246.338 151.934,246.438 C151.562,246.538 151.23,246.69 150.938,246.894 C150.646,247.098 150.41,247.356 150.23,247.668 C150.05,247.98 149.96,248.352 149.96,248.784 C149.96,249.184 150.024,249.518 150.152,249.786 C150.28,250.054 150.446,250.28 150.65,250.464 C150.854,250.648 151.084,250.796 151.34,250.908 C151.596,251.02 151.852,251.116 152.108,251.196 C152.372,251.284 152.624,251.368 152.864,251.448 C153.104,251.528 153.312,251.622 153.488,251.73 C153.664,251.838 153.804,251.966 153.908,252.114 C154.012,252.262 154.064,252.448 154.064,252.672 C154.064,252.904 154.018,253.098 153.926,253.254 C153.834,253.41 153.714,253.54 153.566,253.644 C153.418,253.748 153.252,253.822 153.068,253.866 C152.884,253.91 152.704,253.932 152.528,253.932 C152.192,253.932 151.85,253.848 151.502,253.68 C151.154,253.512 150.876,253.284 150.668,252.996 L150.668,252.996 L149.588,254.004 C149.924,254.404 150.356,254.706 150.884,254.91 C151.412,255.114 151.952,255.216 152.504,255.216 Z" id="path-2"></path>
        <path d="M218.448,145 L218.448,136.504 L216.936,136.504 L216.936,145 L218.448,145 Z M222.832,145 L222.832,138.436 L222.856,138.436 L226.888,145 L228.808,145 L228.808,136.504 L227.296,136.504 L227.296,142.864 L227.272,142.864 L223.324,136.504 L221.32,136.504 L221.32,145 L222.832,145 Z M234.908,145 L234.908,137.824 L237.512,137.824 L237.512,136.504 L230.792,136.504 L230.792,137.824 L233.396,137.824 L233.396,145 L234.908,145 Z M240.276,139.672 L241.296,136.504 L239.904,136.504 L239.064,139.672 L240.276,139.672 Z M248.86,145 L248.86,143.656 L245.248,143.656 L245.248,136.504 L243.736,136.504 L243.736,145 L248.86,145 Z" id="path-3"></path>
        <path d="M155.682,68.216 C156.17,68.216 156.622,68.138 157.038,67.982 C157.454,67.826 157.814,67.604 158.118,67.316 C158.422,67.028 158.662,66.678 158.838,66.266 C159.014,65.854 159.102,65.392 159.102,64.88 L159.102,64.88 L159.102,59.504 L157.59,59.504 L157.59,64.82 C157.59,65.068 157.558,65.314 157.494,65.558 C157.43,65.802 157.324,66.02 157.176,66.212 C157.028,66.404 156.832,66.56 156.588,66.68 C156.344,66.8 156.042,66.86 155.682,66.86 C155.322,66.86 155.02,66.8 154.776,66.68 C154.532,66.56 154.336,66.404 154.188,66.212 C154.04,66.02 153.934,65.802 153.87,65.558 C153.806,65.314 153.774,65.068 153.774,64.82 L153.774,64.82 L153.774,59.504 L152.262,59.504 L152.262,64.88 C152.262,65.392 152.348,65.854 152.52,66.266 C152.692,66.678 152.932,67.028 153.24,67.316 C153.548,67.604 153.91,67.826 154.326,67.982 C154.742,68.138 155.194,68.216 155.682,68.216 Z M164.182,68.216 C164.598,68.216 164.994,68.16 165.37,68.048 C165.746,67.936 166.074,67.768 166.354,67.544 C166.634,67.32 166.858,67.038 167.026,66.698 C167.194,66.358 167.278,65.96 167.278,65.504 C167.278,65.088 167.2,64.74 167.044,64.46 C166.888,64.18 166.688,63.948 166.444,63.764 C166.2,63.58 165.932,63.432 165.64,63.32 C165.348,63.208 165.066,63.108 164.794,63.02 C164.554,62.948 164.334,62.876 164.134,62.804 C163.934,62.732 163.764,62.648 163.624,62.552 C163.484,62.456 163.374,62.34 163.294,62.204 C163.214,62.068 163.174,61.904 163.174,61.712 C163.174,61.504 163.22,61.326 163.312,61.178 C163.404,61.03 163.522,60.91 163.666,60.818 C163.81,60.726 163.97,60.658 164.146,60.614 C164.322,60.57 164.498,60.548 164.674,60.548 C164.97,60.548 165.264,60.618 165.556,60.758 C165.848,60.898 166.074,61.072 166.234,61.28 L166.234,61.28 L167.218,60.2 C166.89,59.896 166.504,59.668 166.06,59.516 C165.616,59.364 165.178,59.288 164.746,59.288 C164.362,59.288 163.984,59.338 163.612,59.438 C163.24,59.538 162.908,59.69 162.616,59.894 C162.324,60.098 162.088,60.356 161.908,60.668 C161.728,60.98 161.638,61.352 161.638,61.784 C161.638,62.184 161.702,62.518 161.83,62.786 C161.958,63.054 162.124,63.28 162.328,63.464 C162.532,63.648 162.762,63.796 163.018,63.908 C163.274,64.02 163.53,64.116 163.786,64.196 C164.05,64.284 164.302,64.368 164.542,64.448 C164.782,64.528 164.99,64.622 165.166,64.73 C165.342,64.838 165.482,64.966 165.586,65.114 C165.69,65.262 165.742,65.448 165.742,65.672 C165.742,65.904 165.696,66.098 165.604,66.254 C165.512,66.41 165.392,66.54 165.244,66.644 C165.096,66.748 164.93,66.822 164.746,66.866 C164.562,66.91 164.382,66.932 164.206,66.932 C163.87,66.932 163.528,66.848 163.18,66.68 C162.832,66.512 162.554,66.284 162.346,65.996 L162.346,65.996 L161.266,67.004 C161.602,67.404 162.034,67.706 162.562,67.91 C163.09,68.114 163.63,68.216 164.182,68.216 Z M178.914,68 L178.914,66.656 L175.302,66.656 L175.302,59.504 L173.79,59.504 L173.79,68 L178.914,68 Z M181.582,68 L182.35,66.056 L186.034,66.056 L186.826,68 L188.554,68 L184.894,59.504 L183.586,59.504 L179.89,68 L181.582,68 Z M185.506,64.76 L182.866,64.76 L184.198,61.304 L185.506,64.76 Z M191.906,68 L191.906,64.4 L193.01,64.4 L194.978,68 L196.802,68 L194.534,64.232 C195.134,64.096 195.608,63.834 195.956,63.446 C196.304,63.058 196.478,62.556 196.478,61.94 C196.478,61.492 196.39,61.112 196.214,60.8 C196.038,60.488 195.804,60.236 195.512,60.044 C195.22,59.852 194.886,59.714 194.51,59.63 C194.134,59.546 193.746,59.504 193.346,59.504 L193.346,59.504 L190.394,59.504 L190.394,68 L191.906,68 Z M193.142,63.164 L191.906,63.164 L191.906,60.776 L193.274,60.776 C193.466,60.776 193.664,60.792 193.868,60.824 C194.072,60.856 194.254,60.916 194.414,61.004 C194.574,61.092 194.706,61.21 194.81,61.358 C194.914,61.506 194.966,61.696 194.966,61.928 C194.966,62.184 194.91,62.394 194.798,62.558 C194.686,62.722 194.544,62.848 194.372,62.936 C194.2,63.024 194.006,63.084 193.79,63.116 C193.574,63.148 193.358,63.164 193.142,63.164 L193.142,63.164 Z M203.178,68.216 C203.85,68.216 204.444,68.158 204.96,68.042 C205.476,67.926 205.95,67.764 206.382,67.556 L206.382,67.556 L206.382,63.152 L203.13,63.152 L203.13,64.4 L204.918,64.4 L204.918,66.56 C204.438,66.76 203.874,66.86 203.226,66.86 C202.754,66.86 202.332,66.782 201.96,66.626 C201.588,66.47 201.272,66.252 201.012,65.972 C200.752,65.692 200.552,65.362 200.412,64.982 C200.272,64.602 200.202,64.184 200.202,63.728 C200.202,63.288 200.272,62.88 200.412,62.504 C200.552,62.128 200.75,61.8 201.006,61.52 C201.262,61.24 201.572,61.02 201.936,60.86 C202.3,60.7 202.706,60.62 203.154,60.62 C203.61,60.62 204.032,60.704 204.42,60.872 C204.808,61.04 205.11,61.244 205.326,61.484 L205.326,61.484 L206.37,60.356 C206.026,60.036 205.572,59.778 205.008,59.582 C204.444,59.386 203.822,59.288 203.142,59.288 C202.486,59.288 201.878,59.392 201.318,59.6 C200.758,59.808 200.272,60.104 199.86,60.488 C199.448,60.872 199.124,61.338 198.888,61.886 C198.652,62.434 198.534,63.048 198.534,63.728 C198.534,64.392 198.648,64.998 198.876,65.546 C199.104,66.094 199.422,66.566 199.83,66.962 C200.238,67.358 200.726,67.666 201.294,67.886 C201.862,68.106 202.49,68.216 203.178,68.216 Z M215.062,68 L215.062,66.656 L210.73,66.656 L210.73,64.256 L214.63,64.256 L214.63,62.984 L210.73,62.984 L210.73,60.824 L214.846,60.824 L214.846,59.504 L209.218,59.504 L209.218,68 L215.062,68 Z M175.564,82.216 C176.292,82.216 176.928,82.086 177.472,81.826 C178.016,81.566 178.476,81.2 178.852,80.728 L178.852,80.728 L177.64,79.876 C177.424,80.172 177.14,80.41 176.788,80.59 C176.436,80.77 176.032,80.86 175.576,80.86 C175.136,80.86 174.74,80.784 174.388,80.632 C174.036,80.48 173.734,80.266 173.482,79.99 C173.23,79.714 173.036,79.384 172.9,79 C172.764,78.616 172.696,78.192 172.696,77.728 C172.696,77.288 172.766,76.88 172.906,76.504 C173.046,76.128 173.246,75.8 173.506,75.52 C173.766,75.24 174.076,75.02 174.436,74.86 C174.796,74.7 175.196,74.62 175.636,74.62 C175.98,74.62 176.332,74.69 176.692,74.83 C177.052,74.97 177.344,75.192 177.568,75.496 L177.568,75.496 L178.72,74.584 C178.552,74.36 178.348,74.168 178.108,74.008 C177.868,73.848 177.612,73.714 177.34,73.606 C177.068,73.498 176.784,73.418 176.488,73.366 C176.192,73.314 175.908,73.288 175.636,73.288 C174.98,73.288 174.372,73.392 173.812,73.6 C173.252,73.808 172.766,74.104 172.354,74.488 C171.942,74.872 171.618,75.338 171.382,75.886 C171.146,76.434 171.028,77.048 171.028,77.728 C171.028,78.392 171.14,78.998 171.364,79.546 C171.588,80.094 171.9,80.566 172.3,80.962 C172.7,81.358 173.178,81.666 173.734,81.886 C174.29,82.106 174.9,82.216 175.564,82.216 Z M181.304,82 L182.072,80.056 L185.756,80.056 L186.548,82 L188.276,82 L184.616,73.504 L183.308,73.504 L179.612,82 L181.304,82 Z M185.228,78.76 L182.588,78.76 L183.92,75.304 L185.228,78.76 Z M191.628,82 L191.628,78.484 L192.792,78.484 C193.24,78.484 193.664,78.44 194.064,78.352 C194.464,78.264 194.814,78.122 195.114,77.926 C195.414,77.73 195.652,77.472 195.828,77.152 C196.004,76.832 196.092,76.436 196.092,75.964 C196.092,75.524 196.016,75.148 195.864,74.836 C195.712,74.524 195.496,74.268 195.216,74.068 C194.936,73.868 194.6,73.724 194.208,73.636 C193.816,73.548 193.376,73.504 192.888,73.504 L192.888,73.504 L190.116,73.504 L190.116,82 L191.628,82 Z M192.684,77.212 L191.628,77.212 L191.628,74.776 L192.732,74.776 C192.964,74.776 193.19,74.79 193.41,74.818 C193.63,74.846 193.826,74.904 193.998,74.992 C194.17,75.08 194.308,75.202 194.412,75.358 C194.516,75.514 194.568,75.716 194.568,75.964 C194.568,76.22 194.516,76.428 194.412,76.588 C194.308,76.748 194.168,76.874 193.992,76.966 C193.816,77.058 193.616,77.122 193.392,77.158 C193.168,77.194 192.932,77.212 192.684,77.212 L192.684,77.212 Z" id="path-4"></path>
        <path d="M304.449994,174.376623 C305.004661,174.376623 305.532661,174.301956 306.033994,174.152623 C306.535327,174.00329 306.972661,173.77929 307.345994,173.480623 C307.719327,173.181956 308.017994,172.805956 308.241994,172.352623 C308.465994,171.89929 308.577994,171.368623 308.577994,170.760623 C308.577994,170.205956 308.473994,169.741956 308.265994,169.368623 C308.057994,168.99529 307.791327,168.685956 307.465994,168.440623 C307.140661,168.19529 306.783327,167.997956 306.393994,167.848623 C306.004661,167.69929 305.628661,167.565956 305.265994,167.448623 C304.945994,167.352623 304.652661,167.256623 304.385994,167.160623 C304.119327,167.064623 303.892661,166.952623 303.705994,166.824623 C303.519327,166.696623 303.372661,166.541956 303.265994,166.360623 C303.159327,166.17929 303.105994,165.960623 303.105994,165.704623 C303.105994,165.42729 303.167327,165.189956 303.289994,164.992623 C303.412661,164.79529 303.569994,164.63529 303.761994,164.512623 C303.953994,164.389956 304.167327,164.29929 304.401994,164.240623 C304.636661,164.181956 304.871327,164.152623 305.105994,164.152623 C305.500661,164.152623 305.892661,164.245956 306.281994,164.432623 C306.671327,164.61929 306.972661,164.85129 307.185994,165.128623 L307.185994,165.128623 L308.497994,163.688623 C308.060661,163.28329 307.545994,162.97929 306.953994,162.776623 C306.361994,162.573956 305.777994,162.472623 305.201994,162.472623 C304.689994,162.472623 304.185994,162.53929 303.689994,162.672623 C303.193994,162.805956 302.751327,163.008623 302.361994,163.280623 C301.972661,163.552623 301.657994,163.896623 301.417994,164.312623 C301.177994,164.728623 301.057994,165.224623 301.057994,165.800623 C301.057994,166.333956 301.143327,166.77929 301.313994,167.136623 C301.484661,167.493956 301.705994,167.79529 301.977994,168.040623 C302.249994,168.285956 302.556661,168.48329 302.897994,168.632623 C303.239327,168.781956 303.580661,168.909956 303.921994,169.016623 C304.273994,169.133956 304.609994,169.245956 304.929994,169.352623 C305.249994,169.45929 305.527327,169.584623 305.761994,169.728623 C305.996661,169.872623 306.183327,170.04329 306.321994,170.240623 C306.460661,170.437956 306.529994,170.685956 306.529994,170.984623 C306.529994,171.293956 306.468661,171.552623 306.345994,171.760623 C306.223327,171.968623 306.063327,172.141956 305.865994,172.280623 C305.668661,172.41929 305.447327,172.517956 305.201994,172.576623 C304.956661,172.63529 304.716661,172.664623 304.481994,172.664623 C304.033994,172.664623 303.577994,172.552623 303.113994,172.328623 C302.649994,172.104623 302.279327,171.800623 302.001994,171.416623 L302.001994,171.416623 L300.561994,172.760623 C301.009994,173.293956 301.585994,173.696623 302.289994,173.968623 C302.993994,174.240623 303.713994,174.376623 304.449994,174.376623 Z M315.9912,174.088623 L315.9912,164.520623 L319.4632,164.520623 L319.4632,162.760623 L310.5032,162.760623 L310.5032,164.520623 L313.9752,164.520623 L313.9752,174.088623 L315.9912,174.088623 Z M327.164407,174.376623 C328.04974,174.376623 328.86574,174.229956 329.612407,173.936623 C330.359073,173.64329 331.004407,173.232623 331.548407,172.704623 C332.092407,172.176623 332.516407,171.54729 332.820407,170.816623 C333.124407,170.085956 333.276407,169.277956 333.276407,168.392623 C333.276407,167.485956 333.124407,166.66729 332.820407,165.936623 C332.516407,165.205956 332.092407,164.584623 331.548407,164.072623 C331.004407,163.560623 330.359073,163.165956 329.612407,162.888623 C328.86574,162.61129 328.04974,162.472623 327.164407,162.472623 C326.28974,162.472623 325.48174,162.61129 324.740407,162.888623 C323.999073,163.165956 323.359073,163.560623 322.820407,164.072623 C322.28174,164.584623 321.860407,165.205956 321.556407,165.936623 C321.252407,166.66729 321.100407,167.485956 321.100407,168.392623 C321.100407,169.277956 321.252407,170.085956 321.556407,170.816623 C321.860407,171.54729 322.28174,172.176623 322.820407,172.704623 C323.359073,173.232623 323.999073,173.64329 324.740407,173.936623 C325.48174,174.229956 326.28974,174.376623 327.164407,174.376623 Z M327.180407,172.568623 C326.604407,172.568623 326.079073,172.464623 325.604407,172.256623 C325.12974,172.048623 324.719073,171.757956 324.372407,171.384623 C324.02574,171.01129 323.759073,170.57129 323.572407,170.064623 C323.38574,169.557956 323.292407,169.000623 323.292407,168.392623 C323.292407,167.805956 323.38574,167.261956 323.572407,166.760623 C323.759073,166.25929 324.023073,165.821956 324.364407,165.448623 C324.70574,165.07529 325.11374,164.781956 325.588407,164.568623 C326.063073,164.35529 326.59374,164.248623 327.180407,164.248623 C327.767073,164.248623 328.300407,164.35529 328.780407,164.568623 C329.260407,164.781956 329.671073,165.07529 330.012407,165.448623 C330.35374,165.821956 330.61774,166.25929 330.804407,166.760623 C330.991073,167.261956 331.084407,167.805956 331.084407,168.392623 C331.084407,169.000623 330.991073,169.557956 330.804407,170.064623 C330.61774,170.57129 330.351073,171.01129 330.004407,171.384623 C329.65774,171.757956 329.244407,172.048623 328.764407,172.256623 C328.284407,172.464623 327.756407,172.568623 327.180407,172.568623 Z M342.081613,174.376623 C343.05228,174.376623 343.90028,174.20329 344.625613,173.856623 C345.350946,173.509956 345.96428,173.021956 346.465613,172.392623 L346.465613,172.392623 L344.849613,171.256623 C344.561613,171.65129 344.182946,171.968623 343.713613,172.208623 C343.24428,172.448623 342.705613,172.568623 342.097613,172.568623 C341.510946,172.568623 340.982946,172.46729 340.513613,172.264623 C340.04428,172.061956 339.641613,171.776623 339.305613,171.408623 C338.969613,171.040623 338.710946,170.600623 338.529613,170.088623 C338.34828,169.576623 338.257613,169.01129 338.257613,168.392623 C338.257613,167.805956 338.350946,167.261956 338.537613,166.760623 C338.72428,166.25929 338.990946,165.821956 339.337613,165.448623 C339.68428,165.07529 340.097613,164.781956 340.577613,164.568623 C341.057613,164.35529 341.590946,164.248623 342.177613,164.248623 C342.63628,164.248623 343.105613,164.341956 343.585613,164.528623 C344.065613,164.71529 344.454946,165.01129 344.753613,165.416623 L344.753613,165.416623 L346.289613,164.200623 C346.065613,163.901956 345.793613,163.645956 345.473613,163.432623 C345.153613,163.21929 344.81228,163.040623 344.449613,162.896623 C344.086946,162.752623 343.70828,162.645956 343.313613,162.576623 C342.918946,162.50729 342.54028,162.472623 342.177613,162.472623 C341.302946,162.472623 340.49228,162.61129 339.745613,162.888623 C338.998946,163.165956 338.350946,163.560623 337.801613,164.072623 C337.25228,164.584623 336.82028,165.205956 336.505613,165.936623 C336.190946,166.66729 336.033613,167.485956 336.033613,168.392623 C336.033613,169.277956 336.182946,170.085956 336.481613,170.816623 C336.78028,171.54729 337.19628,172.176623 337.729613,172.704623 C338.262946,173.232623 338.90028,173.64329 339.641613,173.936623 C340.382946,174.229956 341.19628,174.376623 342.081613,174.376623 Z M351.078819,174.088623 L351.078819,168.408623 L351.126819,168.408623 L356.102819,174.088623 L358.934819,174.088623 L353.286819,167.992623 L358.582819,162.760623 L355.862819,162.760623 L351.126819,167.656623 L351.078819,167.656623 L351.078819,162.760623 L349.062819,162.760623 L349.062819,174.088623 L351.078819,174.088623 Z M364.476026,174.376623 C365.030692,174.376623 365.558692,174.301956 366.060026,174.152623 C366.561359,174.00329 366.998692,173.77929 367.372026,173.480623 C367.745359,173.181956 368.044026,172.805956 368.268026,172.352623 C368.492026,171.89929 368.604026,171.368623 368.604026,170.760623 C368.604026,170.205956 368.500026,169.741956 368.292026,169.368623 C368.084026,168.99529 367.817359,168.685956 367.492026,168.440623 C367.166692,168.19529 366.809359,167.997956 366.420026,167.848623 C366.030692,167.69929 365.654692,167.565956 365.292026,167.448623 C364.972026,167.352623 364.678692,167.256623 364.412026,167.160623 C364.145359,167.064623 363.918692,166.952623 363.732026,166.824623 C363.545359,166.696623 363.398692,166.541956 363.292026,166.360623 C363.185359,166.17929 363.132026,165.960623 363.132026,165.704623 C363.132026,165.42729 363.193359,165.189956 363.316026,164.992623 C363.438692,164.79529 363.596026,164.63529 363.788026,164.512623 C363.980026,164.389956 364.193359,164.29929 364.428026,164.240623 C364.662692,164.181956 364.897359,164.152623 365.132026,164.152623 C365.526692,164.152623 365.918692,164.245956 366.308026,164.432623 C366.697359,164.61929 366.998692,164.85129 367.212026,165.128623 L367.212026,165.128623 L368.524026,163.688623 C368.086692,163.28329 367.572026,162.97929 366.980026,162.776623 C366.388026,162.573956 365.804026,162.472623 365.228026,162.472623 C364.716026,162.472623 364.212026,162.53929 363.716026,162.672623 C363.220026,162.805956 362.777359,163.008623 362.388026,163.280623 C361.998692,163.552623 361.684026,163.896623 361.444026,164.312623 C361.204026,164.728623 361.084026,165.224623 361.084026,165.800623 C361.084026,166.333956 361.169359,166.77929 361.340026,167.136623 C361.510692,167.493956 361.732026,167.79529 362.004026,168.040623 C362.276026,168.285956 362.582692,168.48329 362.924026,168.632623 C363.265359,168.781956 363.606692,168.909956 363.948026,169.016623 C364.300026,169.133956 364.636026,169.245956 364.956026,169.352623 C365.276026,169.45929 365.553359,169.584623 365.788026,169.728623 C366.022692,169.872623 366.209359,170.04329 366.348026,170.240623 C366.486692,170.437956 366.556026,170.685956 366.556026,170.984623 C366.556026,171.293956 366.494692,171.552623 366.372026,171.760623 C366.249359,171.968623 366.089359,172.141956 365.892026,172.280623 C365.694692,172.41929 365.473359,172.517956 365.228026,172.576623 C364.982692,172.63529 364.742692,172.664623 364.508026,172.664623 C364.060026,172.664623 363.604026,172.552623 363.140026,172.328623 C362.676026,172.104623 362.305359,171.800623 362.028026,171.416623 L362.028026,171.416623 L360.588026,172.760623 C361.036026,173.293956 361.612026,173.696623 362.316026,173.968623 C363.020026,174.240623 363.740026,174.376623 364.476026,174.376623 Z" id="path-5"></path>
    </defs>
    <g id="Page" stroke="none" stroke-width="1" fill="none" fill-rule="evenodd">
        <g id="Diversification_Fact" transform="translate(-775.000000, -1393.000000)" fill-rule="nonzero">
            <g id="Allocation-Infographic" transform="translate(-2.000000, 1255.000000)">
                <g id="Group-1058" transform="translate(140.000000, 77.000000)">
                    <g id="Group-1057" transform="translate(219.000000, 61.000000)">
                        <g id="Group" transform="translate(419.000000, 1.000000)">
                            <g id="Group-1037">
                                <path d="M138.999992,12 C160.93999,12 182.568989,17.1936197 202.115988,27.1560991 C221.663987,37.1184985 238.575986,51.5667976 251.468985,69.3190966 L138.999992,151 L138.999992,12 Z" id="Ellipse-125" fill="#002B49"></path>
                                <path d="M251.452983,69.2978966 C264.348983,87.0477955 272.860983,107.598394 276.290983,129.268993 C279.720983,150.938992 277.972983,173.11299 271.188983,193.977989 L138.999992,150.999992 L251.452983,69.2978966 Z" id="Ellipse-129" fill="#005F9E"></path>
                                <path d="M271.196984,193.952982 C264.416984,214.819983 252.793985,233.784983 237.278986,249.296983 C221.762987,264.809984 202.795988,276.428984 181.927989,283.204984 L138.999992,150.999992 L271.196984,193.952982 Z" id="Ellipse-130" fill="#009CDC"></path>
                                <path d="M181.952989,283.196983 C161.09099,289.974983 138.920992,291.719983 117.255993,288.288983 C95.5899943,284.856983 75.0441955,276.346983 57.2978966,263.452983 L138.999992,150.999992 L181.952989,283.196983 Z" id="Ellipse-131" fill="#7BD0E2"></path>
                                <path d="M26.5405984,69.2847007 C39.4310976,51.5425005 56.3376966,37.1029003 75.8779955,27.1466002 C95.4183943,17.1903201 117.037993,12 138.967992,12 L138.967992,150.967992 L26.5405984,69.2847007 Z" id="Ellipse-132" stroke="#FFFFFF" stroke-width="2" fill="#762157" stroke-linejoin="round"></path>
                                <path d="M57.2848,263.396 C27.4671,241.732 7.47659,209.111 1.71093,172.708 C-4.05473,136.305 4.87675,99.1025 26.5405,69.2848 L138.968,150.968 L57.2848,263.396 Z" id="Ellipse-133" stroke="#FFFFFF" stroke-width="2" fill="#008E77" stroke-linejoin="round"></path>
                                <g id="USSMALLCAP" fill="#000000">
                                    <use xlink:href="#path-1"></use>
                                    <use xlink:href="#path-1"></use>
                                </g>
                                <g id="EMERGINGMARKETS" fill="#000000">
                                    <use xlink:href="#path-2"></use>
                                    <use xlink:href="#path-2"></use>
                                </g>
                                <g id="INT’L" fill="#FFFFFF">
                                    <use xlink:href="#path-3"></use>
                                    <use xlink:href="#path-3"></use>
                                </g>
                                <g id="USLARGECAP" fill="#FFFFFF">
                                    <use xlink:href="#path-4"></use>
                                    <use xlink:href="#path-4"></use>
                                </g>
                                <path d="M138.968,12 L138.968,11 C138.703,11 138.449,11.10536 138.261,11.29289 C138.074,11.48043 137.968,11.73478 137.968,12 L138.968,12 Z M202.059,27.1466 L202.513,26.2556 L202.059,27.1466 Z M237.234,249.234 L237.941,249.941 L237.234,249.234 Z M181.912,283.135 L182.221,284.086 L181.912,283.135 Z M117.229,288.226 L117.072,289.213 L117.229,288.226 Z M57.2847,263.396 L56.4757,262.808 C56.3198,263.023 56.2555,263.29 56.297,263.552 C56.3385,263.814 56.4823,264.049 56.6969,264.205 L57.2847,263.396 Z M138.968,150.968 L139.777,151.556 C139.901,151.385 139.968,151.179 139.968,150.968 L138.968,150.968 Z M138.968,13 C160.741,13 182.205,18.15299 201.605,28.0376 L202.513,26.2556 C182.832,16.22768 161.057,11 138.968,11 L138.968,13 Z M201.605,28.0376 C221.004,37.9223 237.789,52.258 250.587,69.8726 L252.205,68.697 C239.222,50.8271 222.193,36.2836 202.513,26.2556 L201.605,28.0376 Z M250.587,69.8726 C263.385,87.4872 271.832,107.8805 275.238,129.385 L277.213,129.072 C273.758,107.2559 265.188,86.5669 252.205,68.697 L250.587,69.8726 Z M275.238,129.385 C278.644,150.89 276.912,172.896 270.184,193.603 L272.086,194.221 C278.912,173.213 280.669,150.889 277.213,129.072 L275.238,129.385 Z M270.184,193.603 C263.456,214.31 251.922,233.131 236.526,248.527 L237.941,249.941 C253.56,234.322 265.26,215.228 272.086,194.221 L270.184,193.603 Z M236.526,248.527 C221.131,263.922 202.31,275.456 181.603,282.184 L182.221,284.086 C203.228,277.26 222.322,265.56 237.941,249.941 L236.526,248.527 Z M181.603,282.184 C160.896,288.912 138.89,290.644 117.385,287.238 L117.072,289.213 C138.889,292.669 161.213,290.912 182.221,284.086 L181.603,282.184 Z M117.385,287.238 C95.8804,283.832 75.4871,275.385 57.8725,262.587 L56.6969,264.205 C74.5668,277.188 95.2558,285.758 117.072,289.213 L117.385,287.238 Z M58.0937,263.984 L139.777,151.556 L138.159,150.38 L56.4757,262.808 L58.0937,263.984 Z M139.968,150.968 L139.968,12 L137.968,12 L137.968,150.968 L139.968,150.968 Z" id="Ellipse-134" stroke="#FFFFFF" stroke-width="2" stroke-linejoin="round"></path>
                                <path d="M139,0 C162.829,0 186.32,5.63971 207.553,16.458 C228.785,27.2763 247.155,42.9661 261.162,62.2444 C275.168,81.5228 284.413,103.842 288.141,127.378 C291.869,150.914 289.973,174.999 282.61,197.662 C275.246,220.325 262.623,240.923 245.773,257.773 C228.923,274.623 208.325,287.246 185.661,294.61 C162.998,301.973 138.914,303.869 115.378,300.141 C91.842,296.413 69.5227,287.168 50.2444,273.161 L53.0333,269.323 C71.7059,282.889 93.324,291.844 116.121,295.454 C138.917,299.065 162.244,297.229 184.195,290.097 C206.146,282.965 226.098,270.738 242.418,254.418 C258.738,238.098 270.965,218.146 278.097,196.195 C285.229,174.244 287.065,150.917 283.454,128.121 C279.844,105.324 270.889,83.706 257.323,65.0334 C243.756,46.3608 225.963,31.1641 205.398,20.6857 C184.833,10.2074 162.081,4.74489 139,4.74489 L139,0 Z" id="Ellipse-95" stroke="#FFFFFF" stroke-width="2" fill="#005F9E" stroke-linejoin="round"></path>
                            </g>
                            <g id="STOCKS" fill="#000000">
                                <use xlink:href="#path-5"></use>
                                <use xlink:href="#path-5"></use>
                            </g>
                        </g>
                    </g>
                </g>
            </g>
        </g>
    </g>
</svg>