<svg xmlns="http://www.w3.org/2000/svg" viewBox="0 0 960 540" width="960" height="540" preserveAspectRatio="xMidYMid meet" style="width: 100%; height: 100%; transform: translate3d(0px, 0px, 0px);"><defs><clipPath id="__lottie_element_280"><rect width="960" height="540" x="0" y="0"></rect></clipPath></defs><g clip-path="url(#__lottie_element_280)"><g transform="matrix(0,0,0,0,480,270)" opacity="1" style="display: none;"><g opacity="1" transform="matrix(1,0,0,1,85.58200073242188,141.6020050048828)"><path fill="rgb(254,254,255)" fill-opacity="1" d=" M54.33300018310547,83.06199645996094 C54.33300018310547,83.06199645996094 40.077999114990234,43.75299835205078 40.077999114990234,43.75299835205078 C40.077999114990234,43.75299835205078 59.895999908447266,43.75299835205078 59.895999908447266,43.75299835205078 C66.25299835205078,43.75299835205078 71.4540023803711,38.551998138427734 71.4540023803711,32.19499969482422 C71.4540023803711,32.19499969482422 71.4540023803711,-72.30799865722656 71.4540023803711,-72.30799865722656 C71.4540023803711,-72.30799865722656 73.08100128173828,-83.06199645996094 59.895999908447266,-83.06199645996094 C59.895999908447266,-83.06199645996094 -61.52299880981445,-83.06199645996094 -61.52299880981445,-83.06199645996094 C-67.87999725341797,-83.06199645996094 -73.08100128173828,-77.86000061035156 -73.08100128173828,-71.50299835205078 C-73.08100128173828,-71.50299835205078 -73.08100128173828,32.19499969482422 -73.08100128173828,32.19499969482422 C-73.08100128173828,38.551998138427734 -67.87999725341797,43.75299835205078 -61.52299880981445,43.75299835205078 C-61.52299880981445,43.75299835205078 -6.116000175476074,43.75299835205078 -6.116000175476074,43.75299835205078 C-6.116000175476074,43.75299835205078 54.33300018310547,83.06199645996094 54.33300018310547,83.06199645996094z"></path><path stroke-linecap="round" stroke-linejoin="round" fill-opacity="0" stroke="rgb(122,7,84)" stroke-opacity="1" stroke-width="5" d=" M54.33300018310547,83.06199645996094 C54.33300018310547,83.06199645996094 40.077999114990234,43.75299835205078 40.077999114990234,43.75299835205078 C40.077999114990234,43.75299835205078 59.895999908447266,43.75299835205078 59.895999908447266,43.75299835205078 C66.25299835205078,43.75299835205078 71.4540023803711,38.551998138427734 71.4540023803711,32.19499969482422 C71.4540023803711,32.19499969482422 71.4540023803711,-72.30799865722656 71.4540023803711,-72.30799865722656 C71.4540023803711,-72.30799865722656 73.08100128173828,-83.06199645996094 59.895999908447266,-83.06199645996094 C59.895999908447266,-83.06199645996094 -61.52299880981445,-83.06199645996094 -61.52299880981445,-83.06199645996094 C-67.87999725341797,-83.06199645996094 -73.08100128173828,-77.86000061035156 -73.08100128173828,-71.50299835205078 C-73.08100128173828,-71.50299835205078 -73.08100128173828,32.19499969482422 -73.08100128173828,32.19499969482422 C-73.08100128173828,38.551998138427734 -67.87999725341797,43.75299835205078 -61.52299880981445,43.75299835205078 C-61.52299880981445,43.75299835205078 -6.116000175476074,43.75299835205078 -6.116000175476074,43.75299835205078 C-6.116000175476074,43.75299835205078 54.33300018310547,83.06199645996094 54.33300018310547,83.06199645996094z"></path></g><g opacity="1" transform="matrix(1,0,0,1,122.02100372314453,118.56700134277344)"><path fill="rgb(97,7,61)" fill-opacity="0.8857407999999818" d=" M-13.062999725341797,0 C-13.062999725341797,-7.214000225067139 -7.214000225067139,-13.062999725341797 0,-13.062999725341797 C7.215000152587891,-13.062999725341797 13.064000129699707,-7.214000225067139 13.064000129699707,0 C13.064000129699707,7.215000152587891 7.215000152587891,13.064000129699707 0,13.064000129699707 C-7.214000225067139,13.064000129699707 -13.062999725341797,7.215000152587891 -13.062999725341797,0z"></path></g><g opacity="1" transform="matrix(1,0,0,1,83.66300201416016,118.56600189208984)"><path fill="rgb(97,7,61)" fill-opacity="0.7143122285714104" d=" M-12.503999710083008,0 C-12.503999710083008,-6.906000137329102 -6.906000137329102,-12.503999710083008 0,-12.503999710083008 C6.906000137329102,-12.503999710083008 12.505000114440918,-6.906000137329102 12.505000114440918,0 C12.505000114440918,6.9070000648498535 6.906000137329102,12.503999710083008 0,12.503999710083008 C-6.906000137329102,12.503999710083008 -12.503999710083008,6.9070000648498535 -12.503999710083008,0z"></path></g><g opacity="1" transform="matrix(1,0,0,1,45.30400085449219,118.56700134277344)"><path fill="rgb(97,7,61)" fill-opacity="0.6571163428571611" d=" M-13.062999725341797,-0.0010000000474974513 C-13.062999725341797,-7.215000152587891 -7.214000225067139,-13.064000129699707 0.0010000000474974513,-13.064000129699707 C7.216000080108643,-13.064000129699707 13.062999725341797,-7.215000152587891 13.062999725341797,-0.0010000000474974513 C13.062999725341797,7.214000225067139 7.216000080108643,13.064000129699707 0.0010000000474974513,13.064000129699707 C-7.214000225067139,13.064000129699707 -13.062999725341797,7.214000225067139 -13.062999725341797,-0.0010000000474974513z"></path></g></g><g transform="matrix(0,0,0,0,480,270)" opacity="1" style="display: none;"><g opacity="1" transform="matrix(1,0,0,1,247.10499572753906,95.56199645996094)"><path fill="rgb(254,254,255)" fill-opacity="1" d=" M-55.14699935913086,83.06199645996094 C-55.14699935913086,83.06199645996094 -40.891998291015625,43.75299835205078 -40.891998291015625,43.75299835205078 C-40.891998291015625,43.75299835205078 -60.709999084472656,43.75299835205078 -60.709999084472656,43.75299835205078 C-67.06700134277344,43.75299835205078 -72.26799774169922,38.551998138427734 -72.26799774169922,32.19499969482422 C-72.26799774169922,32.19499969482422 -72.26799774169922,-71.50399780273438 -72.26799774169922,-71.50399780273438 C-72.26799774169922,-77.86100006103516 -67.06700134277344,-83.06199645996094 -60.709999084472656,-83.06199645996094 C-60.709999084472656,-83.06199645996094 60.70899963378906,-83.06199645996094 60.70899963378906,-83.06199645996094 C67.06500244140625,-83.06199645996094 72.26799774169922,-77.86100006103516 72.26799774169922,-71.50399780273438 C72.26799774169922,-71.50399780273438 72.26799774169922,32.19499969482422 72.26799774169922,32.19499969482422 C72.26799774169922,38.551998138427734 67.06500244140625,43.75299835205078 60.70899963378906,43.75299835205078 C60.70899963378906,43.75299835205078 5.302000045776367,43.75299835205078 5.302000045776367,43.75299835205078 C5.302000045776367,43.75299835205078 -55.14699935913086,83.06199645996094 -55.14699935913086,83.06199645996094z"></path><path stroke-linecap="butt" stroke-linejoin="miter" fill-opacity="0" stroke-miterlimit="10" stroke="rgb(60,17,44)" stroke-opacity="1" stroke-width="5" d=" M-55.14699935913086,83.06199645996094 C-55.14699935913086,83.06199645996094 -40.891998291015625,43.75299835205078 -40.891998291015625,43.75299835205078 C-40.891998291015625,43.75299835205078 -60.709999084472656,43.75299835205078 -60.709999084472656,43.75299835205078 C-67.06700134277344,43.75299835205078 -72.26799774169922,38.551998138427734 -72.26799774169922,32.19499969482422 C-72.26799774169922,32.19499969482422 -72.26799774169922,-71.50399780273438 -72.26799774169922,-71.50399780273438 C-72.26799774169922,-77.86100006103516 -67.06700134277344,-83.06199645996094 -60.709999084472656,-83.06199645996094 C-60.709999084472656,-83.06199645996094 60.70899963378906,-83.06199645996094 60.70899963378906,-83.06199645996094 C67.06500244140625,-83.06199645996094 72.26799774169922,-77.86100006103516 72.26799774169922,-71.50399780273438 C72.26799774169922,-71.50399780273438 72.26799774169922,32.19499969482422 72.26799774169922,32.19499969482422 C72.26799774169922,38.551998138427734 67.06500244140625,43.75299835205078 60.70899963378906,43.75299835205078 C60.70899963378906,43.75299835205078 5.302000045776367,43.75299835205078 5.302000045776367,43.75299835205078 C5.302000045776367,43.75299835205078 -55.14699935913086,83.06199645996094 -55.14699935913086,83.06199645996094z"></path></g><g opacity="1" transform="matrix(1,0,0,1,302.48199462890625,100.90699768066406)"><path stroke-linecap="round" stroke-linejoin="round" fill-opacity="0" stroke-dasharray=" 16.038 16.038" stroke-dashoffset="0" stroke="rgb(60,17,44)" stroke-opacity="1" stroke-width="5.418" d=" M37.547000885009766,-57.62799835205078 C37.547000885009766,-57.62799835205078 37.547000885009766,40.19900131225586 37.547000885009766,40.19900131225586 C37.547000885009766,49.78499984741211 29.70199966430664,57.62799835205078 20.115999221801758,57.62799835205078 C20.115999221801758,57.62799835205078 -37.547000885009766,57.62799835205078 -37.547000885009766,57.62799835205078"></path></g><g opacity="1" transform="matrix(1,0,0,1,285.7640075683594,75.90699768066406)"><path fill="rgb(97,7,61)" fill-opacity="0.999973485714304" d=" M-13.064000129699707,0 C-13.064000129699707,-7.215000152587891 -7.214000225067139,-13.064000129699707 0,-13.064000129699707 C7.215000152587891,-13.064000129699707 13.064000129699707,-7.215000152587891 13.064000129699707,0 C13.064000129699707,7.215000152587891 7.215000152587891,13.062999725341797 0,13.062999725341797 C-7.214000225067139,13.062999725341797 -13.064000129699707,7.215000152587891 -13.064000129699707,0z"></path></g><g opacity="1" transform="matrix(1,0,0,1,247.40499877929688,75.90699768066406)"><path fill="rgb(97,7,61)" fill-opacity="0.8285979428571247" d=" M-12.503999710083008,0 C-12.503999710083008,-6.906000137329102 -6.90500020980835,-12.505000114440918 0,-12.505000114440918 C6.906000137329102,-12.505000114440918 12.505000114440918,-6.906000137329102 12.505000114440918,0 C12.505000114440918,6.906000137329102 6.906000137329102,12.503999710083008 0,12.503999710083008 C-6.90500020980835,12.503999710083008 -12.503999710083008,6.906000137329102 -12.503999710083008,0z"></path></g><g opacity="1" transform="matrix(1,0,0,1,209.0469970703125,75.90699768066406)"><path fill="rgb(97,7,61)" fill-opacity="0.6571693714285533" d=" M-13.064000129699707,0 C-13.064000129699707,-7.215000152587891 -7.215000152587891,-13.064000129699707 -0.0010000000474974513,-13.064000129699707 C7.214000225067139,-13.064000129699707 13.064000129699707,-7.215000152587891 13.064000129699707,0 C13.064000129699707,7.215000152587891 7.214000225067139,13.064000129699707 -0.0010000000474974513,13.064000129699707 C-7.215000152587891,13.064000129699707 -13.064000129699707,7.215000152587891 -13.064000129699707,0z"></path></g></g><g transform="matrix(0,0,0,0,485.5,334.75)" opacity="1" style="display: none;"><g opacity="1" transform="matrix(1,0,0,0.997219979763031,91.3030014038086,109.18000030517578)"><path fill="rgb(254,254,255)" fill-opacity="1" d=" M52.58300018310547,-22.83799934387207 C49.108001708984375,-42.125 38.849998474121094,-56.691001892089844 20.558000564575195,-64.67900085449219 C5.144000053405762,-71.41000366210938 -10.847000122070312,-71.58799743652344 -26.856000900268555,-67.11100006103516 C-47.391998291015625,-61.369998931884766 -59.354000091552734,-46.858001708984375 -61.4739990234375,-25.655000686645508 C-62.393001556396484,-16.46500015258789 -63.88999938964844,-11.420999526977539 -66.87000274658203,-2.6440000534057617 C-69.27100372314453,4.425000190734863 -72.31800079345703,11.166000366210938 -76.57499694824219,17.33300018310547 C-78.30999755859375,19.847000122070312 -78.41500091552734,22.37700080871582 -76.39700317382812,23.82900047302246 C-73.3280029296875,26.038999557495117 -68.47000122070312,25.763999938964844 -65.09200286865234,27.468000411987305 C-63.87200164794922,28.083999633789062 -63.459999084472656,28.573999404907227 -63.356998443603516,29.849000930786133 C-63.20399856567383,31.766000747680664 -63.125,33.78499984741211 -63.084999084472656,35.86000061035156 C-63.07099914550781,36.60200119018555 -62.91699981689453,41.39400100708008 -62.9109992980957,42.14799880981445 C-62.9109992980957,42.14799880981445 -54.652000427246094,43.069000244140625 -45.78499984741211,46.428001403808594 C-55.722999572753906,51.209999084472656 -60.37900161743164,53.900001525878906 -60.37900161743164,53.900001525878906 C-60.37099838256836,58.03900146484375 -60.292999267578125,55.4119987487793 -59.893001556396484,59.10100173950195 C-59.0629997253418,66.75800323486328 -54.64099884033203,76.41600036621094 -47.10900115966797,75.06300354003906 C-39.17399978637695,73.63899993896484 -32.566001892089844,72.41400146484375 -24.62299919128418,71.03199768066406 C-24.031999588012695,70.93000030517578 -23.426000595092773,71.09700012207031 -22.695999145507812,71.03099822998047 C-22.17300033569336,79.86100006103516 -21.559999465942383,98.94100189208984 -21.149999618530273,107.55400085449219 C-21.06100082397461,109.43900299072266 41.55500030517578,106.38999938964844 41.474998474121094,105.322998046875 C41.472999572753906,105.28500366210938 41.46900177001953,105.24700164794922 41.465999603271484,105.20899963378906 C40.183998107910156,90.26699829101562 40.803001403808594,77.59700012207031 39.32699966430664,62.67399978637695 C38.05500030517578,49.803001403808594 39.981998443603516,37.689998626708984 45.70500183105469,25.981000900268555 C53.25299835205078,10.536999702453613 55.63100051879883,-5.919000148773193 52.58300018310547,-22.83799934387207z"></path><path stroke-linecap="round" stroke-linejoin="round" fill-opacity="0" stroke="rgb(122,7,84)" stroke-opacity="1" stroke-width="5" d=" M52.58300018310547,-22.83799934387207 C49.108001708984375,-42.125 38.849998474121094,-56.691001892089844 20.558000564575195,-64.67900085449219 C5.144000053405762,-71.41000366210938 -10.847000122070312,-71.58799743652344 -26.856000900268555,-67.11100006103516 C-47.391998291015625,-61.369998931884766 -59.354000091552734,-46.858001708984375 -61.4739990234375,-25.655000686645508 C-62.393001556396484,-16.46500015258789 -63.88999938964844,-11.420999526977539 -66.87000274658203,-2.6440000534057617 C-69.27100372314453,4.425000190734863 -72.31800079345703,11.166000366210938 -76.57499694824219,17.33300018310547 C-78.30999755859375,19.847000122070312 -78.41500091552734,22.37700080871582 -76.39700317382812,23.82900047302246 C-73.3280029296875,26.038999557495117 -68.47000122070312,25.763999938964844 -65.09200286865234,27.468000411987305 C-63.87200164794922,28.083999633789062 -63.459999084472656,28.573999404907227 -63.356998443603516,29.849000930786133 C-63.20399856567383,31.766000747680664 -63.125,33.78499984741211 -63.084999084472656,35.86000061035156 C-63.07099914550781,36.60200119018555 -62.91699981689453,41.39400100708008 -62.9109992980957,42.14799880981445 C-62.9109992980957,42.14799880981445 -54.652000427246094,43.069000244140625 -45.78499984741211,46.428001403808594 C-55.722999572753906,51.209999084472656 -60.37900161743164,53.900001525878906 -60.37900161743164,53.900001525878906 C-60.37099838256836,58.03900146484375 -60.292999267578125,55.4119987487793 -59.893001556396484,59.10100173950195 C-59.0629997253418,66.75800323486328 -54.64099884033203,76.41600036621094 -47.10900115966797,75.06300354003906 C-39.17399978637695,73.63899993896484 -32.566001892089844,72.41400146484375 -24.62299919128418,71.03199768066406 C-24.031999588012695,70.93000030517578 -23.426000595092773,71.09700012207031 -22.695999145507812,71.03099822998047 C-22.17300033569336,79.86100006103516 -21.559999465942383,98.94100189208984 -21.149999618530273,107.55400085449219 C-21.06100082397461,109.43900299072266 41.55500030517578,106.38999938964844 41.474998474121094,105.322998046875 C41.472999572753906,105.28500366210938 41.46900177001953,105.24700164794922 41.465999603271484,105.20899963378906 C40.183998107910156,90.26699829101562 40.803001403808594,77.59700012207031 39.32699966430664,62.67399978637695 C38.05500030517578,49.803001403808594 39.981998443603516,37.689998626708984 45.70500183105469,25.981000900268555 C53.25299835205078,10.536999702453613 55.63100051879883,-5.919000148773193 52.58300018310547,-22.83799934387207z"></path></g></g><g transform="matrix(0,0,0,0,485.5,334.75)" opacity="1" style="display: none;"><g opacity="1" transform="matrix(1,0,0,1,0,0)"><path stroke-linecap="round" stroke-linejoin="round" fill-opacity="0" stroke="rgb(60,17,44)" stroke-opacity="1" stroke-width="5" d="M0 0"></path></g><g opacity="1" transform="matrix(1,0,0,1,0,0)"><path stroke-linecap="round" stroke-linejoin="round" fill-opacity="0" stroke="rgb(60,17,44)" stroke-opacity="1" stroke-width="5" d="M0 0"></path></g><g opacity="1" transform="matrix(1,0,0,1,0,0)"><path stroke-linecap="round" stroke-linejoin="round" fill-opacity="0" stroke="rgb(60,17,44)" stroke-opacity="1" stroke-width="5" d="M0 0"></path></g><g opacity="1" transform="matrix(1,0,0,1,0,0)"><path stroke-linecap="round" stroke-linejoin="round" fill-opacity="0" stroke="rgb(60,17,44)" stroke-opacity="1" stroke-width="5" d="M0 0"></path></g></g><g transform="matrix(0,0,0,0,485.5,334.75)" opacity="1" style="display: none;"><g opacity="1" transform="matrix(1,0,0,1,13.230999946594238,115.71099853515625)"><path stroke-linecap="round" stroke-linejoin="round" fill-opacity="0" stroke="rgb(60,17,44)" stroke-opacity="1" stroke-width="5" d="M0 0"></path></g><g opacity="1" transform="matrix(1,0,0,1,13.229999542236328,82.4000015258789)"><path stroke-linecap="round" stroke-linejoin="round" fill-opacity="0" stroke="rgb(60,17,44)" stroke-opacity="1" stroke-width="5" d="M0 0"></path></g><g opacity="1" transform="matrix(1,0,0,1,23.191999435424805,48.12300109863281)"><path stroke-linecap="round" stroke-linejoin="round" fill-opacity="0" stroke="rgb(60,17,44)" stroke-opacity="1" stroke-width="5" d="M0 0"></path></g><g opacity="1" transform="matrix(1,0,0,1,50.224998474121094,21.1299991607666)"><path stroke-linecap="round" stroke-linejoin="round" fill-opacity="0" stroke="rgb(60,17,44)" stroke-opacity="1" stroke-width="5" d="M0 0"></path></g><g opacity="1" transform="matrix(1,0,0,1,91.572998046875,13.234000205993652)"><path stroke-linecap="round" stroke-linejoin="round" fill-opacity="0" stroke="rgb(60,17,44)" stroke-opacity="1" stroke-width="5" d="M0 0"></path></g><g opacity="1" transform="matrix(1,0,0,1,169.37399291992188,115.71099853515625)"><path stroke-linecap="round" stroke-linejoin="round" fill-opacity="0" stroke="rgb(60,17,44)" stroke-opacity="1" stroke-width="5" d="M0 0"></path></g><g opacity="1" transform="matrix(1,0,0,1,169.37399291992188,82.4000015258789)"><path stroke-linecap="round" stroke-linejoin="round" fill-opacity="0" stroke="rgb(60,17,44)" stroke-opacity="1" stroke-width="5" d="M0 0"></path></g><g opacity="1" transform="matrix(1,0,0,1,159.41299438476562,48.12300109863281)"><path stroke-linecap="round" stroke-linejoin="round" fill-opacity="0" stroke="rgb(60,17,44)" stroke-opacity="1" stroke-width="5" d="M0 0"></path></g><g opacity="1" transform="matrix(1,0,0,1,132.3800048828125,21.1299991607666)"><path stroke-linecap="round" stroke-linejoin="round" fill-opacity="0" stroke="rgb(60,17,44)" stroke-opacity="1" stroke-width="5" d="M0 0"></path></g></g><g transform="matrix(0,0,0,0,440,379.25)" opacity="1" style="display: block;"><g opacity="1" transform="matrix(1,0,0,1,79.52200317382812,103.01399993896484)"><path fill="rgb(254,254,255)" fill-opacity="1" d=" M15.46500015258789,-86.03600311279297 C36,-80.29499816894531 47.96200180053711,-65.78299713134766 50.082000732421875,-44.58000183105469 C51.000999450683594,-35.38999938964844 52.49800109863281,-30.347000122070312 55.479000091552734,-21.56999969482422 C57.880001068115234,-14.50100040435791 60.926998138427734,-7.758999824523926 65.18399810791016,-1.5920000076293945 C66.91799926757812,0.921999990940094 67.02200317382812,3.4519999027252197 65.00499725341797,4.9039998054504395 C61.93600082397461,7.113999843597412 57.07899856567383,6.839000225067139 53.70100021362305,8.543000221252441 C52.48099899291992,9.159000396728516 52.06800079345703,9.64900016784668 51.965999603271484,10.923999786376953 C51.8129997253418,12.840999603271484 51.73400115966797,14.859999656677246 51.69300079345703,16.934999465942383 C51.67900085449219,17.677000045776367 51.5260009765625,22.4689998626709 51.52000045776367,23.222999572753906 C51.52000045776367,23.222999572753906 43.2599983215332,24.143999099731445 34.393001556396484,27.503000259399414 C44.33000183105469,32.28499984741211 48.98699951171875,34.974998474121094 48.98699951171875,34.974998474121094 C48.979000091552734,39.11399841308594 48.900001525878906,36.48699951171875 48.500999450683594,40.17599868774414 C47.66999816894531,47.83300018310547 43.24800109863281,57.49100112915039 35.71699905395508,56.13800048828125 C27.7810001373291,54.7140007019043 21.173999786376953,53.48899841308594 13.229999542236328,52.106998443603516 C12.640000343322754,52.005001068115234 12.034000396728516,52.172000885009766 11.305000305175781,52.10599899291992 C10.781000137329102,60.93600082397461 10.168999671936035,80.01599884033203 9.758999824523926,88.62899780273438 C9.670000076293945,90.51399993896484 -52.94599914550781,87.46499633789062 -52.867000579833984,86.39800262451172 C-52.86399841308594,86.36000061035156 -52.86199951171875,86.3219985961914 -52.858001708984375,86.28399658203125 C-51.57699966430664,71.34200286865234 -52.19499969482422,58.672000885009766 -50.720001220703125,43.749000549316406 C-49.446998596191406,30.878000259399414 -51.375,18.764999389648438 -57.097999572753906,7.056000232696533 C-64.6449966430664,-8.387999534606934 -67.02200317382812,-24.844999313354492 -63.9739990234375,-41.763999938964844 C-60.5,-61.05099868774414 -50.242000579833984,-75.61599731445312 -31.948999404907227,-83.60399627685547 C-16.535999298095703,-90.33499908447266 -0.5450000166893005,-90.51300048828125 15.46500015258789,-86.03600311279297z"></path><path stroke-linecap="butt" stroke-linejoin="miter" fill-opacity="0" stroke-miterlimit="10" stroke="rgb(60,17,44)" stroke-opacity="1" stroke-width="5" d=" M15.46500015258789,-86.03600311279297 C36,-80.29499816894531 47.96200180053711,-65.78299713134766 50.082000732421875,-44.58000183105469 C51.000999450683594,-35.38999938964844 52.49800109863281,-30.347000122070312 55.479000091552734,-21.56999969482422 C57.880001068115234,-14.50100040435791 60.926998138427734,-7.758999824523926 65.18399810791016,-1.5920000076293945 C66.91799926757812,0.921999990940094 67.02200317382812,3.4519999027252197 65.00499725341797,4.9039998054504395 C61.93600082397461,7.113999843597412 57.07899856567383,6.839000225067139 53.70100021362305,8.543000221252441 C52.48099899291992,9.159000396728516 52.06800079345703,9.64900016784668 51.965999603271484,10.923999786376953 C51.8129997253418,12.840999603271484 51.73400115966797,14.859999656677246 51.69300079345703,16.934999465942383 C51.67900085449219,17.677000045776367 51.5260009765625,22.4689998626709 51.52000045776367,23.222999572753906 C51.52000045776367,23.222999572753906 43.2599983215332,24.143999099731445 34.393001556396484,27.503000259399414 C44.33000183105469,32.28499984741211 48.98699951171875,34.974998474121094 48.98699951171875,34.974998474121094 C48.979000091552734,39.11399841308594 48.900001525878906,36.48699951171875 48.500999450683594,40.17599868774414 C47.66999816894531,47.83300018310547 43.24800109863281,57.49100112915039 35.71699905395508,56.13800048828125 C27.7810001373291,54.7140007019043 21.173999786376953,53.48899841308594 13.229999542236328,52.106998443603516 C12.640000343322754,52.005001068115234 12.034000396728516,52.172000885009766 11.305000305175781,52.10599899291992 C10.781000137329102,60.93600082397461 10.168999671936035,80.01599884033203 9.758999824523926,88.62899780273438 C9.670000076293945,90.51399993896484 -52.94599914550781,87.46499633789062 -52.867000579833984,86.39800262451172 C-52.86399841308594,86.36000061035156 -52.86199951171875,86.3219985961914 -52.858001708984375,86.28399658203125 C-51.57699966430664,71.34200286865234 -52.19499969482422,58.672000885009766 -50.720001220703125,43.749000549316406 C-49.446998596191406,30.878000259399414 -51.375,18.764999389648438 -57.097999572753906,7.056000232696533 C-64.6449966430664,-8.387999534606934 -67.02200317382812,-24.844999313354492 -63.9739990234375,-41.763999938964844 C-60.5,-61.05099868774414 -50.242000579833984,-75.61599731445312 -31.948999404907227,-83.60399627685547 C-16.535999298095703,-90.33499908447266 -0.5450000166893005,-90.51300048828125 15.46500015258789,-86.03600311279297z"></path></g></g><g transform="matrix(0,0,0,0,440,379.25)" opacity="1" style="display: block;"><g opacity="1" transform="matrix(1,0,0,1,102.31700134277344,71.45099639892578)"><path fill="rgb(140,8,79)" fill-opacity="1" d=" M10.03600025177002,0 C10.03600025177002,-5.541999816894531 5.541999816894531,-10.03600025177002 -0.0010000000474974513,-10.03600025177002 C-5.543000221252441,-10.03600025177002 -10.03600025177002,-5.541999816894531 -10.03600025177002,0 C-10.03600025177002,5.541999816894531 -5.543000221252441,10.03600025177002 -0.0010000000474974513,10.03600025177002 C5.541999816894531,10.03600025177002 10.03600025177002,5.541999816894531 10.03600025177002,0z"></path></g><g opacity="1" transform="matrix(1,0,0,1,72.8499984741211,71.45099639892578)"><path fill="rgb(162,9,88)" fill-opacity="1" d=" M9.605999946594238,0 C9.605999946594238,-5.304999828338623 5.304999828338623,-9.605999946594238 0,-9.605999946594238 C-5.304999828338623,-9.605999946594238 -9.605999946594238,-5.304999828338623 -9.605999946594238,0 C-9.605999946594238,5.304999828338623 -5.304999828338623,9.605999946594238 0,9.605999946594238 C5.304999828338623,9.605999946594238 9.605999946594238,5.304999828338623 9.605999946594238,0z"></path></g><g opacity="1" transform="matrix(1,0,0,1,43.38199996948242,71.45099639892578)"><path fill="rgb(162,9,88)" fill-opacity="1" d=" M10.03600025177002,0 C10.03600025177002,-5.541999816894531 5.543000221252441,-10.03600025177002 0,-10.03600025177002 C-5.541999816894531,-10.03600025177002 -10.03499984741211,-5.541999816894531 -10.03499984741211,0 C-10.03499984741211,5.541999816894531 -5.541999816894531,10.03600025177002 0,10.03600025177002 C5.543000221252441,10.03600025177002 10.03600025177002,5.541999816894531 10.03600025177002,0z"></path></g></g><g transform="matrix(0,0,0,0,485.5,334.75)" opacity="1" style="display: block;"><g opacity="1" transform="matrix(1,0,0,1,102.31700134277344,71.45099639892578)"><path fill="rgb(108,7,65)" fill-opacity="1" d=" M10.03600025177002,0 C10.03600025177002,-5.541999816894531 5.541999816894531,-10.03600025177002 -0.0010000000474974513,-10.03600025177002 C-5.543000221252441,-10.03600025177002 -10.03600025177002,-5.541999816894531 -10.03600025177002,0 C-10.03600025177002,5.541999816894531 -5.543000221252441,10.03600025177002 -0.0010000000474974513,10.03600025177002 C5.541999816894531,10.03600025177002 10.03600025177002,5.541999816894531 10.03600025177002,0z"></path></g><g opacity="1" transform="matrix(1,0,0,1,72.8499984741211,71.45099639892578)"><path fill="rgb(108,7,65)" fill-opacity="1" d=" M9.605999946594238,0 C9.605999946594238,-5.304999828338623 5.304999828338623,-9.605999946594238 0,-9.605999946594238 C-5.304999828338623,-9.605999946594238 -9.605999946594238,-5.304999828338623 -9.605999946594238,0 C-9.605999946594238,5.304999828338623 -5.304999828338623,9.605999946594238 0,9.605999946594238 C5.304999828338623,9.605999946594238 9.605999946594238,5.304999828338623 9.605999946594238,0z"></path></g><g opacity="1" transform="matrix(1,0,0,1,43.38199996948242,71.45099639892578)"><path fill="rgb(129,8,74)" fill-opacity="1" d=" M10.03600025177002,0 C10.03600025177002,-5.541999816894531 5.543000221252441,-10.03600025177002 0,-10.03600025177002 C-5.541999816894531,-10.03600025177002 -10.03499984741211,-5.541999816894531 -10.03499984741211,0 C-10.03499984741211,5.541999816894531 -5.541999816894531,10.03600025177002 0,10.03600025177002 C5.543000221252441,10.03600025177002 10.03600025177002,5.541999816894531 10.03600025177002,0z"></path></g></g><g transform="matrix(1,0,0,1,297.91796875,150.77301025390625)" opacity="1" style="display: block;"><g opacity="1" transform="matrix(1,0,0,1,85.58200073242188,141.6020050048828)"><path fill="rgb(254,254,255)" fill-opacity="1" d=" M54.33300018310547,83.06199645996094 C54.33300018310547,83.06199645996094 40.077999114990234,43.75299835205078 40.077999114990234,43.75299835205078 C40.077999114990234,43.75299835205078 59.895999908447266,43.75299835205078 59.895999908447266,43.75299835205078 C66.25299835205078,43.75299835205078 71.4540023803711,38.551998138427734 71.4540023803711,32.19499969482422 C71.4540023803711,32.19499969482422 71.4540023803711,-72.30799865722656 71.4540023803711,-72.30799865722656 C71.4540023803711,-72.30799865722656 73.08100128173828,-83.06199645996094 59.895999908447266,-83.06199645996094 C59.895999908447266,-83.06199645996094 -61.52299880981445,-83.06199645996094 -61.52299880981445,-83.06199645996094 C-67.87999725341797,-83.06199645996094 -73.08100128173828,-77.86000061035156 -73.08100128173828,-71.50299835205078 C-73.08100128173828,-71.50299835205078 -73.08100128173828,32.19499969482422 -73.08100128173828,32.19499969482422 C-73.08100128173828,38.551998138427734 -67.87999725341797,43.75299835205078 -61.52299880981445,43.75299835205078 C-61.52299880981445,43.75299835205078 -6.116000175476074,43.75299835205078 -6.116000175476074,43.75299835205078 C-6.116000175476074,43.75299835205078 54.33300018310547,83.06199645996094 54.33300018310547,83.06199645996094z"></path><path stroke-linecap="round" stroke-linejoin="round" fill-opacity="0" stroke="rgb(122,7,84)" stroke-opacity="1" stroke-width="5" d=" M54.33300018310547,83.06199645996094 C54.33300018310547,83.06199645996094 40.077999114990234,43.75299835205078 40.077999114990234,43.75299835205078 C40.077999114990234,43.75299835205078 59.895999908447266,43.75299835205078 59.895999908447266,43.75299835205078 C66.25299835205078,43.75299835205078 71.4540023803711,38.551998138427734 71.4540023803711,32.19499969482422 C71.4540023803711,32.19499969482422 71.4540023803711,-72.30799865722656 71.4540023803711,-72.30799865722656 C71.4540023803711,-72.30799865722656 73.08100128173828,-83.06199645996094 59.895999908447266,-83.06199645996094 C59.895999908447266,-83.06199645996094 -61.52299880981445,-83.06199645996094 -61.52299880981445,-83.06199645996094 C-67.87999725341797,-83.06199645996094 -73.08100128173828,-77.86000061035156 -73.08100128173828,-71.50299835205078 C-73.08100128173828,-71.50299835205078 -73.08100128173828,32.19499969482422 -73.08100128173828,32.19499969482422 C-73.08100128173828,38.551998138427734 -67.87999725341797,43.75299835205078 -61.52299880981445,43.75299835205078 C-61.52299880981445,43.75299835205078 -6.116000175476074,43.75299835205078 -6.116000175476074,43.75299835205078 C-6.116000175476074,43.75299835205078 54.33300018310547,83.06199645996094 54.33300018310547,83.06199645996094z"></path></g><g opacity="1" transform="matrix(1,0,0,1,122.02100372314453,118.56700134277344)"><path fill="rgb(97,7,61)" fill-opacity="0.8857142857142857" d=" M-13.062999725341797,0 C-13.062999725341797,-7.214000225067139 -7.214000225067139,-13.062999725341797 0,-13.062999725341797 C7.215000152587891,-13.062999725341797 13.064000129699707,-7.214000225067139 13.064000129699707,0 C13.064000129699707,7.215000152587891 7.215000152587891,13.064000129699707 0,13.064000129699707 C-7.214000225067139,13.064000129699707 -13.062999725341797,7.215000152587891 -13.062999725341797,0z"></path></g><g opacity="1" transform="matrix(1,0,0,1,83.66300201416016,118.56600189208984)"><path fill="rgb(97,7,61)" fill-opacity="0.942857142857143" d=" M-12.503999710083008,0 C-12.503999710083008,-6.906000137329102 -6.906000137329102,-12.503999710083008 0,-12.503999710083008 C6.906000137329102,-12.503999710083008 12.505000114440918,-6.906000137329102 12.505000114440918,0 C12.505000114440918,6.9070000648498535 6.906000137329102,12.503999710083008 0,12.503999710083008 C-6.906000137329102,12.503999710083008 -12.503999710083008,6.9070000648498535 -12.503999710083008,0z"></path></g><g opacity="1" transform="matrix(1,0,0,1,45.30400085449219,118.56700134277344)"><path fill="rgb(97,7,61)" fill-opacity="0.7714285714285714" d=" M-13.062999725341797,-0.0010000000474974513 C-13.062999725341797,-7.215000152587891 -7.214000225067139,-13.064000129699707 0.0010000000474974513,-13.064000129699707 C7.216000080108643,-13.064000129699707 13.062999725341797,-7.215000152587891 13.062999725341797,-0.0010000000474974513 C13.062999725341797,7.214000225067139 7.216000080108643,13.064000129699707 0.0010000000474974513,13.064000129699707 C-7.214000225067139,13.064000129699707 -13.062999725341797,7.214000225067139 -13.062999725341797,-0.0010000000474974513z"></path></g></g><g transform="matrix(1,0,0,1,297.91796875,150.77301025390625)" opacity="1" style="display: block;"><g opacity="1" transform="matrix(1,0,0,1,247.10499572753906,95.56199645996094)"><path fill="rgb(254,254,255)" fill-opacity="1" d=" M-55.14699935913086,83.06199645996094 C-55.14699935913086,83.06199645996094 -40.891998291015625,43.75299835205078 -40.891998291015625,43.75299835205078 C-40.891998291015625,43.75299835205078 -60.709999084472656,43.75299835205078 -60.709999084472656,43.75299835205078 C-67.06700134277344,43.75299835205078 -72.26799774169922,38.551998138427734 -72.26799774169922,32.19499969482422 C-72.26799774169922,32.19499969482422 -72.26799774169922,-71.50399780273438 -72.26799774169922,-71.50399780273438 C-72.26799774169922,-77.86100006103516 -67.06700134277344,-83.06199645996094 -60.709999084472656,-83.06199645996094 C-60.709999084472656,-83.06199645996094 60.70899963378906,-83.06199645996094 60.70899963378906,-83.06199645996094 C67.06500244140625,-83.06199645996094 72.26799774169922,-77.86100006103516 72.26799774169922,-71.50399780273438 C72.26799774169922,-71.50399780273438 72.26799774169922,32.19499969482422 72.26799774169922,32.19499969482422 C72.26799774169922,38.551998138427734 67.06500244140625,43.75299835205078 60.70899963378906,43.75299835205078 C60.70899963378906,43.75299835205078 5.302000045776367,43.75299835205078 5.302000045776367,43.75299835205078 C5.302000045776367,43.75299835205078 -55.14699935913086,83.06199645996094 -55.14699935913086,83.06199645996094z"></path><path stroke-linecap="butt" stroke-linejoin="miter" fill-opacity="0" stroke-miterlimit="10" stroke="rgb(60,17,44)" stroke-opacity="1" stroke-width="5" d=" M-55.14699935913086,83.06199645996094 C-55.14699935913086,83.06199645996094 -40.891998291015625,43.75299835205078 -40.891998291015625,43.75299835205078 C-40.891998291015625,43.75299835205078 -60.709999084472656,43.75299835205078 -60.709999084472656,43.75299835205078 C-67.06700134277344,43.75299835205078 -72.26799774169922,38.551998138427734 -72.26799774169922,32.19499969482422 C-72.26799774169922,32.19499969482422 -72.26799774169922,-71.50399780273438 -72.26799774169922,-71.50399780273438 C-72.26799774169922,-77.86100006103516 -67.06700134277344,-83.06199645996094 -60.709999084472656,-83.06199645996094 C-60.709999084472656,-83.06199645996094 60.70899963378906,-83.06199645996094 60.70899963378906,-83.06199645996094 C67.06500244140625,-83.06199645996094 72.26799774169922,-77.86100006103516 72.26799774169922,-71.50399780273438 C72.26799774169922,-71.50399780273438 72.26799774169922,32.19499969482422 72.26799774169922,32.19499969482422 C72.26799774169922,38.551998138427734 67.06500244140625,43.75299835205078 60.70899963378906,43.75299835205078 C60.70899963378906,43.75299835205078 5.302000045776367,43.75299835205078 5.302000045776367,43.75299835205078 C5.302000045776367,43.75299835205078 -55.14699935913086,83.06199645996094 -55.14699935913086,83.06199645996094z"></path></g><g opacity="1" transform="matrix(1,0,0,1,302.48199462890625,100.90699768066406)"><path stroke-linecap="round" stroke-linejoin="round" fill-opacity="0" stroke-dasharray=" 16.038 16.038" stroke-dashoffset="0" stroke="rgb(60,17,44)" stroke-opacity="1" stroke-width="5.418" d=" M37.547000885009766,-57.62799835205078 C37.547000885009766,-57.62799835205078 37.547000885009766,40.19900131225586 37.547000885009766,40.19900131225586 C37.547000885009766,49.78499984741211 29.70199966430664,57.62799835205078 20.115999221801758,57.62799835205078 C20.115999221801758,57.62799835205078 -37.547000885009766,57.62799835205078 -37.547000885009766,57.62799835205078"></path></g><g opacity="1" transform="matrix(1,0,0,1,285.7640075683594,75.90699768066406)"><path fill="rgb(97,7,61)" fill-opacity="0.7142857142857143" d=" M-13.064000129699707,0 C-13.064000129699707,-7.215000152587891 -7.214000225067139,-13.064000129699707 0,-13.064000129699707 C7.215000152587891,-13.064000129699707 13.064000129699707,-7.215000152587891 13.064000129699707,0 C13.064000129699707,7.215000152587891 7.215000152587891,13.062999725341797 0,13.062999725341797 C-7.214000225067139,13.062999725341797 -13.064000129699707,7.215000152587891 -13.064000129699707,0z"></path></g><g opacity="1" transform="matrix(1,0,0,1,247.40499877929688,75.90699768066406)"><path fill="rgb(97,7,61)" fill-opacity="0.8857142857142857" d=" M-12.503999710083008,0 C-12.503999710083008,-6.906000137329102 -6.90500020980835,-12.505000114440918 0,-12.505000114440918 C6.906000137329102,-12.505000114440918 12.505000114440918,-6.906000137329102 12.505000114440918,0 C12.505000114440918,6.906000137329102 6.906000137329102,12.503999710083008 0,12.503999710083008 C-6.90500020980835,12.503999710083008 -12.503999710083008,6.906000137329102 -12.503999710083008,0z"></path></g><g opacity="1" transform="matrix(1,0,0,1,209.0469970703125,75.90699768066406)"><path fill="rgb(97,7,61)" fill-opacity="0.942857142857143" d=" M-13.064000129699707,0 C-13.064000129699707,-7.215000152587891 -7.215000152587891,-13.064000129699707 -0.0010000000474974513,-13.064000129699707 C7.214000225067139,-13.064000129699707 13.064000129699707,-7.215000152587891 13.064000129699707,0 C13.064000129699707,7.215000152587891 7.214000225067139,13.064000129699707 -0.0010000000474974513,13.064000129699707 C-7.215000152587891,13.064000129699707 -13.064000129699707,7.215000152587891 -13.064000129699707,0z"></path></g></g></g></svg>