<svg xmlns="http://www.w3.org/2000/svg" viewBox="0 0 960 540" width="960" height="540" preserveAspectRatio="xMidYMid meet" style="width: 100%; height: 100%; transform: translate3d(0px, 0px, 0px);"><defs><clipPath id="__lottie_element_5"><rect width="960" height="540" x="0" y="0"></rect></clipPath><clipPath id="__lottie_element_7"><path d="M0,0 L1024,0 L1024,1024 L0,1024z"></path></clipPath><linearGradient id="__lottie_element_14" spreadMethod="pad" gradientUnits="userSpaceOnUse" x1="-19" y1="-141" x2="100" y2="92"><stop offset="0%" stop-color="rgb(179,37,115)"></stop><stop offset="50%" stop-color="rgb(90,106,142)"></stop><stop offset="100%" stop-color="rgb(0,174,169)"></stop></linearGradient><linearGradient id="__lottie_element_15" spreadMethod="pad" gradientUnits="userSpaceOnUse" x1="0" y1="0" x2="100" y2="0"><stop offset="0%" stop-color="rgb(0,156,220)"></stop><stop offset="50%" stop-color="rgb(0,165,195)"></stop><stop offset="100%" stop-color="rgb(0,174,169)"></stop></linearGradient><linearGradient id="__lottie_element_16" spreadMethod="pad" gradientUnits="userSpaceOnUse" x1="-165" y1="-156" x2="100" y2="-223"><stop offset="0%" stop-color="rgb(0,156,220)"></stop><stop offset="50%" stop-color="rgb(90,96,168)"></stop><stop offset="100%" stop-color="rgb(179,37,115)"></stop></linearGradient></defs><g clip-path="url(#__lottie_element_5)"><g transform="matrix(1,0,0,1,0,0)" opacity="1" style="display: block;"><rect width="960" height="540" fill="#ffffff"></rect></g><g clip-path="url(#__lottie_element_7)" transform="matrix(0.6000000238418579,0,0,0.6000000238418579,172.79998779296875,-37.20001220703125)" opacity="1" style="display: block;"><g transform="matrix(1,0,0,1,370.4490051269531,759.7620239257812)" opacity="1" style="display: block;"><g opacity="1" transform="matrix(1,0,0,1,84.81300354003906,84.81300354003906)"><path fill="rgb(179,37,115)" fill-opacity="1" d=" M-84.56300354003906,0 C-84.56300354003906,-46.702999114990234 -46.702999114990234,-84.56300354003906 0,-84.56300354003906 C46.70399856567383,-84.56300354003906 84.56300354003906,-46.702999114990234 84.56300354003906,0 C84.56300354003906,46.702999114990234 46.70399856567383,84.56300354003906 0,84.56300354003906 C-46.702999114990234,84.56300354003906 -84.56300354003906,46.702999114990234 -84.56300354003906,0z"></path></g><g opacity="1" transform="matrix(1,0,0,1,50.62699890136719,94.01100158691406)"><path fill="rgb(255,255,255)" fill-opacity="1" d=" M22.108999252319336,-30.659000396728516 C22.108999252319336,-30.659000396728516 -22.70800018310547,-30.659000396728516 -22.70800018310547,-30.659000396728516 C-25.05500030517578,-30.659000396728516 -26.975000381469727,-28.73900032043457 -26.975000381469727,-26.392000198364258 C-26.975000381469727,-26.392000198364258 -26.975000381469727,11.883999824523926 -26.975000381469727,11.883999824523926 C-26.975000381469727,14.229999542236328 -25.05500030517578,16.149999618530273 -22.70800018310547,16.149999618530273 C-22.70800018310547,16.149999618530273 -2.257999897003174,16.149999618530273 -2.257999897003174,16.149999618530273 C-2.257999897003174,16.149999618530273 20.05500030517578,30.659000396728516 20.05500030517578,30.659000396728516 C20.05500030517578,30.659000396728516 14.793999671936035,16.149999618530273 14.793999671936035,16.149999618530273 C14.793999671936035,16.149999618530273 22.108999252319336,16.149999618530273 22.108999252319336,16.149999618530273 C24.454999923706055,16.149999618530273 26.374000549316406,14.229999542236328 26.374000549316406,11.883999824523926 C26.374000549316406,11.883999824523926 26.374000549316406,-25.854999542236328 26.374000549316406,-25.854999542236328 C26.374000549316406,-25.854999542236328 26.975000381469727,-30.659000396728516 22.108999252319336,-30.659000396728516z"></path></g><g opacity="1" transform="matrix(1,0,0,1,50.62699890136719,94.01100158691406)"><path stroke-linecap="butt" stroke-linejoin="miter" fill-opacity="0" stroke-miterlimit="10" stroke="rgb(76,24,60)" stroke-opacity="1" stroke-width="2" d=" M22.108999252319336,-30.659000396728516 C22.108999252319336,-30.659000396728516 -22.70800018310547,-30.659000396728516 -22.70800018310547,-30.659000396728516 C-25.05500030517578,-30.659000396728516 -26.975000381469727,-28.73900032043457 -26.975000381469727,-26.392000198364258 C-26.975000381469727,-26.392000198364258 -26.975000381469727,11.883999824523926 -26.975000381469727,11.883999824523926 C-26.975000381469727,14.229999542236328 -25.05500030517578,16.149999618530273 -22.70800018310547,16.149999618530273 C-22.70800018310547,16.149999618530273 -2.257999897003174,16.149999618530273 -2.257999897003174,16.149999618530273 C-2.257999897003174,16.149999618530273 20.05500030517578,30.659000396728516 20.05500030517578,30.659000396728516 C20.05500030517578,30.659000396728516 14.793999671936035,16.149999618530273 14.793999671936035,16.149999618530273 C14.793999671936035,16.149999618530273 22.108999252319336,16.149999618530273 22.108999252319336,16.149999618530273 C24.454999923706055,16.149999618530273 26.374000549316406,14.229999542236328 26.374000549316406,11.883999824523926 C26.374000549316406,11.883999824523926 26.374000549316406,-25.854999542236328 26.374000549316406,-25.854999542236328 C26.374000549316406,-25.854999542236328 26.975000381469727,-30.659000396728516 22.108999252319336,-30.659000396728516z"></path></g><g opacity="1" transform="matrix(1,0,0,1,110.24600219726562,77.01699829101562)"><path fill="rgb(255,255,255)" fill-opacity="1" d=" M-22.408000946044922,-30.659000396728516 C-22.408000946044922,-30.659000396728516 22.409000396728516,-30.659000396728516 22.409000396728516,-30.659000396728516 C24.756000518798828,-30.659000396728516 26.673999786376953,-28.73900032043457 26.673999786376953,-26.392000198364258 C26.673999786376953,-26.392000198364258 26.673999786376953,11.883999824523926 26.673999786376953,11.883999824523926 C26.673999786376953,14.230999946594238 24.756000518798828,16.150999069213867 22.409000396728516,16.150999069213867 C22.409000396728516,16.150999069213867 1.9579999446868896,16.150999069213867 1.9579999446868896,16.150999069213867 C1.9579999446868896,16.150999069213867 -20.354000091552734,30.659000396728516 -20.354000091552734,30.659000396728516 C-20.354000091552734,30.659000396728516 -15.093999862670898,16.150999069213867 -15.093999862670898,16.150999069213867 C-15.093999862670898,16.150999069213867 -22.408000946044922,16.150999069213867 -22.408000946044922,16.150999069213867 C-24.753999710083008,16.150999069213867 -26.673999786376953,14.230999946594238 -26.673999786376953,11.883999824523926 C-26.673999786376953,11.883999824523926 -26.673999786376953,-26.392000198364258 -26.673999786376953,-26.392000198364258 C-26.673999786376953,-28.73900032043457 -24.753999710083008,-30.659000396728516 -22.408000946044922,-30.659000396728516z"></path></g><g opacity="1" transform="matrix(1,0,0,1,110.24600219726562,77.01699829101562)"><path stroke-linecap="butt" stroke-linejoin="miter" fill-opacity="0" stroke-miterlimit="10" stroke="rgb(76,24,60)" stroke-opacity="1" stroke-width="2" d=" M-22.408000946044922,-30.659000396728516 C-22.408000946044922,-30.659000396728516 22.409000396728516,-30.659000396728516 22.409000396728516,-30.659000396728516 C24.756000518798828,-30.659000396728516 26.673999786376953,-28.73900032043457 26.673999786376953,-26.392000198364258 C26.673999786376953,-26.392000198364258 26.673999786376953,11.883999824523926 26.673999786376953,11.883999824523926 C26.673999786376953,14.230999946594238 24.756000518798828,16.150999069213867 22.409000396728516,16.150999069213867 C22.409000396728516,16.150999069213867 1.9579999446868896,16.150999069213867 1.9579999446868896,16.150999069213867 C1.9579999446868896,16.150999069213867 -20.354000091552734,30.659000396728516 -20.354000091552734,30.659000396728516 C-20.354000091552734,30.659000396728516 -15.093999862670898,16.150999069213867 -15.093999862670898,16.150999069213867 C-15.093999862670898,16.150999069213867 -22.408000946044922,16.150999069213867 -22.408000946044922,16.150999069213867 C-24.753999710083008,16.150999069213867 -26.673999786376953,14.230999946594238 -26.673999786376953,11.883999824523926 C-26.673999786376953,11.883999824523926 -26.673999786376953,-26.392000198364258 -26.673999786376953,-26.392000198364258 C-26.673999786376953,-28.73900032043457 -24.753999710083008,-30.659000396728516 -22.408000946044922,-30.659000396728516z"></path></g><g opacity="1" transform="matrix(1,0,0,1,130.68699645996094,78.99099731445312)"><path stroke-linecap="round" stroke-linejoin="round" fill-opacity="0" stroke-dasharray=" 5.92 5.92" stroke-dashoffset="0" stroke="rgb(76,24,60)" stroke-opacity="1" stroke-width="2" d=" M13.859000205993652,-21.270999908447266 C13.859000205993652,-21.270999908447266 13.859000205993652,14.836999893188477 13.859000205993652,14.836999893188477 C13.859000205993652,18.375999450683594 10.963000297546387,21.270999908447266 7.425000190734863,21.270999908447266 C7.425000190734863,21.270999908447266 -13.859000205993652,21.270999908447266 -13.859000205993652,21.270999908447266"></path></g><g opacity="1" transform="matrix(1,0,0,1,123.04000091552734,69.76300048828125)"><path fill="rgb(165,98,140)" fill-opacity="1" d=" M-4.822000026702881,0 C-4.822000026702881,-2.6630001068115234 -2.6630001068115234,-4.822000026702881 0,-4.822000026702881 C2.6630001068115234,-4.822000026702881 4.822000026702881,-2.6630001068115234 4.822000026702881,0 C4.822000026702881,2.6630001068115234 2.6630001068115234,4.821000099182129 0,4.821000099182129 C-2.6630001068115234,4.821000099182129 -4.822000026702881,2.6630001068115234 -4.822000026702881,0z"></path></g><g opacity="1" transform="matrix(1,0,0,1,108.88099670410156,69.76300048828125)"><path fill="rgb(143,66,115)" fill-opacity="1" d=" M-4.616000175476074,0 C-4.616000175476074,-2.549999952316284 -2.549999952316284,-4.616000175476074 0,-4.616000175476074 C2.5490000247955322,-4.616000175476074 4.614999771118164,-2.549999952316284 4.614999771118164,0 C4.614999771118164,2.5490000247955322 2.5490000247955322,4.614999771118164 0,4.614999771118164 C-2.549999952316284,4.614999771118164 -4.616000175476074,2.5490000247955322 -4.616000175476074,0z"></path></g><g opacity="1" transform="matrix(1,0,0,1,94.7229995727539,69.76300048828125)"><path fill="rgb(118,32,86)" fill-opacity="1" d=" M-4.822000026702881,0 C-4.822000026702881,-2.6630001068115234 -2.6630001068115234,-4.822000026702881 0,-4.822000026702881 C2.6630001068115234,-4.822000026702881 4.822000026702881,-2.6630001068115234 4.822000026702881,0 C4.822000026702881,2.6630001068115234 2.6630001068115234,4.822000026702881 0,4.822000026702881 C-2.6630001068115234,4.822000026702881 -4.822000026702881,2.6630001068115234 -4.822000026702881,0z"></path></g><g opacity="1" transform="matrix(1,0,0,1,62.60100173950195,85.50900268554688)"><path fill="rgb(165,98,140)" fill-opacity="1" d=" M-4.822000026702881,-0.0010000000474974513 C-4.822000026702881,-2.6640000343322754 -2.6630001068115234,-4.822000026702881 0,-4.822000026702881 C2.6630001068115234,-4.822000026702881 4.822000026702881,-2.6640000343322754 4.822000026702881,-0.0010000000474974513 C4.822000026702881,2.6619999408721924 2.6630001068115234,4.822000026702881 0,4.822000026702881 C-2.6630001068115234,4.822000026702881 -4.822000026702881,2.6619999408721924 -4.822000026702881,-0.0010000000474974513z"></path></g><g opacity="1" transform="matrix(1,0,0,1,48.44200134277344,85.50900268554688)"><path fill="rgb(143,66,115)" fill-opacity="1" d=" M-4.614999771118164,-0.0010000000474974513 C-4.614999771118164,-2.549999952316284 -2.5490000247955322,-4.614999771118164 0.0010000000474974513,-4.614999771118164 C2.549999952316284,-4.614999771118164 4.614999771118164,-2.549999952316284 4.614999771118164,-0.0010000000474974513 C4.614999771118164,2.5490000247955322 2.549999952316284,4.616000175476074 0.0010000000474974513,4.616000175476074 C-2.5490000247955322,4.616000175476074 -4.614999771118164,2.5490000247955322 -4.614999771118164,-0.0010000000474974513z"></path></g><g opacity="1" transform="matrix(1,0,0,1,34.284000396728516,85.50900268554688)"><path fill="rgb(118,33,87)" fill-opacity="1" d=" M-4.822000026702881,-0.0010000000474974513 C-4.822000026702881,-2.6640000343322754 -2.6630001068115234,-4.822000026702881 0,-4.822000026702881 C2.6630001068115234,-4.822000026702881 4.822000026702881,-2.6640000343322754 4.822000026702881,-0.0010000000474974513 C4.822000026702881,2.6619999408721924 2.6630001068115234,4.822000026702881 0,4.822000026702881 C-2.6630001068115234,4.822000026702881 -4.822000026702881,2.6619999408721924 -4.822000026702881,-0.0010000000474974513z"></path></g></g><g transform="matrix(1,0,0,1,752.2150268554688,316.3529968261719)" opacity="1" style="display: block;"><g opacity="1" transform="matrix(1,0,0,1,84.81300354003906,84.81300354003906)"><path fill="rgb(0,172,169)" fill-opacity="1" d=" M-84.56300354003906,0 C-84.56300354003906,-46.702999114990234 -46.702999114990234,-84.56300354003906 0,-84.56300354003906 C46.70399856567383,-84.56300354003906 84.56300354003906,-46.702999114990234 84.56300354003906,0 C84.56300354003906,46.702999114990234 46.70399856567383,84.56300354003906 0,84.56300354003906 C-46.702999114990234,84.56300354003906 -84.56300354003906,46.702999114990234 -84.56300354003906,0z"></path></g><g opacity="1" transform="matrix(1,0,0,1,84.81400299072266,74.98200225830078)"><path fill="rgb(255,255,255)" fill-opacity="1" d=" M55.37699890136719,1.468999981880188 C55.37699890136719,1.468999981880188 30.583999633789062,30.155000686645508 0,30.155000686645508 C-30.583999633789062,30.155000686645508 -55.37699890136719,1.468999981880188 -55.37699890136719,1.468999981880188 C-55.37699890136719,1.468999981880188 -30.583999633789062,-30.155000686645508 0,-30.155000686645508 C30.583999633789062,-30.155000686645508 55.37699890136719,1.468999981880188 55.37699890136719,1.468999981880188z"></path></g><g opacity="1" transform="matrix(1,0,0,0.9480000138282776,84.81400299072266,74.94999694824219)"><path fill="rgb(255,255,255)" fill-opacity="1" d=" M32.137001037597656,0 C32.137001037597656,17.749000549316406 17.74799919128418,32.13800048828125 -0.0010000000474974513,32.13800048828125 C-17.75,32.13800048828125 -32.137001037597656,17.749000549316406 -32.137001037597656,0 C-32.137001037597656,-17.749000549316406 -17.75,-32.13800048828125 -0.0010000000474974513,-32.13800048828125 C17.74799919128418,-32.13800048828125 32.137001037597656,-17.749000549316406 32.137001037597656,0z"></path></g><g opacity="1" transform="matrix(1,0,0,0.9480000138282776,84.81400299072266,74.94999694824219)"><path stroke-linecap="butt" stroke-linejoin="miter" fill-opacity="0" stroke-miterlimit="10" stroke="rgb(0,142,119)" stroke-opacity="1" stroke-width="2" d=" M32.137001037597656,0 C32.137001037597656,17.749000549316406 17.74799919128418,32.13800048828125 -0.0010000000474974513,32.13800048828125 C-17.75,32.13800048828125 -32.137001037597656,17.749000549316406 -32.137001037597656,0 C-32.137001037597656,-17.749000549316406 -17.75,-32.13800048828125 -0.0010000000474974513,-32.13800048828125 C17.74799919128418,-32.13800048828125 32.137001037597656,-17.749000549316406 32.137001037597656,0z"></path></g><g opacity="1" transform="matrix(1,0,0,1,85.08000183105469,75.01699829101562)"><path stroke-linecap="butt" stroke-linejoin="miter" fill-opacity="0" stroke-miterlimit="10" stroke="rgb(0,142,119)" stroke-opacity="1" stroke-width="2" d=" M55.37699890136719,1.468999981880188 C55.37699890136719,1.468999981880188 30.583999633789062,30.155000686645508 0,30.155000686645508 C-30.583999633789062,30.155000686645508 -55.37699890136719,1.468999981880188 -55.37699890136719,1.468999981880188 C-55.37699890136719,1.468999981880188 -30.583999633789062,-30.155000686645508 0,-30.155000686645508 C30.583999633789062,-30.155000686645508 55.37699890136719,1.468999981880188 55.37699890136719,1.468999981880188z"></path></g><g opacity="1" transform="matrix(1,0,0,1,84.81400299072266,73.76000213623047)"><path stroke-linecap="butt" stroke-linejoin="miter" fill-opacity="0" stroke-miterlimit="10" stroke="rgb(0,142,119)" stroke-opacity="1" stroke-width="2" d=" M16.70400047302246,0 C16.70400047302246,9.22599983215332 9.225000381469727,16.70400047302246 0,16.70400047302246 C-9.22599983215332,16.70400047302246 -16.70400047302246,9.22599983215332 -16.70400047302246,0 C-16.70400047302246,-9.225000381469727 -9.22599983215332,-16.70400047302246 0,-16.70400047302246 C9.225000381469727,-16.70400047302246 16.70400047302246,-9.225000381469727 16.70400047302246,0z"></path></g><g opacity="1" transform="matrix(1,0,0,1,82.61000061035156,71.39399719238281)"><path stroke-linecap="round" stroke-linejoin="miter" fill-opacity="0" stroke-miterlimit="10" stroke="rgb(0,142,119)" stroke-opacity="1" stroke-width="2" d=" M-5.945000171661377,7.0279998779296875 C-6.497000217437744,5.788000106811523 -6.802000045776367,4.415999889373779 -6.802000045776367,2.9709999561309814 C-6.802000045776367,-2.552000045776367 -2.3259999752044678,-7.0279998779296875 3.197000026702881,-7.0279998779296875 C4.4679999351501465,-7.0279998779296875 5.684000015258789,-6.791999816894531 6.802000045776367,-6.359000205993652"></path></g><g opacity="1" transform="matrix(1,0,0,1,108.53099822998047,99.64099884033203)"><path stroke-linecap="butt" stroke-linejoin="miter" fill-opacity="0" stroke-miterlimit="10" stroke="rgb(0,142,119)" stroke-opacity="1" stroke-width="2" d=" M-12.885000228881836,-12.845999717712402 C-12.885000228881836,-12.845999717712402 12.885000228881836,12.845999717712402 12.885000228881836,12.845999717712402"></path></g><g opacity="1" transform="matrix(1,0,0,1,71.54100036621094,117.74400329589844)"><path stroke-linecap="round" stroke-linejoin="miter" fill-opacity="0" stroke-miterlimit="10" stroke-dasharray=" 6.587 6.587" stroke-dashoffset="0" stroke="rgb(255,255,255)" stroke-opacity="1" stroke-width="2" d=" M-28.97100067138672,-14.979000091552734 C-18.29599952697754,6.3460001945495605 7.645999908447266,14.979000091552734 28.97100067138672,4.304999828338623"></path></g><g opacity="1" transform="matrix(1,0,0,1,108.08699798583984,118.91899871826172)"><path fill="rgb(255,255,255)" fill-opacity="1" d=" M-0.45399999618530273,3.0490000247955322 C-0.45399999618530273,3.0490000247955322 -2.88100004196167,-1.9190000295639038 -3.1619999408721924,-2.4839999675750732 C-3.441999912261963,-3.0490000247955322 3.441999912261963,-2.2839999198913574 3.441999912261963,-2.2839999198913574 C3.441999912261963,-2.2839999198913574 -0.45399999618530273,3.0490000247955322 -0.45399999618530273,3.0490000247955322z"></path></g></g><g transform="matrix(1,0,0,1,182.45700073242188,183.833984375)" opacity="1" style="display: block;"><g opacity="1" transform="matrix(1,0,0,1,84.81300354003906,84.81300354003906)"><path fill="rgb(0,156,220)" fill-opacity="1" d=" M-84.56300354003906,0 C-84.56300354003906,-46.702999114990234 -46.702999114990234,-84.56300354003906 0,-84.56300354003906 C46.702999114990234,-84.56300354003906 84.56300354003906,-46.702999114990234 84.56300354003906,0 C84.56300354003906,46.702999114990234 46.702999114990234,84.56300354003906 0,84.56300354003906 C-46.702999114990234,84.56300354003906 -84.56300354003906,46.702999114990234 -84.56300354003906,0z"></path></g><g opacity="1" transform="matrix(1,0,0,1,97.16799926757812,58.667999267578125)"><path stroke-linecap="round" stroke-linejoin="miter" fill-opacity="0" stroke-miterlimit="10" stroke="rgb(0,95,158)" stroke-opacity="1" stroke-width="2" d=" M3.8340001106262207,-6.048999786376953 C3.8340001106262207,-6.048999786376953 -3.8340001106262207,6.048999786376953 -3.8340001106262207,6.048999786376953"></path></g><g opacity="1" transform="matrix(1,0,0,1,105.54299926757812,46.05099868774414)"><path stroke-linecap="round" stroke-linejoin="miter" fill-opacity="0" stroke-miterlimit="10" stroke="rgb(0,95,158)" stroke-opacity="1" stroke-width="2" d=" M-6.955999851226807,3.2090001106262207 C-8.727999687194824,-0.6330000162124634 -7.051000118255615,-5.184000015258789 -3.2090001106262207,-6.955999851226807 C0.6320000290870667,-8.729000091552734 5.184000015258789,-7.050000190734863 6.955999851226807,-3.2079999446868896 C8.727999687194824,0.6330000162124634 7.050000190734863,5.184999942779541 3.2079999446868896,6.956999778747559 C-0.6340000033378601,8.729000091552734 -5.184000015258789,7.051000118255615 -6.955999851226807,3.2090001106262207z"></path></g><g opacity="1" transform="matrix(1,0,0,1,43.81800079345703,73.25299835205078)"><path stroke-linecap="round" stroke-linejoin="miter" fill-opacity="0" stroke-miterlimit="10" stroke="rgb(0,95,158)" stroke-opacity="1" stroke-width="2" d=" M-6.0229997634887695,-3.875 C-6.0229997634887695,-3.875 6.0229997634887695,3.875 6.0229997634887695,3.875"></path></g><g opacity="1" transform="matrix(1,0,0,1,31.257999420166016,64.79299926757812)"><path stroke-linecap="round" stroke-linejoin="miter" fill-opacity="0" stroke-miterlimit="10" stroke="rgb(0,95,158)" stroke-opacity="1" stroke-width="2" d=" M3.1619999408721924,6.978000164031982 C-0.6919999718666077,8.723999977111816 -5.23199987411499,7.014999866485596 -6.978000164031982,3.1619999408721924 C-8.723999977111816,-0.6919999718666077 -7.014999866485596,-5.23199987411499 -3.1610000133514404,-6.978000164031982 C0.6930000185966492,-8.723999977111816 5.23199987411499,-7.014999866485596 6.978000164031982,-3.1619999408721924 C8.723999977111816,0.6919999718666077 7.015999794006348,5.23199987411499 3.1619999408721924,6.978000164031982z"></path></g><g opacity="1" transform="matrix(1,0,0,1,67.53199768066406,104.5719985961914)"><path stroke-linecap="round" stroke-linejoin="miter" fill-opacity="0" stroke-miterlimit="10" stroke="rgb(0,95,158)" stroke-opacity="1" stroke-width="2" d=" M-2.2290000915527344,6.806000232696533 C-2.2290000915527344,6.806000232696533 2.2290000915527344,-6.806000232696533 2.2290000915527344,-6.806000232696533"></path></g><g opacity="1" transform="matrix(1,0,0,1,62.516998291015625,118.86199951171875)"><path stroke-linecap="round" stroke-linejoin="miter" fill-opacity="0" stroke-miterlimit="10" stroke="rgb(0,95,158)" stroke-opacity="1" stroke-width="2" d=" M5.953999996185303,-4.822000026702881 C8.616999626159668,-1.534000039100647 8.107999801635742,3.2899999618530273 4.820000171661377,5.953000068664551 C1.531999945640564,8.616000175476074 -3.2920000553131104,8.107999801635742 -5.953999996185303,4.820000171661377 C-8.616999626159668,1.531999945640564 -8.109999656677246,-3.2920000553131104 -4.822000026702881,-5.954999923706055 C-1.534000039100647,-8.616999626159668 3.2909998893737793,-8.109999656677246 5.953999996185303,-4.822000026702881z"></path></g><g opacity="1" transform="matrix(1,0,0,1,116.71299743652344,98.48300170898438)"><path stroke-linecap="round" stroke-linejoin="miter" fill-opacity="0" stroke-miterlimit="10" stroke="rgb(0,95,158)" stroke-opacity="1" stroke-width="2" d=" M5.3979997634887695,4.705999851226807 C5.3979997634887695,4.705999851226807 -5.3979997634887695,-4.705999851226807 -5.3979997634887695,-4.705999851226807"></path></g><g opacity="1" transform="matrix(1,0,0,1,127.91400146484375,108.67400360107422)"><path stroke-linecap="round" stroke-linejoin="miter" fill-opacity="0" stroke-miterlimit="10" stroke="rgb(0,95,158)" stroke-opacity="1" stroke-width="2" d=" M-2.117000102996826,-7.36299991607666 C1.9490000009536743,-8.531999588012695 6.192999839782715,-6.183000087738037 7.361999988555908,-2.117000102996826 C8.531999588012695,1.9500000476837158 6.183000087738037,6.192999839782715 2.117000102996826,7.361999988555908 C-1.9490000009536743,8.531000137329102 -6.192999839782715,6.183000087738037 -7.36299991607666,2.115999937057495 C-8.531999588012695,-1.9490000009536743 -6.183000087738037,-6.193999767303467 -2.117000102996826,-7.36299991607666z"></path></g><g opacity="1" transform="matrix(1,0,0,1,82.63099670410156,84.25599670410156)"><path fill="rgb(255,255,255)" fill-opacity="1" d=" M40.15599822998047,1.5219999551773071 C40.15599822998047,-3.992000102996826 37.14899826049805,-8.800999641418457 32.6879997253418,-11.364999771118164 C31.968000411987305,-19.28499984741211 25.312000274658203,-25.490999221801758 17.202999114990234,-25.490999221801758 C15.87600040435791,-25.490999221801758 14.588000297546387,-25.322999954223633 13.357999801635742,-25.01099967956543 C10.508000373840332,-28.270000457763672 6.321000099182129,-30.332000732421875 1.6510000228881836,-30.332000732421875 C-2.438999891281128,-30.332000732421875 -6.1570000648498535,-28.750999450683594 -8.932999610900879,-26.17099952697754 C-10.494000434875488,-26.69700050354004 -12.163999557495117,-26.986000061035156 -13.902000427246094,-26.986000061035156 C-20.548999786376953,-26.986000061035156 -26.2189998626709,-22.81599998474121 -28.44499969482422,-16.950000762939453 C-35.180999755859375,-15.201000213623047 -40.15599822998047,-9.079999923706055 -40.15599822998047,-1.7960000038146973 C-40.15599822998047,6.85099983215332 -33.145999908447266,13.859999656677246 -24.499000549316406,13.859999656677246 C-21.447999954223633,13.859999656677246 -18.60300064086914,12.984000205993652 -16.19499969482422,11.475000381469727 C-13.49899959564209,15.234999656677246 -9.095000267028809,17.687999725341797 -4.116000175476074,17.687999725341797 C-2.864000082015991,17.687999725341797 -1.6490000486373901,17.5310001373291 -0.4869999885559082,17.23900032043457 C1.7410000562667847,18.530000686645508 5.752999782562256,20.863000869750977 6.366000175476074,21.288000106811523 C7.223999977111816,21.8799991607666 10.885000228881836,24.77400016784668 11.741000175476074,25.746000289916992 C12.597000122070312,26.718000411987305 14.843999862670898,30.332000732421875 14.843999862670898,30.332000732421875 C14.843999862670898,30.332000732421875 22.316999435424805,30.332000732421875 22.316999435424805,30.332000732421875 C22.316999435424805,30.332000732421875 20.638999938964844,26.104999542236328 20.638999938964844,26.104999542236328 C20.638999938964844,26.104999542236328 20.638999938964844,20.884000778198242 20.638999938964844,20.884000778198242 C23.77899932861328,20.139999389648438 26.531999588012695,18.402000427246094 28.548999786376953,16.01799964904785 C35.189998626708984,14.53600025177002 40.15599822998047,8.609999656677246 40.15599822998047,1.5219999551773071z"></path></g><g opacity="1" transform="matrix(1,0,0,1,52.92900085449219,84.00499725341797)"><path stroke-linecap="round" stroke-linejoin="miter" fill-opacity="0" stroke-miterlimit="10" stroke="rgb(0,95,158)" stroke-opacity="1" stroke-width="2" d=" M13.418000221252441,12.673999786376953 C13.418000221252441,12.673999786376953 9.852999687194824,13.522000312805176 9.852999687194824,13.522000312805176 C9.852999687194824,13.522000312805176 -6.3470001220703125,16.27199935913086 -9.883000373840332,3.131999969482422 C-13.418000221252441,-10.008000373840332 0.6200000047683716,-16.27199935913086 0.6200000047683716,-16.27199935913086"></path></g><g opacity="1" transform="matrix(1,0,0,1,86.89399719238281,87.2030029296875)"><path stroke-linecap="round" stroke-linejoin="miter" fill-opacity="0" stroke-miterlimit="10" stroke="rgb(0,95,158)" stroke-opacity="1" stroke-width="2" d=" M-4.855999946594238,-15.345999717712402 C-6.697999954223633,-11.512999534606934 -8.72599983215332,-11.432000160217285 -12.64799976348877,-11.194999694824219 C-16.56100082397461,-10.956999778747559 -21.292999267578125,-8.42300033569336 -22.43600082397461,-4.453999996185303 C-23.608999252319336,-0.375 -23.773000717163086,4.3470001220703125 -21.527000427246094,8.104000091552734 C-19.198999404907227,12 -14.5649995803833,13.866999626159668 -10.295999526977539,14.711000442504883 C-8.02299976348877,15.16100025177002 -5.632999897003174,15.345999717712402 -3.4189999103546143,14.663999557495117 C1.590999960899353,13.119999885559082 4.142000198364258,7.960000038146973 6.492000102996826,3.7079999446868896 C8.682999610900879,-0.2549999952316284 11.378000259399414,-4.3520002365112305 16.375999450683594,-3.240000009536743 C23.77400016784668,-1.593000054359436 20.937999725341797,3.8910000324249268 20.937999725341797,3.8910000324249268"></path></g><g opacity="1" transform="matrix(1,0,0,1,97.62699890136719,96.75299835205078)"><path stroke-linecap="round" stroke-linejoin="miter" fill-opacity="0" stroke-miterlimit="10" stroke="rgb(0,95,158)" stroke-opacity="1" stroke-width="2" d=" M5.639999866485596,-3.065000057220459 C5.639999866485596,-3.065000057220459 5.946000099182129,2.759999990463257 0.5979999899864197,2.9130001068115234 C-4.75,3.065000057220459 -5.946000099182129,-2.743000030517578 -5.946000099182129,-2.743000030517578"></path></g><g opacity="1" transform="matrix(1,0,0,1,98.1719970703125,103.30699920654297)"><path stroke-linecap="round" stroke-linejoin="miter" fill-opacity="0" stroke-miterlimit="10" stroke="rgb(0,95,158)" stroke-opacity="1" stroke-width="2" d=" M14.371000289916992,-11.281000137329102 C14.371000289916992,-11.281000137329102 15.22700023651123,-8.677000045776367 12.581000328063965,-3.638000011444092 C9.934000015258789,1.4010000228881836 5.252999782562256,1.0950000286102295 5.0980000495910645,1.8589999675750732 C4.940999984741211,2.622999906539917 4.489999771118164,4.609000205993652 5.0980000495910645,7.053999900817871 C5.704999923706055,9.498000144958496 6.775000095367432,11.281000137329102 6.775000095367432,11.281000137329102 C6.775000095367432,11.281000137329102 -0.6970000267028809,11.281000137329102 -0.6970000267028809,11.281000137329102 C-0.6970000267028809,11.281000137329102 -1.7510000467300415,8.029999732971191 -6.492000102996826,4.211999893188477 C-11.232000350952148,0.3930000066757202 -15.22700023651123,-0.9800000190734863 -15.22700023651123,-0.9800000190734863"></path></g><g opacity="1" transform="matrix(1,0,0,1,114.802001953125,83.51399993896484)"><path stroke-linecap="round" stroke-linejoin="miter" fill-opacity="0" stroke-miterlimit="10" stroke="rgb(0,95,158)" stroke-opacity="1" stroke-width="2" d=" M-10.619000434875488,-9.0600004196167 C-10.619000434875488,-9.0600004196167 3.2850000858306885,-16.15399932861328 6.952000141143799,-0.765999972820282 C10.619000434875488,14.623000144958496 -4.048999786376953,16.15399932861328 -4.048999786376953,16.15399932861328"></path></g><g opacity="1" transform="matrix(1,0,0,1,105.97799682617188,65.80000305175781)"><path stroke-linecap="round" stroke-linejoin="miter" fill-opacity="0" stroke-miterlimit="10" stroke="rgb(0,95,158)" stroke-opacity="1" stroke-width="2" d=" M10.270000457763672,8.317999839782715 C10.270000457763672,8.317999839782715 8.899999618530273,1.7799999713897705 3.240000009536743,-3.2690000534057617 C-2.4200000762939453,-8.317999839782715 -10.270000457763672,-7.510000228881836 -10.270000457763672,-7.510000228881836"></path></g><g opacity="1" transform="matrix(1,0,0,1,86.37300109863281,57.637001037597656)"><path stroke-linecap="round" stroke-linejoin="miter" fill-opacity="0" stroke-miterlimit="10" stroke="rgb(0,95,158)" stroke-opacity="1" stroke-width="2" d=" M11.437999725341797,4.89300012588501 C10.656999588012695,0.11800000071525574 6.284999847412109,-2.6540000438690186 1.5460000038146973,-3.747999906539917 C-3.4179999828338623,-4.89300012588501 -8.788000106811523,-3.6670000553131104 -11.437999725341797,0.0820000022649765"></path></g><g opacity="1" transform="matrix(1,0,0,1,65.39199829101562,65.08699798583984)"><path stroke-linecap="round" stroke-linejoin="miter" fill-opacity="0" stroke-miterlimit="10" stroke="rgb(0,95,158)" stroke-opacity="1" stroke-width="2" d=" M13.123000144958496,-4.535999774932861 C8.10200023651123,-10.399999618530273 -1.4179999828338623,-8.166000366210938 -6.906000137329102,-4.164000034332275 C-11.753999710083008,-0.628000020980835 -13.123000144958496,5.367000102996826 -9.70199966430664,10.399999618530273"></path></g><g opacity="1" transform="matrix(1,0,0,1,79.53600311279297,79.6500015258789)"><path stroke-linecap="round" stroke-linejoin="miter" fill-opacity="0" stroke-miterlimit="10" stroke="rgb(0,95,158)" stroke-opacity="1" stroke-width="2" d=" M-1.1740000247955322,-3.819999933242798 C-1.1740000247955322,-3.819999933242798 1.0609999895095825,-2.559000015258789 1.1180000305175781,0.15299999713897705 C1.1740000247955322,2.811000108718872 -0.014999999664723873,3.819999933242798 -0.014999999664723873,3.819999933242798"></path></g><g opacity="1" transform="matrix(1,0,0,1,70.73300170898438,69.75)"><path stroke-linecap="round" stroke-linejoin="miter" fill-opacity="0" stroke-miterlimit="10" stroke="rgb(0,156,220)" stroke-opacity="1" stroke-width="2.053" d=" M6.451000213623047,-0.24699999392032623 C6.451000213623047,-0.24699999392032623 3.5239999294281006,-4.568999767303467 -1.190000057220459,-2.8929998874664307 C-5.9039998054504395,-1.2170000076293945 -6.451000213623047,4.567999839782715 -6.451000213623047,4.567999839782715"></path></g><g opacity="1" transform="matrix(1,0,0,1,54.53799819946289,82.85800170898438)"><path stroke-linecap="round" stroke-linejoin="miter" fill-opacity="0" stroke-miterlimit="10" stroke="rgb(0,156,220)" stroke-opacity="1" stroke-width="2.053" d=" M5.5329999923706055,-3.7160000801086426 C5.5329999923706055,-3.7160000801086426 5.77400016784668,1.8009999990463257 1.690999984741211,2.759000062942505 C-2.3910000324249268,3.7160000801086426 -5.77400016784668,0.10400000214576721 -5.77400016784668,0.10400000214576721"></path></g><g opacity="1" transform="matrix(1,0,0,1,80.375,90.61100006103516)"><path stroke-linecap="round" stroke-linejoin="miter" fill-opacity="0" stroke-miterlimit="10" stroke="rgb(0,156,220)" stroke-opacity="1" stroke-width="2.053" d=" M-6.586999893188477,-2.2869999408721924 C-6.586999893188477,-2.2869999408721924 -5.041999816894531,3.3359999656677246 -0.04600000008940697,2.755000114440918 C4.948999881744385,2.174999952316284 6.586999893188477,-3.3359999656677246 6.586999893188477,-3.3359999656677246"></path></g><g opacity="1" transform="matrix(1,0,0,1,93.60800170898438,69.68000030517578)"><path stroke-linecap="round" stroke-linejoin="miter" fill-opacity="0" stroke-miterlimit="10" stroke="rgb(0,156,220)" stroke-opacity="1" stroke-width="2.053" d=" M-6.645999908447266,-6.114999771118164 C-6.645999908447266,-6.114999771118164 -8.020999908447266,0.6150000095367432 -2.2149999141693115,3.365000009536743 C3.5910000801086426,6.114999771118164 8.020999908447266,1.3639999628067017 8.020999908447266,1.3639999628067017"></path></g><g opacity="1" transform="matrix(1,0,0,1,94.39099884033203,77.24400329589844)"><path stroke-linecap="round" stroke-linejoin="miter" fill-opacity="0" stroke-miterlimit="10" stroke="rgb(0,156,220)" stroke-opacity="1" stroke-width="2.053" d=" M-1.3179999589920044,3.5929999351501465 C-1.3179999589920044,3.5929999351501465 1.2419999837875366,2.4049999713897705 1.2790000438690186,0.1860000044107437 C1.3170000314712524,-2.0820000171661377 -1.3179999589920044,-3.5929999351501465 -1.3179999589920044,-3.5929999351501465"></path></g></g><g transform="matrix(0.5788692831993103,0.5092655420303345,0.5092655420303345,-0.5788692831993103,34.022216796875,568.689453125)" opacity="1" style="display: block;"><g opacity="1" transform="matrix(1,0,0,1,820.1640014648438,459.34600830078125)"><path stroke="url(#__lottie_element_14)" stroke-linecap="round" stroke-linejoin="miter" fill-opacity="0" stroke-miterlimit="4" stroke-opacity="1" stroke-width="17" d=" M-13.932000160217285,187.08900451660156 C10.440999984741211,133.19400024414062 24.007999420166016,73.37000274658203 24.007999420166016,10.375 C24.007999420166016,-60.82600021362305 6.669000148773193,-127.9739990234375 -24.007999420166016,-187.08900451660156"></path></g><g opacity="1" transform="matrix(1,0,0,1,811.7139892578125,298.81298828125)"><path stroke-linecap="round" stroke-linejoin="miter" fill-opacity="0" stroke-miterlimit="10" stroke="rgb(179,37,115)" stroke-opacity="1" stroke-width="17" d=" M37.55699920654297,-4.558000087738037 C37.55699920654297,-4.558000087738037 -15.557999610900879,-26.55699920654297 -15.557999610900879,-26.55699920654297 C-15.557999610900879,-26.55699920654297 -37.55699920654297,26.55699920654297 -37.55699920654297,26.55699920654297"></path></g><g opacity="1" transform="matrix(1,0,0,1,230.66400146484375,809.3889770507812)"><path stroke="url(#__lottie_element_15)" stroke-linecap="round" stroke-linejoin="miter" fill-opacity="0" stroke-miterlimit="4" stroke-opacity="1" stroke-width="17" d=" M-164.49899291992188,-89.19000244140625 C-90.14600372314453,14.13599967956543 28.993999481201172,83.06999969482422 164.49899291992188,89.19000244140625"></path></g><g opacity="1" transform="matrix(1,0,0,1,371.0119934082031,890.0859985351562)"><path stroke-linecap="round" stroke-linejoin="miter" fill-opacity="0" stroke-miterlimit="10" stroke="rgb(0,174,169)" stroke-opacity="1" stroke-width="17" d=" M-24.149999618530273,39.7400016784668 C-24.149999618530273,39.7400016784668 24.149999618530273,8.560999870300293 24.149999618530273,8.560999870300293 C24.149999618530273,8.560999870300293 -7.0269999504089355,-39.7400016784668 -7.0269999504089355,-39.7400016784668"></path></g><g opacity="1" transform="matrix(1,0,0,1,212.7760009765625,140.3509979248047)"><path stroke="url(#__lottie_element_16)" stroke-linecap="round" stroke-linejoin="miter" fill-opacity="0" stroke-miterlimit="4" stroke-opacity="1" stroke-width="17" d=" M159.51199340820312,-97.85199737548828 C25.506999969482422,-84.66000366210938 -90.40699768066406,-9.855999946594238 -159.51199340820312,97.85199737548828"></path></g><g opacity="1" transform="matrix(1,0,0,1,76.11900329589844,209.96600341796875)"><path stroke-linecap="round" stroke-linejoin="miter" fill-opacity="0" stroke-miterlimit="10" stroke="rgb(0,156,220)" stroke-opacity="1" stroke-width="17" d=" M-33.61899948120117,-28.23699951171875 C-33.61899948120117,-28.23699951171875 -22.854999542236328,28.23699951171875 -22.854999542236328,28.23699951171875 C-22.854999542236328,28.23699951171875 33.61899948120117,17.472000122070312 33.61899948120117,17.472000122070312"></path></g></g></g></g></svg>