<svg version="1.1" class="highcharts-root" style="font-family:&quot;Lucida Grande&quot;, &quot;Lucida Sans Unicode&quot;, Arial, Helvetica, sans-serif;font-size:12px;" xmlns="http://www.w3.org/2000/svg" width="671" height="400" viewBox="0 0 671 400"><desc>Created with Highcharts 8.2.2</desc><defs><clipPath id="highcharts-yd2eycu-4-"><rect x="0" y="0" width="651" height="375" fill="none"></rect></clipPath></defs><rect fill="rgba(0,0,0,0)" class="highcharts-background" x="0" y="0" width="671" height="400" rx="0" ry="0"></rect><rect fill="none" class="highcharts-plot-background" x="10" y="10" width="651" height="375"></rect><rect fill="none" class="highcharts-plot-border" data-z-index="1" x="10" y="10" width="651" height="375"></rect><g class="highcharts-series-group" data-z-index="3"><g class="highcharts-series highcharts-series-0 highcharts-pie-series highcharts-tracker" data-z-index="0.1" opacity="1" transform="translate(10,10) scale(1 1)" style="cursor:pointer;"><path fill="#067b77" d="M 325.4797599753828 88.12500206117535 A 99.375 99.375 0 1 1 325.36197011865414 88.12509586041425 M 325.3958265046446 112.50007234748246 A 75 75 0 1 0 325.48472450972287 112.50000155560404" transform="translate(0,0)" stroke="#ffffff" stroke-width="4" opacity="1" stroke-linejoin="round" class="highcharts-point highcharts-color-0 highcharts-point-select"></path></g><g class="highcharts-markers highcharts-series-0 highcharts-pie-series" data-z-index="0.1" opacity="1" transform="translate(10,10) scale(1 1)"></g><g class="highcharts-series highcharts-series-1 highcharts-pie-series highcharts-tracker" data-z-index="0.1" opacity="1" transform="translate(10,10) scale(1 1)" style="cursor:pointer;"><path fill="#108f79" d="M 325.4663939213903 22.500003422328888 A 165 165 0 1 1 245.9045131737987 42.967794326316266 L 277.7427079042792 100.78067659578976 A 99 99 0 1 0 325.4798363528342 88.50000205339732 Z" transform="translate(0,0)" stroke="#ffffff" stroke-width="4" opacity="0.25" stroke-linejoin="round" class="highcharts-point highcharts-color-0"></path><path fill="#1dd9d1" d="M 246.04908515312383 42.88827111885277 A 165 165 0 0 1 325.2708183102182 22.500159164461394 L 325.3624909861309 88.50009549867684 A 99 99 0 0 0 277.82945109187426 100.73296267131167 Z" transform="translate(0,0)" stroke="#ffffff" stroke-width="4" opacity="0.25" stroke-linejoin="round" class="highcharts-point highcharts-color-1"></path></g><g class="highcharts-markers highcharts-series-1 highcharts-pie-series" data-z-index="0.1" opacity="1" transform="translate(10,10) scale(1 1)"></g></g><text x="336" text-anchor="middle" class="highcharts-title" data-z-index="4" style="color:#333333;font-size:18px;fill:#333333;" y="24"></text><text x="336" text-anchor="middle" class="highcharts-subtitle" data-z-index="4" style="color:#666666;fill:#666666;" y="24"></text><text x="10" text-anchor="start" class="highcharts-caption" data-z-index="4" style="color:#666666;fill:#666666;" y="397"></text><g class="highcharts-legend" data-z-index="7"><rect fill="none" class="highcharts-legend-box" rx="0" ry="0" x="0" y="0" width="8" height="8" visibility="hidden"></rect><g data-z-index="1"><g></g></g></g></svg>