<svg xmlns="http://www.w3.org/2000/svg" viewBox="0 0 960 540" width="960" height="540" preserveAspectRatio="xMidYMid meet" style="width: 100%; height: 100%; transform: translate3d(0px, 0px, 0px);"><defs><clipPath id="__lottie_element_213"><rect width="960" height="540" x="0" y="0"></rect></clipPath></defs><g clip-path="url(#__lottie_element_213)"><g transform="matrix(0,0,0,0,480,234.5)" opacity="1" style="display: none;"><g opacity="1" transform="matrix(1,0,0,1,160.1179962158203,92.79499816894531)"><path fill="rgb(254,254,255)" fill-opacity="1" d=" M24.323999404907227,77.01300048828125 C16.613000869750977,79.1500015258789 8.449000358581543,80.2959976196289 0,80.2959976196289 C-47.3129997253418,80.2959976196289 -85.66799926757812,44.34700012207031 -85.66799926757812,0.0010000000474974513 C-85.66799926757812,-44.345001220703125 -47.3129997253418,-80.2959976196289 0,-80.2959976196289 C47.31399917602539,-80.2959976196289 85.66799926757812,-44.345001220703125 85.66799926757812,0.0010000000474974513 C85.66799926757812,0.0010000000474974513 85.66799926757812,0.0010000000474974513 85.66799926757812,0.0010000000474974513 C85.66799926757812,36.428001403808594 59.790000915527344,67.18800354003906 24.323999404907227,77.01300048828125"></path><path stroke-linecap="butt" stroke-linejoin="miter" fill-opacity="0" stroke-miterlimit="10" stroke="rgb(41,120,88)" stroke-opacity="1" stroke-width="5" d=" M24.323999404907227,77.01300048828125 C16.613000869750977,79.1500015258789 8.449000358581543,80.2959976196289 0,80.2959976196289 C-47.3129997253418,80.2959976196289 -85.66799926757812,44.34700012207031 -85.66799926757812,0.0010000000474974513 C-85.66799926757812,-44.345001220703125 -47.3129997253418,-80.2959976196289 0,-80.2959976196289 C47.31399917602539,-80.2959976196289 85.66799926757812,-44.345001220703125 85.66799926757812,0.0010000000474974513 C85.66799926757812,0.0010000000474974513 85.66799926757812,0.0010000000474974513 85.66799926757812,0.0010000000474974513 C85.66799926757812,36.428001403808594 59.790000915527344,67.18800354003906 24.323999404907227,77.01300048828125"></path></g></g><g transform="matrix(0,0,0,0,480,234.5)" opacity="1" style="display: none;"><g opacity="1" transform="matrix(1,0,0,1,160.1179962158203,92.88200378417969)"><path stroke-linecap="round" stroke-linejoin="round" fill-opacity="0" stroke="rgb(61,163,140)" stroke-opacity="1" stroke-width="5" d=" M147.6179962158203,3.056999921798706 C147.6179962158203,3.056999921798706 81.5270004272461,79.52200317382812 0,79.52200317382812 C-81.52799987792969,79.52200317382812 -147.6179962158203,3.056999921798706 -147.6179962158203,3.056999921798706 C-147.6179962158203,3.056999921798706 -81.52799987792969,-81.24099731445312 0,-81.24099731445312 C81.5270004272461,-81.24099731445312 147.6179962158203,3.056999921798706 147.6179962158203,3.056999921798706z"></path></g></g><g transform="matrix(0,0,0,0,480,234.5)" opacity="1" style="display: none;"><g opacity="1" transform="matrix(1,0,0,1,160.1179962158203,89.62300109863281)"><path stroke-linecap="round" stroke-linejoin="miter" fill-opacity="0" stroke-miterlimit="10" stroke="rgb(41,120,88)" stroke-opacity="1" stroke-width="5" d=" M44.52799987792969,0 C44.52799987792969,24.591999053955078 24.591999053955078,44.527000427246094 0.0010000000474974513,44.527000427246094 C-24.590999603271484,44.527000427246094 -44.52799987792969,24.591999053955078 -44.52799987792969,0 C-44.52799987792969,-24.591999053955078 -24.590999603271484,-44.527000427246094 0.0010000000474974513,-44.527000427246094 C24.591999053955078,-44.527000427246094 44.52799987792969,-24.591999053955078 44.52799987792969,0z"></path></g><g opacity="1" transform="matrix(1,0,0,1,154.2429962158203,83.31600189208984)"><path stroke-linecap="round" stroke-linejoin="miter" fill-opacity="0" stroke-miterlimit="10" stroke="rgb(61,163,140)" stroke-opacity="1" stroke-width="5" d=" M-15.845999717712402,18.736000061035156 C-17.31599998474121,15.430000305175781 -18.132999420166016,11.770000457763672 -18.132999420166016,7.919000148773193 C-18.132999420166016,-6.802999973297119 -6.199999809265137,-18.736000061035156 8.520000457763672,-18.736000061035156 C11.90999984741211,-18.736000061035156 15.151000022888184,-18.10300064086914 18.132999420166016,-16.950000762939453"></path></g><g opacity="1" transform="matrix(1,0,0,1,223.33999633789062,158.61399841308594)"><path stroke-linecap="round" stroke-linejoin="miter" fill-opacity="0" stroke-miterlimit="10" stroke="rgb(41,120,88)" stroke-opacity="1" stroke-width="5" d=" M-34.34700012207031,-34.242000579833984 C-34.34700012207031,-34.242000579833984 34.34700012207031,34.242000579833984 34.34700012207031,34.242000579833984"></path></g></g><g transform="matrix(0,0,0,0,480,234.5)" opacity="1" style="display: none;"><g opacity="1" transform="matrix(1,0,0,1,124.73799896240234,206.87100219726562)"><path stroke-linecap="round" stroke-linejoin="miter" fill-opacity="0" stroke-miterlimit="10" stroke-dasharray=" 17.319 17.319" stroke-dashoffset="0" stroke="rgb(61,163,140)" stroke-opacity="1" stroke-width="5" d=" M-77.22799682617188,-39.93000030517578 C-48.770999908447266,16.91699981689453 20.381000518798828,39.93000030517578 77.22799682617188,11.472999572753906"></path></g><g opacity="1" transform="matrix(1,0,0,1,222.531005859375,210.75599670410156)"><path fill="rgb(40,117,88)" fill-opacity="1" d=" M-1.5850000381469727,7.374000072479248 C-1.5850000381469727,7.374000072479248 -8.803000450134277,-7.374000072479248 -8.803000450134277,-7.374000072479248 C-8.803000450134277,-7.374000072479248 8.803000450134277,-6.8429999351501465 8.803000450134277,-6.8429999351501465 C8.803000450134277,-6.8429999351501465 -1.5850000381469727,7.374000072479248 -1.5850000381469727,7.374000072479248z"></path></g></g><g transform="matrix(0,0,0,0,478.75,270)" opacity="1" style="display: none;"><g opacity="0" transform="matrix(1,0,0,1,-33,0)"><path stroke-linecap="butt" stroke-linejoin="miter" fill-opacity="0" stroke-miterlimit="10" stroke="rgb(61,163,140)" stroke-opacity="1" stroke-width="8.443" d=" M26.58099937438965,9.286999702453613 C26.58099937438965,9.286999702453613 26.58099937438965,164.1479949951172 26.58099937438965,164.1479949951172"></path></g><g opacity="0" transform="matrix(1,0,0,1,-61,0)"><path stroke-linecap="butt" stroke-linejoin="miter" fill-opacity="0" stroke-miterlimit="10" stroke="rgb(61,163,140)" stroke-opacity="1" stroke-width="16.886" d=" M53.237998962402344,9.286999702453613 C53.237998962402344,9.286999702453613 53.237998962402344,164.1479949951172 53.237998962402344,164.1479949951172"></path></g><g opacity="0" transform="matrix(1,0,0,1,-83,0)"><path stroke-linecap="butt" stroke-linejoin="miter" fill-opacity="0" stroke-miterlimit="10" stroke="rgb(61,163,140)" stroke-opacity="1" stroke-width="16.886" d=" M78.50299835205078,9.286999702453613 C78.50299835205078,9.286999702453613 78.50299835205078,164.1479949951172 78.50299835205078,164.1479949951172"></path></g><g opacity="1" transform="matrix(1,0,0,1,-93,0)"><path stroke-linecap="butt" stroke-linejoin="miter" fill-opacity="0" stroke-miterlimit="10" stroke="rgb(61,163,140)" stroke-opacity="1" stroke-width="8.443" d=" M103.76799774169922,9.286999702453613 C103.76799774169922,9.286999702453613 103.76799774169922,164.1479949951172 103.76799774169922,164.1479949951172"></path></g><g opacity="1" transform="matrix(1,0,0,1,-99,0)"><path stroke-linecap="butt" stroke-linejoin="miter" fill-opacity="0" stroke-miterlimit="10" stroke="rgb(61,163,140)" stroke-opacity="1" stroke-width="18.575" d=" M134.91700744628906,9.286999702453613 C134.91700744628906,9.286999702453613 134.91700744628906,164.1479949951172 134.91700744628906,164.1479949951172"></path></g><g opacity="1" transform="matrix(1,0,0,1,-100,0)"><path stroke-linecap="butt" stroke-linejoin="miter" fill-opacity="0" stroke-miterlimit="10" stroke="rgb(61,163,140)" stroke-opacity="1" stroke-width="18.575" d=" M161.57400512695312,9.286999702453613 C161.57400512695312,9.286999702453613 161.57400512695312,164.1479949951172 161.57400512695312,164.1479949951172"></path></g><g opacity="1" transform="matrix(1,0,0,1,51,0)"><path stroke-linecap="butt" stroke-linejoin="miter" fill-opacity="0" stroke-miterlimit="10" stroke="rgb(61,163,140)" stroke-opacity="1" stroke-width="10.132" d=" M186.83900451660156,9.286999702453613 C186.83900451660156,9.286999702453613 186.83900451660156,164.1479949951172 186.83900451660156,164.1479949951172"></path></g><g opacity="1" transform="matrix(1,0,0,1,44,0)"><path stroke-linecap="butt" stroke-linejoin="miter" fill-opacity="0" stroke-miterlimit="10" stroke="rgb(61,163,140)" stroke-opacity="1" stroke-width="10.132" d=" M212.10400390625,9.286999702453613 C212.10400390625,9.286999702453613 212.10400390625,164.1479949951172 212.10400390625,164.1479949951172"></path></g><g opacity="0" transform="matrix(1,0,0,1,42,0)"><path stroke-linecap="butt" stroke-linejoin="miter" fill-opacity="0" stroke-miterlimit="10" stroke="rgb(61,163,140)" stroke-opacity="1" stroke-width="18.575" d=" M237.38499450683594,9.286999702453613 C237.38499450683594,9.286999702453613 237.38499450683594,164.1479949951172 237.38499450683594,164.1479949951172"></path></g><g opacity="1" transform="matrix(1,0,0,1,0,95.19999694824219)"><path stroke-linecap="round" stroke-linejoin="miter" fill-opacity="0" stroke-miterlimit="10" stroke-dasharray=" 20.264 20.264" stroke-dashoffset="0" stroke="rgb(41,120,88)" stroke-opacity="1" stroke-width="5" d=" M124.66100311279297,56.04899978637695 C124.66100311279297,56.04899978637695 265.0409851074219,56.04899978637695 265.0409851074219,56.04899978637695"></path></g><g opacity="1" transform="matrix(1,0,0,1,0,99)"><path stroke-linecap="butt" stroke-linejoin="miter" fill-opacity="0" stroke-miterlimit="10" stroke="rgb(41,120,88)" stroke-opacity="1" stroke-width="5" d=" M2.5,41.542999267578125 C2.5,41.542999267578125 265.0409851074219,41.542999267578125 265.0409851074219,41.542999267578125"></path></g></g><g transform="matrix(0,0,0,0,480,270)" opacity="1" style="display: none;"><g opacity="1" transform="matrix(1,0,0,1,133.18600463867188,109.51300048828125)"><path fill="rgb(254,254,255)" fill-opacity="1" d=" M93.06800079345703,77.16000366210938 C93.06800079345703,77.16000366210938 -93.06800079345703,77.16000366210938 -93.06800079345703,77.16000366210938 C-98.48200225830078,77.16000366210938 -102.91100311279297,72.73100280761719 -102.91100311279297,67.31700134277344 C-102.91100311279297,67.31700134277344 -102.91100311279297,-67.31600189208984 -102.91100311279297,-67.31600189208984 C-102.91100311279297,-72.7300033569336 -98.48200225830078,-77.16000366210938 -93.06800079345703,-77.16000366210938 C-93.06800079345703,-77.16000366210938 93.06800079345703,-77.16000366210938 93.06800079345703,-77.16000366210938 C98.48100280761719,-77.16000366210938 102.91100311279297,-72.7300033569336 102.91100311279297,-67.31600189208984 C102.91100311279297,-67.31600189208984 102.91100311279297,67.31700134277344 102.91100311279297,67.31700134277344 C102.91100311279297,72.73100280761719 98.48100280761719,77.16000366210938 93.06800079345703,77.16000366210938z"></path><path stroke-linecap="butt" stroke-linejoin="miter" fill-opacity="0" stroke-miterlimit="10" stroke="rgb(41,120,88)" stroke-opacity="1" stroke-width="4.528" d=" M93.06800079345703,77.16000366210938 C93.06800079345703,77.16000366210938 -93.06800079345703,77.16000366210938 -93.06800079345703,77.16000366210938 C-98.48200225830078,77.16000366210938 -102.91100311279297,72.73100280761719 -102.91100311279297,67.31700134277344 C-102.91100311279297,67.31700134277344 -102.91100311279297,-67.31600189208984 -102.91100311279297,-67.31600189208984 C-102.91100311279297,-72.7300033569336 -98.48200225830078,-77.16000366210938 -93.06800079345703,-77.16000366210938 C-93.06800079345703,-77.16000366210938 93.06800079345703,-77.16000366210938 93.06800079345703,-77.16000366210938 C98.48100280761719,-77.16000366210938 102.91100311279297,-72.7300033569336 102.91100311279297,-67.31600189208984 C102.91100311279297,-67.31600189208984 102.91100311279297,67.31700134277344 102.91100311279297,67.31700134277344 C102.91100311279297,72.73100280761719 98.48100280761719,77.16000366210938 93.06800079345703,77.16000366210938z"></path></g><g opacity="1" transform="matrix(1,0,0,1,143.8489990234375,99.14299774169922)"><path fill="rgb(254,254,255)" fill-opacity="1" d=" M93.06800079345703,77.16000366210938 C93.06800079345703,77.16000366210938 -93.06900024414062,77.16000366210938 -93.06900024414062,77.16000366210938 C-98.48200225830078,77.16000366210938 -102.91100311279297,72.7300033569336 -102.91100311279297,67.31700134277344 C-102.91100311279297,67.31700134277344 -102.91100311279297,-67.31800079345703 -102.91100311279297,-67.31800079345703 C-102.91100311279297,-72.73100280761719 -98.48200225830078,-77.16000366210938 -93.06900024414062,-77.16000366210938 C-93.06900024414062,-77.16000366210938 93.06800079345703,-77.16000366210938 93.06800079345703,-77.16000366210938 C98.48100280761719,-77.16000366210938 102.91100311279297,-72.73100280761719 102.91100311279297,-67.31800079345703 C102.91100311279297,-67.31800079345703 102.91100311279297,67.31700134277344 102.91100311279297,67.31700134277344 C102.91100311279297,72.7300033569336 98.48100280761719,77.16000366210938 93.06800079345703,77.16000366210938z"></path><path stroke-linecap="butt" stroke-linejoin="miter" fill-opacity="0" stroke-miterlimit="10" stroke="rgb(41,120,88)" stroke-opacity="1" stroke-width="4.528" d=" M93.06800079345703,77.16000366210938 C93.06800079345703,77.16000366210938 -93.06900024414062,77.16000366210938 -93.06900024414062,77.16000366210938 C-98.48200225830078,77.16000366210938 -102.91100311279297,72.7300033569336 -102.91100311279297,67.31700134277344 C-102.91100311279297,67.31700134277344 -102.91100311279297,-67.31800079345703 -102.91100311279297,-67.31800079345703 C-102.91100311279297,-72.73100280761719 -98.48200225830078,-77.16000366210938 -93.06900024414062,-77.16000366210938 C-93.06900024414062,-77.16000366210938 93.06800079345703,-77.16000366210938 93.06800079345703,-77.16000366210938 C98.48100280761719,-77.16000366210938 102.91100311279297,-72.73100280761719 102.91100311279297,-67.31800079345703 C102.91100311279297,-67.31800079345703 102.91100311279297,67.31700134277344 102.91100311279297,67.31700134277344 C102.91100311279297,72.7300033569336 98.48100280761719,77.16000366210938 93.06800079345703,77.16000366210938z"></path></g><g opacity="1" transform="matrix(1,0,0,1,155.33200073242188,88.47899627685547)"><path fill="rgb(254,254,255)" fill-opacity="1" d=" M93.06800079345703,77.16000366210938 C93.06800079345703,77.16000366210938 -93.06800079345703,77.16000366210938 -93.06800079345703,77.16000366210938 C-98.48100280761719,77.16000366210938 -102.91100311279297,72.7300033569336 -102.91100311279297,67.31700134277344 C-102.91100311279297,67.31700134277344 -102.91100311279297,-67.31700134277344 -102.91100311279297,-67.31700134277344 C-102.91100311279297,-72.7300033569336 -98.48100280761719,-77.16000366210938 -93.06800079345703,-77.16000366210938 C-93.06800079345703,-77.16000366210938 93.06800079345703,-77.16000366210938 93.06800079345703,-77.16000366210938 C98.48200225830078,-77.16000366210938 102.91100311279297,-72.7300033569336 102.91100311279297,-67.31700134277344 C102.91100311279297,-67.31700134277344 102.91100311279297,67.31700134277344 102.91100311279297,67.31700134277344 C102.91100311279297,72.7300033569336 98.48200225830078,77.16000366210938 93.06800079345703,77.16000366210938z"></path><path stroke-linecap="butt" stroke-linejoin="miter" fill-opacity="0" stroke-miterlimit="10" stroke="rgb(41,120,88)" stroke-opacity="1" stroke-width="4.528" d=" M93.06800079345703,77.16000366210938 C93.06800079345703,77.16000366210938 -93.06800079345703,77.16000366210938 -93.06800079345703,77.16000366210938 C-98.48100280761719,77.16000366210938 -102.91100311279297,72.7300033569336 -102.91100311279297,67.31700134277344 C-102.91100311279297,67.31700134277344 -102.91100311279297,-67.31700134277344 -102.91100311279297,-67.31700134277344 C-102.91100311279297,-72.7300033569336 -98.48100280761719,-77.16000366210938 -93.06800079345703,-77.16000366210938 C-93.06800079345703,-77.16000366210938 93.06800079345703,-77.16000366210938 93.06800079345703,-77.16000366210938 C98.48200225830078,-77.16000366210938 102.91100311279297,-72.7300033569336 102.91100311279297,-67.31700134277344 C102.91100311279297,-67.31700134277344 102.91100311279297,67.31700134277344 102.91100311279297,67.31700134277344 C102.91100311279297,72.7300033569336 98.48200225830078,77.16000366210938 93.06800079345703,77.16000366210938z"></path></g></g><g transform="matrix(0,0,0,0,480,270)" opacity="1" style="display: none;"><g opacity="1" transform="matrix(1,0,0,1,0,0)"><path stroke-linecap="round" stroke-linejoin="miter" fill-opacity="0" stroke-miterlimit="10" stroke="rgb(61,163,140)" stroke-opacity="1" stroke-width="4.528" d=" M137.4510040283203,139.0800018310547 C137.4510040283203,139.0800018310547 74.6259994506836,139.0800018310547 74.6259994506836,139.0800018310547"></path></g><g opacity="1" transform="matrix(1,0,0,1,0,0)"><path stroke-linecap="round" stroke-linejoin="miter" fill-opacity="0" stroke-miterlimit="10" stroke="rgb(61,163,140)" stroke-opacity="1" stroke-width="4.528" d=" M157.74600219726562,126.56099700927734 C157.74600219726562,126.56099700927734 74.6259994506836,126.56099700927734 74.6259994506836,126.56099700927734"></path></g><g opacity="1" transform="matrix(1,0,0,1,0,0)"><path stroke-linecap="round" stroke-linejoin="miter" fill-opacity="0" stroke-miterlimit="10" stroke="rgb(61,163,140)" stroke-opacity="1" stroke-width="4.528" d=" M157.74600219726562,113.69100189208984 C157.74600219726562,113.69100189208984 74.6259994506836,113.69100189208984 74.6259994506836,113.69100189208984"></path></g><g opacity="1" transform="matrix(1,0,0,1,0,0)"><path stroke-linecap="round" stroke-linejoin="miter" fill-opacity="0" stroke-miterlimit="10" stroke="rgb(61,163,140)" stroke-opacity="1" stroke-width="4.528" d=" M157.74600219726562,100.82099914550781 C157.74600219726562,100.82099914550781 74.6259994506836,100.82099914550781 74.6259994506836,100.82099914550781"></path></g><g opacity="1" transform="matrix(1,0,0,1,0,0)"><path stroke-linecap="round" stroke-linejoin="miter" fill-opacity="0" stroke-miterlimit="10" stroke="rgb(61,163,140)" stroke-opacity="1" stroke-width="4.528" d=" M157.74600219726562,87.94999694824219 C157.74600219726562,87.94999694824219 74.6259994506836,87.94999694824219 74.6259994506836,87.94999694824219"></path></g><g opacity="1" transform="matrix(1,0,0,1,0,0)"><path stroke-linecap="round" stroke-linejoin="miter" fill-opacity="0" stroke-miterlimit="10" stroke="rgb(61,163,140)" stroke-opacity="1" stroke-width="4.528" d=" M157.74600219726562,75.0790023803711 C157.74600219726562,75.0790023803711 74.6259994506836,75.0790023803711 74.6259994506836,75.0790023803711"></path></g><g opacity="1" transform="matrix(1,0,0,1,0,0)"><path stroke-linecap="round" stroke-linejoin="miter" fill-opacity="0" stroke-miterlimit="10" stroke="rgb(61,163,140)" stroke-opacity="1" stroke-width="4.528" d=" M157.74600219726562,62.20899963378906 C157.74600219726562,62.20899963378906 74.6259994506836,62.20899963378906 74.6259994506836,62.20899963378906"></path></g></g><g transform="matrix(0,0,0,0,476.70001220703125,262.09912109375)" opacity="1" style="display: none;"><g opacity="1" transform="matrix(1,0,0,1,160.1179962158203,92.79499816894531)"><path fill="rgb(254,254,255)" fill-opacity="1" d=" M24.323999404907227,77.01300048828125 C16.613000869750977,79.1500015258789 8.449000358581543,80.2959976196289 0,80.2959976196289 C-47.3129997253418,80.2959976196289 -85.66799926757812,44.34700012207031 -85.66799926757812,0.0010000000474974513 C-85.66799926757812,-44.345001220703125 -47.3129997253418,-80.2959976196289 0,-80.2959976196289 C47.31399917602539,-80.2959976196289 85.66799926757812,-44.345001220703125 85.66799926757812,0.0010000000474974513 C85.66799926757812,0.0010000000474974513 85.66799926757812,0.0010000000474974513 85.66799926757812,0.0010000000474974513 C85.66799926757812,36.428001403808594 59.790000915527344,67.18800354003906 24.323999404907227,77.01300048828125"></path><path stroke-linecap="butt" stroke-linejoin="miter" fill-opacity="0" stroke-miterlimit="10" stroke="rgb(41,120,88)" stroke-opacity="1" stroke-width="5" d=" M24.323999404907227,77.01300048828125 C16.613000869750977,79.1500015258789 8.449000358581543,80.2959976196289 0,80.2959976196289 C-47.3129997253418,80.2959976196289 -85.66799926757812,44.34700012207031 -85.66799926757812,0.0010000000474974513 C-85.66799926757812,-44.345001220703125 -47.3129997253418,-80.2959976196289 0,-80.2959976196289 C47.31399917602539,-80.2959976196289 85.66799926757812,-44.345001220703125 85.66799926757812,0.0010000000474974513 C85.66799926757812,0.0010000000474974513 85.66799926757812,0.0010000000474974513 85.66799926757812,0.0010000000474974513 C85.66799926757812,36.428001403808594 59.790000915527344,67.18800354003906 24.323999404907227,77.01300048828125"></path></g></g><g transform="matrix(0,0,0,0,477.5,267.7491149902344)" opacity="1" style="display: none;"><g opacity="1" transform="matrix(1,0,0,1,0,0)"><path stroke-linecap="round" stroke-linejoin="miter" fill-opacity="0" stroke-miterlimit="10" stroke="rgb(61,163,140)" stroke-opacity="1" stroke-width="5" d=" M206.4969940185547,156.2530059814453 C206.4969940185547,156.2530059814453 109.24400329589844,156.2530059814453 109.24400329589844,156.2530059814453"></path></g><g opacity="1" transform="matrix(1,0,0,1,0,0)"><path stroke-linecap="round" stroke-linejoin="miter" fill-opacity="0" stroke-miterlimit="10" stroke="rgb(61,163,140)" stroke-opacity="1" stroke-width="5" d=" M226.5290069580078,137.81300354003906 C226.5290069580078,137.81300354003906 89.41799926757812,137.81300354003906 89.41799926757812,137.81300354003906"></path></g><g opacity="1" transform="matrix(1,0,0,1,0,0)"><path stroke-linecap="round" stroke-linejoin="miter" fill-opacity="0" stroke-miterlimit="10" stroke="rgb(61,163,140)" stroke-opacity="1" stroke-width="5" d=" M236.28199768066406,119.3740005493164 C236.28199768066406,119.3740005493164 79.66500091552734,119.3740005493164 79.66500091552734,119.3740005493164"></path></g><g opacity="1" transform="matrix(1,0,0,1,0,0)"><path stroke-linecap="round" stroke-linejoin="miter" fill-opacity="0" stroke-miterlimit="10" stroke="rgb(61,163,140)" stroke-opacity="1" stroke-width="5" d=" M239.20199584960938,100.93299865722656 C239.20199584960938,100.93299865722656 76.80400085449219,100.93299865722656 76.80400085449219,100.93299865722656"></path></g><g opacity="1" transform="matrix(1,0,0,1,0,0)"><path stroke-linecap="round" stroke-linejoin="miter" fill-opacity="0" stroke-miterlimit="10" stroke="rgb(61,163,140)" stroke-opacity="1" stroke-width="5" d=" M241.0760040283203,82.49400329589844 C241.0760040283203,82.49400329589844 74.89700317382812,82.49400329589844 74.89700317382812,82.49400329589844"></path></g><g opacity="1" transform="matrix(1,0,0,1,0,0)"><path stroke-linecap="round" stroke-linejoin="miter" fill-opacity="0" stroke-miterlimit="10" stroke="rgb(61,163,140)" stroke-opacity="1" stroke-width="5" d=" M236.28199768066406,64.05400085449219 C236.28199768066406,64.05400085449219 79.66500091552734,64.05400085449219 79.66500091552734,64.05400085449219"></path></g><g opacity="1" transform="matrix(1,0,0,1,0,0)"><path stroke-linecap="round" stroke-linejoin="miter" fill-opacity="0" stroke-miterlimit="10" stroke="rgb(61,163,140)" stroke-opacity="1" stroke-width="5" d=" M225.5500030517578,45.61399841308594 C225.5500030517578,45.61399841308594 90.39600372314453,45.61399841308594 90.39600372314453,45.61399841308594"></path></g><g opacity="1" transform="matrix(1,0,0,1,0,0)"><path stroke-linecap="round" stroke-linejoin="miter" fill-opacity="0" stroke-miterlimit="10" stroke="rgb(61,163,140)" stroke-opacity="1" stroke-width="5" d=" M206.55299377441406,27.174999237060547 C206.55299377441406,27.174999237060547 109.13899993896484,27.174999237060547 109.13899993896484,27.174999237060547"></path></g></g><g transform="matrix(0,0,0,0,477.5,267.7491149902344)" opacity="1" style="display: none;"><g opacity="1" transform="matrix(1,0,0,1,157.9739990234375,88.50299835205078)"><path fill="rgb(254,254,255)" fill-opacity="1" d=" M43.88100051879883,0 C43.88100051879883,24.235000610351562 24.233999252319336,43.880001068115234 -0.0010000000474974513,43.880001068115234 C-24.235000610351562,43.880001068115234 -43.88100051879883,24.235000610351562 -43.88100051879883,0 C-43.88100051879883,-24.233999252319336 -24.235000610351562,-43.880001068115234 -0.0010000000474974513,-43.880001068115234 C24.233999252319336,-43.880001068115234 43.88100051879883,-24.233999252319336 43.88100051879883,0z"></path><path stroke-linecap="round" stroke-linejoin="miter" fill-opacity="0" stroke-miterlimit="10" stroke="rgb(41,120,88)" stroke-opacity="1" stroke-width="5" d=" M43.88100051879883,0 C43.88100051879883,24.235000610351562 24.233999252319336,43.880001068115234 -0.0010000000474974513,43.880001068115234 C-24.235000610351562,43.880001068115234 -43.88100051879883,24.235000610351562 -43.88100051879883,0 C-43.88100051879883,-24.233999252319336 -24.235000610351562,-43.880001068115234 -0.0010000000474974513,-43.880001068115234 C24.233999252319336,-43.880001068115234 43.88100051879883,-24.233999252319336 43.88100051879883,0z"></path></g></g><g transform="matrix(0,0,0,0,477.5,267.7491149902344)" opacity="1" style="display: none;"><g opacity="1" transform="matrix(1,0,0,1,0,0)"><path stroke-linecap="round" stroke-linejoin="miter" fill-opacity="0" stroke-miterlimit="10" stroke="rgb(61,163,140)" stroke-opacity="1" stroke-width="5" d=" M118.26699829101562,74.72100067138672 C118.26699829101562,74.72100067138672 197.4709930419922,74.72100067138672 197.4709930419922,74.72100067138672"></path></g><g opacity="1" transform="matrix(1,0,0,1,0,0)"><path stroke-linecap="round" stroke-linejoin="miter" fill-opacity="0" stroke-miterlimit="10" stroke="rgb(61,163,140)" stroke-opacity="1" stroke-width="5" d=" M121.39600372314453,108.23400115966797 C121.39600372314453,108.23400115966797 194.20700073242188,108.23400115966797 194.20700073242188,108.23400115966797"></path></g></g><g transform="matrix(0,0,0,0,480,269.7500915527344)" opacity="1" style="display: none;"><g opacity="1" transform="matrix(1,0,0,1,160.1179962158203,92.88200378417969)"><path stroke-linecap="round" stroke-linejoin="round" fill-opacity="0" stroke="rgb(61,163,140)" stroke-opacity="1" stroke-width="5" d=" M147.6179962158203,3.056999921798706 C147.6179962158203,3.056999921798706 81.5270004272461,79.52200317382812 0,79.52200317382812 C-81.52799987792969,79.52200317382812 -147.6179962158203,3.056999921798706 -147.6179962158203,3.056999921798706 C-147.6179962158203,3.056999921798706 -81.52799987792969,-81.24099731445312 0,-81.24099731445312 C81.5270004272461,-81.24099731445312 147.6179962158203,3.056999921798706 147.6179962158203,3.056999921798706z"></path></g></g><g transform="matrix(0,0,0,0,476.70001220703125,262.09912109375)" opacity="1" style="display: none;"><g opacity="1" transform="matrix(1,0,0,1,160.1179962158203,89.62300109863281)"><path stroke-linecap="round" stroke-linejoin="miter" fill-opacity="0" stroke-miterlimit="10" stroke="rgb(41,120,88)" stroke-opacity="1" stroke-width="5" d=" M44.52799987792969,0 C44.52799987792969,24.591999053955078 24.591999053955078,44.527000427246094 0.0010000000474974513,44.527000427246094 C-24.590999603271484,44.527000427246094 -44.52799987792969,24.591999053955078 -44.52799987792969,0 C-44.52799987792969,-24.591999053955078 -24.590999603271484,-44.527000427246094 0.0010000000474974513,-44.527000427246094 C24.591999053955078,-44.527000427246094 44.52799987792969,-24.591999053955078 44.52799987792969,0z"></path></g><g opacity="1" transform="matrix(1,0,0,1,154.2429962158203,83.31600189208984)"><path stroke-linecap="round" stroke-linejoin="miter" fill-opacity="0" stroke-miterlimit="10" stroke="rgb(61,163,140)" stroke-opacity="1" stroke-width="5" d=" M-15.845999717712402,18.736000061035156 C-17.31599998474121,15.430000305175781 -18.132999420166016,11.770000457763672 -18.132999420166016,7.919000148773193 C-18.132999420166016,-6.802999973297119 -6.199999809265137,-18.736000061035156 8.520000457763672,-18.736000061035156 C11.90999984741211,-18.736000061035156 15.151000022888184,-18.10300064086914 18.132999420166016,-16.950000762939453"></path></g><g opacity="1" transform="matrix(1,0,0,1,223.33999633789062,158.61399841308594)"><path stroke-linecap="round" stroke-linejoin="miter" fill-opacity="0" stroke-miterlimit="10" stroke="rgb(41,120,88)" stroke-opacity="1" stroke-width="5" d=" M-34.34700012207031,-34.242000579833984 C-34.34700012207031,-34.242000579833984 34.34700012207031,34.242000579833984 34.34700012207031,34.242000579833984"></path></g></g><g transform="matrix(0.9999967813491821,0,0,0.9999967813491821,316.58251953125,172.19940185546875)" opacity="1" style="display: none;"><g opacity="1" transform="matrix(1,0,0,1,124.73799896240234,206.87100219726562)"><path stroke-linecap="round" stroke-linejoin="miter" fill-opacity="0" stroke-miterlimit="10" stroke-dasharray=" 17.319 17.319" stroke-dashoffset="0" stroke="rgb(61,163,140)" stroke-opacity="1" stroke-width="5" d="M0 0"></path></g><g opacity="1" transform="matrix(0,0,0,0,222.531005859375,210.75599670410156)"><path fill="rgb(40,117,88)" fill-opacity="1" d=" M-1.5850000381469727,7.374000072479248 C-1.5850000381469727,7.374000072479248 -8.803000450134277,-7.374000072479248 -8.803000450134277,-7.374000072479248 C-8.803000450134277,-7.374000072479248 8.803000450134277,-6.8429999351501465 8.803000450134277,-6.8429999351501465 C8.803000450134277,-6.8429999351501465 -1.5850000381469727,7.374000072479248 -1.5850000381469727,7.374000072479248z"></path></g></g><g transform="matrix(1.2000000476837158,0,0,1.2000000476837158,324.2503967285156,144.74839782714844)" opacity="1" style="display: none;"><g opacity="1" transform="matrix(1,0,0,1,0,25)"><path stroke-linecap="round" stroke-linejoin="miter" fill-opacity="0" stroke-miterlimit="10" stroke="rgb(61,163,140)" stroke-opacity="1" stroke-width="2.749" d="M0 0"></path></g><g opacity="1" transform="matrix(1,0,0,1,185.4250030517578,124.81900024414062)"><path stroke-linecap="round" stroke-linejoin="miter" fill-opacity="0" stroke-miterlimit="10" stroke="rgb(61,163,140)" stroke-opacity="1" stroke-width="2.749" d="M0 0"></path></g><g opacity="1" transform="matrix(1,0,0,1,101.072998046875,124.75)"><path stroke-linecap="round" stroke-linejoin="miter" fill-opacity="0" stroke-miterlimit="10" stroke="rgb(61,163,140)" stroke-opacity="1" stroke-width="2.749" d="M0 0"></path></g><g opacity="1" transform="matrix(1,0,0,1,122.89299774169922,136.4149932861328)"><path stroke-linecap="round" stroke-linejoin="miter" fill-opacity="0" stroke-miterlimit="10" stroke="rgb(61,163,140)" stroke-opacity="1" stroke-width="2.749" d="M0 0"></path></g><g opacity="1" transform="matrix(1,0,0,1,165.62600708007812,135.6490020751953)"><path stroke-linecap="round" stroke-linejoin="miter" fill-opacity="0" stroke-miterlimit="10" stroke="rgb(61,163,140)" stroke-opacity="1" stroke-width="2.749" d="M0 0"></path></g></g><g transform="matrix(0,0,0,0,480,270)" opacity="1" style="display: none;"><g opacity="1" transform="matrix(1,0,0,1,0,0)"><path stroke-linecap="butt" stroke-linejoin="miter" fill-opacity="0" stroke-miterlimit="10" stroke="rgb(41,120,88)" stroke-opacity="1" stroke-width="4.528" d=" M52.42100143432617,36.93600082397461 C52.42100143432617,36.93600082397461 258.24200439453125,36.93600082397461 258.24200439453125,36.93600082397461"></path></g><g opacity="1" transform="matrix(1,0,0,1,67.36499786376953,24.312999725341797)"><path fill="rgb(60,162,139)" fill-opacity="1" d=" M5.508999824523926,-0.0010000000474974513 C5.508999824523926,3.0409998893737793 3.0429999828338623,5.507999897003174 0,5.507999897003174 C-3.0420000553131104,5.507999897003174 -5.508999824523926,3.0409998893737793 -5.508999824523926,-0.0010000000474974513 C-5.508999824523926,-3.0429999828338623 -3.0420000553131104,-5.507999897003174 0,-5.507999897003174 C3.0429999828338623,-5.507999897003174 5.508999824523926,-3.0429999828338623 5.508999824523926,-0.0010000000474974513z"></path></g><g opacity="1" transform="matrix(1,0,0,1,84.0719985961914,24.312999725341797)"><path fill="rgb(60,162,139)" fill-opacity="1" d=" M5.508999824523926,-0.0010000000474974513 C5.508999824523926,3.0409998893737793 3.0420000553131104,5.507999897003174 0,5.507999897003174 C-3.0429999828338623,5.507999897003174 -5.508999824523926,3.0409998893737793 -5.508999824523926,-0.0010000000474974513 C-5.508999824523926,-3.0429999828338623 -3.0429999828338623,-5.507999897003174 0,-5.507999897003174 C3.0420000553131104,-5.507999897003174 5.508999824523926,-3.0429999828338623 5.508999824523926,-0.0010000000474974513z"></path></g><g opacity="1" transform="matrix(1,0,0,1,98.9219970703125,24.312999725341797)"><path fill="rgb(60,162,139)" fill-opacity="1" d=" M5.508999824523926,-0.0010000000474974513 C5.508999824523926,3.0409998893737793 3.0429999828338623,5.507999897003174 0,5.507999897003174 C-3.0420000553131104,5.507999897003174 -5.508999824523926,3.0409998893737793 -5.508999824523926,-0.0010000000474974513 C-5.508999824523926,-3.0429999828338623 -3.0420000553131104,-5.507999897003174 0,-5.507999897003174 C3.0429999828338623,-5.507999897003174 5.508999824523926,-3.0429999828338623 5.508999824523926,-0.0010000000474974513z"></path></g><g opacity="1" transform="matrix(1,0,0,1,242.95899963378906,24.312999725341797)"><path stroke-linecap="butt" stroke-linejoin="miter" fill-opacity="0" stroke-miterlimit="10" stroke="rgb(61,163,140)" stroke-opacity="1" stroke-width="4.528" d=" M-5.508999824523926,-5.508999824523926 C-5.508999824523926,-5.508999824523926 5.508999824523926,5.508999824523926 5.508999824523926,5.508999824523926"></path></g><g opacity="1" transform="matrix(1,0,0,1,242.95799255371094,24.312999725341797)"><path stroke-linecap="butt" stroke-linejoin="miter" fill-opacity="0" stroke-miterlimit="10" stroke="rgb(61,163,140)" stroke-opacity="1" stroke-width="4.528" d=" M5.508999824523926,-5.508999824523926 C5.508999824523926,-5.508999824523926 -5.508999824523926,5.508999824523926 -5.508999824523926,5.508999824523926"></path></g><g opacity="1" transform="matrix(1,0,0,1,56.755001068115234,154.36300659179688)"><path stroke-linecap="round" stroke-linejoin="miter" fill-opacity="0" stroke-miterlimit="10" stroke-dasharray=" 12.675 12.675" stroke-dashoffset="0" stroke="rgb(61,163,140)" stroke-opacity="1" stroke-width="4.528" d=" M-41.79899978637695,-26.683000564575195 C-41.79899978637695,-7.810999870300293 -41.79899978637695,18.989999771118164 -41.79899978637695,18.989999771118164 C-41.79899978637695,18.989999771118164 -45.435001373291016,44.849998474121094 -19.298999786376953,44.849998474121094 C-19.298999786376953,44.849998474121094 45.435001373291016,44.849998474121094 45.435001373291016,44.849998474121094 M-41.79899978637695,-44.85100173950195 C-41.79899978637695,-44.85100173950195 -41.79899978637695,-36.9379997253418 -41.79899978637695,-26.683000564575195"></path></g><g opacity="1" transform="matrix(1,0,0,1,212.9149932861328,88.47899627685547)"><path fill="rgb(254,254,255)" fill-opacity="1" d=" M-26.270000457763672,0 C-26.270000457763672,-14.508999824523926 -14.508000373840332,-26.270000457763672 0.0010000000474974513,-26.270000457763672 C14.508999824523926,-26.270000457763672 26.270000457763672,-14.508999824523926 26.270000457763672,0 C26.270000457763672,14.508999824523926 14.508999824523926,26.270000457763672 0.0010000000474974513,26.270000457763672 C-14.508000373840332,26.270000457763672 -26.270000457763672,14.508999824523926 -26.270000457763672,0z"></path><path stroke-linecap="butt" stroke-linejoin="miter" fill-opacity="0" stroke-miterlimit="10" stroke="rgb(41,120,88)" stroke-opacity="1" stroke-width="4.528" d=" M-26.270000457763672,0 C-26.270000457763672,-14.508999824523926 -14.508000373840332,-26.270000457763672 0.0010000000474974513,-26.270000457763672 C14.508999824523926,-26.270000457763672 26.270000457763672,-14.508999824523926 26.270000457763672,0 C26.270000457763672,14.508999824523926 14.508999824523926,26.270000457763672 0.0010000000474974513,26.270000457763672 C-14.508000373840332,26.270000457763672 -26.270000457763672,14.508999824523926 -26.270000457763672,0z"></path></g><g opacity="1" transform="matrix(1,0,0,1,0,0)"><path fill="rgb(254,254,255)" fill-opacity="1" d=" M192.77699279785156,127.56099700927734 C192.77699279785156,127.56099700927734 237.4499969482422,127.56099700927734 237.4499969482422,127.56099700927734"></path><path stroke-linecap="butt" stroke-linejoin="miter" fill-opacity="0" stroke-miterlimit="10" stroke="rgb(41,120,88)" stroke-opacity="1" stroke-width="4.528" d=" M192.77699279785156,127.56099700927734 C192.77699279785156,127.56099700927734 237.4499969482422,127.56099700927734 237.4499969482422,127.56099700927734"></path></g><g opacity="1" transform="matrix(1,0,0,1,0,0)"><path fill="rgb(254,254,255)" fill-opacity="1" d=" M192.77699279785156,139.0800018310547 C192.77699279785156,139.0800018310547 224.4499969482422,139.0800018310547 224.4499969482422,139.0800018310547"></path><path stroke-linecap="butt" stroke-linejoin="miter" fill-opacity="0" stroke-miterlimit="10" stroke="rgb(41,120,88)" stroke-opacity="1" stroke-width="4.528" d=" M192.77699279785156,139.0800018310547 C192.77699279785156,139.0800018310547 224.4499969482422,139.0800018310547 224.4499969482422,139.0800018310547"></path></g><g opacity="1" transform="matrix(1,0,0,1,224.4499969482422,101.90499877929688)"><path fill="rgb(254,254,255)" fill-opacity="1" d=" M13.13599967956543,-13.13599967956543 C13.13599967956543,-13.13599967956543 -13.13599967956543,-13.13599967956543 -13.13599967956543,-13.13599967956543 C-13.13599967956543,-13.13599967956543 -13.13599967956543,13.13599967956543 -13.13599967956543,13.13599967956543"></path><path stroke-linecap="butt" stroke-linejoin="miter" fill-opacity="0" stroke-miterlimit="10" stroke="rgb(41,120,88)" stroke-opacity="1" stroke-width="4.528" d=" M13.13599967956543,-13.13599967956543 C13.13599967956543,-13.13599967956543 -13.13599967956543,-13.13599967956543 -13.13599967956543,-13.13599967956543 C-13.13599967956543,-13.13599967956543 -13.13599967956543,13.13599967956543 -13.13599967956543,13.13599967956543"></path></g><g opacity="1" transform="matrix(1,0,0,1,0,0)"><path fill="rgb(254,254,255)" fill-opacity="1" d=" M211.31500244140625,62.5 C211.31500244140625,62.5 211.31500244140625,88.7699966430664 211.31500244140625,88.7699966430664"></path><path stroke-linecap="butt" stroke-linejoin="miter" fill-opacity="0" stroke-miterlimit="10" stroke="rgb(41,120,88)" stroke-opacity="1" stroke-width="4.528" d=" M211.31500244140625,62.5 C211.31500244140625,62.5 211.31500244140625,88.7699966430664 211.31500244140625,88.7699966430664"></path></g></g><g transform="matrix(1,0,0,1,319.88201904296875,141.5989990234375)" opacity="1" style="display: block;"><g opacity="1" transform="matrix(1,0,0,1,160.1179962158203,92.79499816894531)"><path fill="rgb(254,254,255)" fill-opacity="1" d=" M24.323999404907227,77.01300048828125 C16.613000869750977,79.1500015258789 8.449000358581543,80.2959976196289 0,80.2959976196289 C-47.3129997253418,80.2959976196289 -85.66799926757812,44.34700012207031 -85.66799926757812,0.0010000000474974513 C-85.66799926757812,-44.345001220703125 -47.3129997253418,-80.2959976196289 0,-80.2959976196289 C47.31399917602539,-80.2959976196289 85.66799926757812,-44.345001220703125 85.66799926757812,0.0010000000474974513 C85.66799926757812,0.0010000000474974513 85.66799926757812,0.0010000000474974513 85.66799926757812,0.0010000000474974513 C85.66799926757812,36.428001403808594 59.790000915527344,67.18800354003906 24.323999404907227,77.01300048828125"></path><path stroke-linecap="butt" stroke-linejoin="miter" fill-opacity="0" stroke-miterlimit="10" stroke="rgb(41,120,88)" stroke-opacity="1" stroke-width="5" d=" M24.323999404907227,77.01300048828125 C16.613000869750977,79.1500015258789 8.449000358581543,80.2959976196289 0,80.2959976196289 C-47.3129997253418,80.2959976196289 -85.66799926757812,44.34700012207031 -85.66799926757812,0.0010000000474974513 C-85.66799926757812,-44.345001220703125 -47.3129997253418,-80.2959976196289 0,-80.2959976196289 C47.31399917602539,-80.2959976196289 85.66799926757812,-44.345001220703125 85.66799926757812,0.0010000000474974513 C85.66799926757812,0.0010000000474974513 85.66799926757812,0.0010000000474974513 85.66799926757812,0.0010000000474974513 C85.66799926757812,36.428001403808594 59.790000915527344,67.18800354003906 24.323999404907227,77.01300048828125"></path></g></g><g transform="matrix(1,0,0,1,319.88201904296875,142.98300170898438)" opacity="1" style="display: block;"><g opacity="1" transform="matrix(1,0,0,1,160.1179962158203,92.88200378417969)"><path stroke-linecap="round" stroke-linejoin="round" fill-opacity="0" stroke="rgb(61,163,140)" stroke-opacity="1" stroke-width="5" d=" M147.6179962158203,3.056999921798706 C147.6179962158203,3.056999921798706 81.5270004272461,79.52200317382812 0,79.52200317382812 C-81.52799987792969,79.52200317382812 -147.6179962158203,3.056999921798706 -147.6179962158203,3.056999921798706 C-147.6179962158203,3.056999921798706 -81.52799987792969,-81.24099731445312 0,-81.24099731445312 C81.5270004272461,-81.24099731445312 147.6179962158203,3.056999921798706 147.6179962158203,3.056999921798706z"></path></g></g><g transform="matrix(0.9999986886978149,0,0,0.9999986886978149,319.8822021484375,141.59912109375)" opacity="1" style="display: block;"><g opacity="1" transform="matrix(1,0,0,1,160.1179962158203,89.62300109863281)"><path stroke-linecap="round" stroke-linejoin="miter" fill-opacity="0" stroke-miterlimit="10" stroke="rgb(41,120,88)" stroke-opacity="1" stroke-width="5" d=" M44.52799987792969,0 C44.52799987792969,24.591999053955078 24.591999053955078,44.527000427246094 0.0010000000474974513,44.527000427246094 C-24.590999603271484,44.527000427246094 -44.52799987792969,24.591999053955078 -44.52799987792969,0 C-44.52799987792969,-24.591999053955078 -24.590999603271484,-44.527000427246094 0.0010000000474974513,-44.527000427246094 C24.591999053955078,-44.527000427246094 44.52799987792969,-24.591999053955078 44.52799987792969,0z"></path></g><g opacity="1" transform="matrix(1,0,0,1,154.2429962158203,83.31600189208984)"><path stroke-linecap="round" stroke-linejoin="miter" fill-opacity="0" stroke-miterlimit="10" stroke="rgb(61,163,140)" stroke-opacity="1" stroke-width="5" d=" M-15.845999717712402,18.736000061035156 C-17.31599998474121,15.430000305175781 -18.132999420166016,11.770000457763672 -18.132999420166016,7.919000148773193 C-18.132999420166016,-6.802999973297119 -6.199999809265137,-18.736000061035156 8.520000457763672,-18.736000061035156 C11.90999984741211,-18.736000061035156 15.151000022888184,-18.10300064086914 18.132999420166016,-16.950000762939453"></path></g><g opacity="1" transform="matrix(1,0,0,1,223.33999633789062,158.61399841308594)"><path stroke-linecap="round" stroke-linejoin="miter" fill-opacity="0" stroke-miterlimit="10" stroke="rgb(41,120,88)" stroke-opacity="1" stroke-width="5" d=" M-34.34700012207031,-34.242000579833984 C-34.34700012207031,-34.242000579833984 34.34700012207031,34.242000579833984 34.34700012207031,34.242000579833984"></path></g></g><g transform="matrix(1,0,0,1,319.88201904296875,141.5989990234375)" opacity="1" style="display: block;"><g opacity="1" transform="matrix(1,0,0,1,124.73799896240234,206.87100219726562)"><path stroke-linecap="round" stroke-linejoin="miter" fill-opacity="0" stroke-miterlimit="10" stroke-dasharray=" 17.319 17.319" stroke-dashoffset="0" stroke="rgb(61,163,140)" stroke-opacity="1" stroke-width="5" d=" M-77.22799682617188,-39.93000030517578 C-48.770999908447266,16.91699981689453 20.381000518798828,39.93000030517578 77.22799682617188,11.472999572753906"></path></g><g opacity="1" transform="matrix(1,0,0,1,222.531005859375,210.75599670410156)"><path fill="rgb(40,117,88)" fill-opacity="1" d=" M-1.5850000381469727,7.374000072479248 C-1.5850000381469727,7.374000072479248 -8.803000450134277,-7.374000072479248 -8.803000450134277,-7.374000072479248 C-8.803000450134277,-7.374000072479248 8.803000450134277,-6.8429999351501465 8.803000450134277,-6.8429999351501465 C8.803000450134277,-6.8429999351501465 -1.5850000381469727,7.374000072479248 -1.5850000381469727,7.374000072479248z"></path></g></g></g></svg>